<svg width="48" height="48" viewBox="0 0 48 48" fill="none" xmlns="http://www.w3.org/2000/svg">
<path d="M24 4.5C34.7639 4.5 43.5 13.2361 43.5 24C43.5 34.7639 34.7639 43.5 24 43.5C13.2361 43.5 4.5 34.7639 4.5 24C4.5 13.2361 13.2361 4.5 24 4.5ZM24 8C22.9039 8 22 8.90386 22 10C22 11.0961 22.9039 12 24 12C30.6239 12 36 17.3761 36 24C36 30.6239 30.6239 36 24 36C17.3761 36 12 30.6239 12 24C12 22.9039 11.0961 22 10 22C8.90386 22 8 22.9039 8 24C8 32.8161 15.1839 40 24 40C32.8161 40 40 32.8161 40 24C40 15.1839 32.8161 8 24 8ZM24 14C22.9039 14 22 14.9039 22 16C22 17.0961 22.9039 18 24 18C27.3039 18 30 20.6961 30 24C30 27.3039 27.3039 30 24 30C22.9039 30 22 30.9039 22 32C22 33.0961 22.9039 34 24 34C29.5161 34 34 29.5161 34 24C34 18.4839 29.5161 14 24 14Z" fill="#F09219" stroke="#F09219"/>
</svg>
