<svg width="48" height="48" viewBox="0 0 48 48" fill="none" xmlns="http://www.w3.org/2000/svg">
<path d="M6.97742 33.432C9.02419 33.9934 11.1141 34.4347 13.1893 34.7924C13.5603 36.8798 13.9898 38.9599 14.5487 41.0062C11.3762 39.25 8.74781 36.6092 6.97742 33.432Z" fill="#F09219" stroke="#F09219"/>
<path d="M41.036 33.4291C39.2628 36.6271 36.5951 39.273 33.3856 41.058C33.9736 38.9867 34.4729 36.8973 34.8319 34.7914C36.9245 34.4328 38.9931 33.9919 41.036 33.4291Z" fill="#F09219" stroke="#F09219"/>
<path d="M42.04 15.42C39.52 14.66 36.98 14.04 34.4 13.6C33.98 11.02 33.36 8.45996 32.58 5.95996C36.72 7.93996 40.06 11.28 42.04 15.42Z" fill="#F09219"/>
<path d="M15.3 6.18C14.58 8.62 14.06 11.1 13.64 13.62C11.06 14.02 8.49996 14.66 5.95996 15.42C7.89996 11.4 11.12 8.1 15.1 6.12C15.16 6.12 15.24 6.18 15.3 6.18Z" fill="#F09219"/>
<path d="M30.98 13.18C26.34 12.66 21.66 12.66 17.02 13.18C17.52 10.44 18.16 7.7 19.06 5.06C19.1 4.9 19.08 4.78 19.1 4.62C20.68 4.24 22.3 4 24 4C25.68 4 27.32 4.24 28.88 4.62C28.9 4.78 28.9 4.9 28.94 5.06C29.84 7.72 30.48 10.44 30.98 13.18Z" fill="#F09219"/>
<path d="M13.18 30.98C10.42 30.48 7.7 29.84 5.06 28.94C4.9 28.9 4.78 28.92 4.62 28.9C4.24 27.32 4 25.7 4 24C4 22.32 4.24 20.68 4.62 19.12C4.78 19.1 4.9 19.1 5.06 19.06C7.72 18.18 10.42 17.52 13.18 17.02C12.68 21.66 12.68 26.34 13.18 30.98Z" fill="#F09219"/>
<path d="M43.9999 24C43.9999 25.7 43.7599 27.32 43.3799 28.9C43.2199 28.92 43.0999 28.9 42.9399 28.94C40.2799 29.82 37.5599 30.48 34.8199 30.98C35.3399 26.34 35.3399 21.66 34.8199 17.02C37.5599 17.52 40.2999 18.16 42.9399 19.06C43.0999 19.1 43.2199 19.12 43.3799 19.12C43.7599 20.7 43.9999 22.32 43.9999 24Z" fill="#F09219"/>
<path d="M30.98 34.8199C30.48 37.5799 29.84 40.2999 28.94 42.9399C28.9 43.0999 28.9 43.2199 28.88 43.3799C27.32 43.7599 25.68 43.9999 24 43.9999C22.3 43.9999 20.68 43.7599 19.1 43.3799C19.08 43.2199 19.1 43.0999 19.06 42.9399C18.18 40.2799 17.52 37.5799 17.02 34.8199C19.34 35.0799 21.66 35.2599 24 35.2599C26.34 35.2599 28.68 35.0799 30.98 34.8199Z" fill="#F09219"/>
<path d="M31.5267 31.5267C26.5245 32.1578 21.4755 32.1578 16.4733 31.5267C15.8422 26.5245 15.8422 21.4755 16.4733 16.4733C21.4755 15.8422 26.5245 15.8422 31.5267 16.4733C32.1578 21.4755 32.1578 26.5245 31.5267 31.5267Z" fill="#F09219"/>
</svg>
