<svg width="25" height="24" viewBox="0 0 25 24" fill="none" xmlns="http://www.w3.org/2000/svg">
<path d="M18.2721 2.48746C17.6189 2.4875 16.9859 2.70758 16.481 3.11023C15.976 3.51287 15.6304 4.07317 15.5029 4.69567C15.3754 5.31817 15.4739 5.96437 15.7817 6.52418C16.0896 7.084 16.5876 7.5228 17.191 7.76584C17.7945 8.00889 18.466 8.04113 19.0911 7.85709C19.7163 7.67305 20.2564 7.2841 20.6195 6.75651C20.9827 6.22891 21.1463 5.59531 21.0826 4.96363C21.0189 4.33195 20.7318 3.74126 20.2702 3.2922C20.0085 3.03632 19.6971 2.83344 19.3541 2.6953C19.0112 2.55716 18.6434 2.48652 18.2721 2.48746ZM19.4051 6.33206C19.1429 6.58675 18.798 6.74523 18.4291 6.78051C18.0602 6.81579 17.69 6.72568 17.3818 6.52554C17.0736 6.32539 16.8463 6.02759 16.7388 5.68289C16.6312 5.33818 16.6499 4.96789 16.7918 4.63511C16.9337 4.30233 17.19 4.02766 17.5169 3.85788C17.8439 3.68811 18.2213 3.63375 18.5849 3.70406C18.9485 3.77436 19.2757 3.96499 19.5109 4.24346C19.746 4.52193 19.8745 4.87101 19.8745 5.23121C19.8747 5.43605 19.8333 5.63891 19.7528 5.82821C19.6722 6.0175 19.5541 6.18953 19.4051 6.33445V6.33206Z" fill="#FBFBFB"/>
<path d="M23.4816 0.0285287C20.1479 -0.162144 16.8304 0.606153 13.9437 2.23738C12.7937 2.8803 11.7367 3.66886 10.8004 4.58235L9.93782 4.53459C9.4396 4.51014 8.94163 4.58739 8.47602 4.76137C8.0104 4.93535 7.58747 5.20219 7.23447 5.54469L5.44289 7.28551C5.34999 7.37545 5.28138 7.48629 5.24317 7.60818C5.20496 7.73008 5.19832 7.85926 5.22385 7.98425C5.24939 8.10924 5.3063 8.22617 5.38952 8.32464C5.47275 8.42312 5.57973 8.5001 5.70094 8.54874L8.02582 9.4872C7.78339 10.1318 7.5831 10.7906 7.42616 11.4596L7.31803 11.9372C7.29617 12.0345 7.29979 12.1355 7.32856 12.2311C7.35733 12.3266 7.41033 12.4136 7.48269 12.4841L11.2207 16.1329C11.2932 16.2032 11.3827 16.2547 11.4811 16.2826C11.5794 16.3106 11.6834 16.3141 11.7835 16.2929L12.275 16.1878C12.9658 16.0395 13.6463 15.8489 14.3123 15.6171L15.2732 17.8665C15.3246 17.9834 15.4048 18.0862 15.5067 18.1658C15.6086 18.2454 15.7292 18.2994 15.8577 18.323C15.9862 18.3466 16.1187 18.3391 16.2435 18.3012C16.3683 18.2632 16.4816 18.1959 16.5733 18.1053L18.3649 16.3645C18.7174 16.0215 18.992 15.6106 19.171 15.1581C19.3501 14.7057 19.4296 14.2219 19.4044 13.7378L19.3602 12.8996C20.3047 11.9945 21.1212 10.9714 21.7883 9.85733C23.4661 7.05209 24.2559 3.82862 24.0591 0.589697C24.0509 0.443471 23.9874 0.305345 23.8808 0.201792C23.7742 0.0982389 23.6321 0.0365432 23.4816 0.0285287ZM20.7561 9.21497C20.1111 10.3247 19.2993 11.3348 18.3477 12.2119L18.3231 12.2333C18.2178 12.3304 18.1515 12.4608 18.1363 12.6011C18.1332 12.636 18.1332 12.6712 18.1363 12.7062L18.1953 13.8118C18.2119 14.13 18.1596 14.448 18.0419 14.7454C17.9243 15.0427 17.7438 15.3128 17.5121 15.5383L16.1703 16.8421L15.229 14.6356C15.1679 14.4915 15.0509 14.3766 14.9032 14.3158C14.7555 14.255 14.5891 14.2533 14.4401 14.3109C13.6564 14.6113 12.8495 14.8509 12.0268 15.0272L11.8596 15.0631L8.58614 11.8823L8.62301 11.7199C8.80463 10.9214 9.05116 10.138 9.36028 9.37736C9.41891 9.2325 9.41675 9.07109 9.35426 8.92777C9.29177 8.78445 9.17393 8.67066 9.02605 8.61082L6.75524 7.69624L8.09709 6.39242C8.32938 6.167 8.60777 5.99144 8.91426 5.87709C9.22074 5.76274 9.54851 5.71215 9.87638 5.72857L11.0241 5.78588C11.1169 5.78976 11.2093 5.77307 11.2945 5.73707C11.3796 5.70108 11.4553 5.64672 11.5156 5.57813C12.4051 4.66345 13.4306 3.88348 14.5581 3.2642C17.0745 1.83983 19.9484 1.12227 22.8598 1.19146C22.9317 4.0031 22.2038 6.77951 20.7561 9.21497Z" fill="#FBFBFB"/>
<path d="M8.43402 16.5783C8.3275 16.4651 8.18011 16.3963 8.02263 16.3862C7.86516 16.3762 7.70977 16.4256 7.58892 16.5243C7.46807 16.6229 7.39111 16.7631 7.37411 16.9155C7.3571 17.068 7.40138 17.2209 7.49768 17.3424C7.9081 17.82 8.75596 19.0402 7.78767 20.2079C7.3262 20.7358 6.6712 21.0681 5.96169 21.1345C4.47485 21.2921 2.55793 21.6694 1.43236 22.5672C1.02686 20.7357 1.61914 19.2241 3.23623 17.968C3.31934 17.9029 3.38345 17.8177 3.42218 17.721C3.46092 17.6243 3.47293 17.5194 3.45703 17.4168C3.44113 17.3142 3.39786 17.2174 3.33153 17.136C3.2652 17.0547 3.17812 16.9917 3.07894 16.9532C2.57768 16.7768 2.04621 16.6958 1.51346 16.7144C1.89193 16.0147 2.53827 15.1646 3.42792 14.9258C4.09392 14.7539 4.85578 14.9688 5.69135 15.561C5.82218 15.637 5.97748 15.6628 6.12687 15.6334C6.27625 15.604 6.40897 15.5215 6.49904 15.402C6.58911 15.2825 6.63005 15.1347 6.61384 14.9874C6.59764 14.8402 6.52546 14.7041 6.41143 14.6058C5.26373 13.7891 4.15536 13.5121 3.12072 13.7796C1.53312 14.1855 0.591865 15.764 0.171618 16.669C0.101019 16.8209 0.0747141 16.9887 0.0955735 17.1541C0.116433 17.3195 0.183655 17.4762 0.289905 17.6071C0.396154 17.7379 0.537348 17.8379 0.698077 17.896C0.858806 17.9542 1.0329 17.9684 1.20135 17.937C1.3093 17.9172 1.4185 17.9044 1.52821 17.8988C0.437037 19.1047 -0.364136 20.8837 0.378055 23.3409C0.433226 23.5308 0.550716 23.6979 0.712642 23.8169C0.874569 23.9358 1.07206 24.0001 1.27507 24H1.30456C1.43375 23.9963 1.56073 23.9666 1.67749 23.9127C1.79425 23.8589 1.89823 23.7821 1.98286 23.6872C2.57759 23.0305 4.07672 22.5314 6.09686 22.3165C7.12848 22.2192 8.07884 21.73 8.74122 20.9554C9.06659 20.5846 9.29234 20.1412 9.39827 19.6649C9.5042 19.1886 9.48701 18.6942 9.34824 18.2259C9.16624 17.6203 8.85471 17.0588 8.43402 16.5783Z" fill="#FBFBFB"/>
</svg>
