<svg width="73" height="39" viewBox="0 0 73 39" fill="none" xmlns="http://www.w3.org/2000/svg">
<path d="M42.4972 10.2291C42.3004 10.7406 41.825 10.934 41.6119 10.9668H37.0873C35.4427 11.2459 36.2295 13.0164 37.0873 12.6881H46.6775C51.0447 12.6881 53.0545 16.7537 53.5136 18.7865V28.2783C52.8447 32.134 49.3988 33.8849 47.7594 34.2783H28.4316C23.6316 33.6881 22.4316 29.1472 22.4316 26.9504C22.4152 20.4914 22.3922 7.29797 22.4316 6.19633C22.4709 5.09469 23.2677 4.81928 23.6611 4.81928C24.53 4.73732 26.4742 4.62256 27.3004 4.81928C28.1267 5.016 28.3988 5.81928 28.4316 6.19633C28.3168 12.7865 28.1562 26.1635 28.4316 26.9504C28.707 27.7373 29.366 27.9668 29.6611 27.9832C35.0545 28.0652 46.0086 28.1799 46.6775 27.9832C47.3463 27.7865 47.6775 27.2127 47.7594 26.9504C47.7758 25.0652 47.7988 21.0783 47.7594 20.2127C47.7201 19.3472 47.0217 18.9013 46.6775 18.7865C41.8742 18.7701 32.0906 18.7472 31.3824 18.7865C30.6742 18.8258 30.5299 18.2783 30.5463 17.9996V10.9668C31.2939 6.59961 35.2185 4.88486 37.0873 4.57338C38.366 4.5242 41.0611 4.45535 41.6119 4.57338C42.1627 4.69141 42.4316 5.14715 42.4972 5.36027C42.5791 6.7701 42.6939 9.71764 42.4972 10.2291Z" fill="#F09219"/>
<path d="M72.087 6.75784H70.1197L69.8247 33.3644C69.7066 34.0726 69.4148 34.2169 69.2837 34.2005C67.9722 34.266 65.2017 34.3578 64.6115 34.2005C64.0214 34.0431 63.7427 33.5775 63.6771 33.3644V6.75784L61.6106 6.62868C61.6469 6.6668 61.4669 6.64039 61.3165 6.6103L61.6106 6.62868C61.5876 6.6045 61.4777 6.55437 61.2181 6.46276C60.5492 6.22669 60.7755 5.47915 60.9722 5.13489C62.3329 3.79062 65.2017 0.974231 65.7919 0.462756C66.382 -0.0487197 67.4148 0.249641 67.8574 0.462756C69.2673 1.79062 72.1656 4.61358 72.4804 5.28243C72.7952 5.95128 72.3492 6.54472 72.087 6.75784Z" fill="#F09219"/>
<path d="M60.2251 10.7701C60.8153 10.8881 61.2579 11.6062 61.4055 11.9504C61.7333 18.8521 62.1923 33.157 61.4055 35.1635C60.6186 37.1701 58.4546 38.3931 57.471 38.7537C56.3399 38.8357 53.9104 38.9504 53.2415 38.7537C52.5727 38.557 52.6677 37.8521 52.7989 37.5242C54.53 36.5799 55.1595 35.0324 55.2579 34.3767C55.2087 27.1472 55.1399 12.5406 55.2579 11.9504C55.3759 11.3603 56.1595 10.9176 56.5366 10.7701C57.5202 10.7209 59.635 10.6521 60.2251 10.7701Z" fill="#F09219"/>
<path d="M19.8059 31.4099V12.2787C19.8059 11.2951 19.1174 10.8853 18.7731 10.8033H14.9862C14.1206 11.0394 14.0026 11.8853 14.0518 12.2787V30.082C13.8157 30.6721 13.1665 31.0164 12.8715 31.1148C11.4288 31.0984 8.38622 31.0754 7.75671 31.1148C7.1272 31.1541 6.5436 30.4426 6.33048 30.082C6.2977 28.2951 6.25179 24.6426 6.33048 24.3279C6.40917 24.0131 6.75671 23.5738 6.92065 23.3935L11.1993 19.1148C11.5534 18.8 11.7403 18.2623 11.7895 18.0328C11.9862 17.2459 11.7895 16.2131 11.4452 16.0164L10.1665 14.8853C8.93703 14.1476 8.69114 14.2787 8.29769 14.4426L7.80589 14.7377C6.97966 15.1312 0.723914 21.9672 0.871453 22.8525L0.871466 31.4099C2.15015 35.7377 5.33048 36.7869 6.77311 36.918C7.64196 37.0164 10.3338 37.1541 14.1502 36.918C17.9665 36.682 19.5108 33.1476 19.8059 31.4099Z" fill="#F09219"/>
</svg>
