<svg width="48" height="48" viewBox="0 0 48 48" fill="none" xmlns="http://www.w3.org/2000/svg">
<path d="M14 6.5H34C39.2439 6.5 43.5 10.7561 43.5 16V32C43.5 37.2439 39.2439 41.5 34 41.5H14C8.75614 41.5 4.5 37.2439 4.5 32V16C4.5 10.7561 8.75614 6.5 14 6.5ZM15.9609 25.084C14.874 24.9514 13.858 25.7182 13.7236 26.8193C13.5911 27.9063 14.3588 28.9224 15.46 29.0566V29.0557C17.2723 29.2879 18.5726 30.5904 18.8037 32.4033L18.8047 32.4072C18.9381 33.3934 19.7884 34.1396 20.7803 34.1396C20.8611 34.1396 20.9286 34.1294 20.9639 34.124C20.9775 34.1219 20.9845 34.1208 20.9893 34.1201H21.0107L21.04 34.1162C22.1365 33.9825 22.9102 32.9709 22.7764 31.8984L22.7754 31.8955L22.7256 31.5605C22.1352 28.122 19.4572 25.5387 15.9648 25.084H15.9609ZM16.9805 18.9834C15.8935 18.8509 14.8784 19.6186 14.7441 20.7197C14.6119 21.8054 15.3766 22.8188 16.4756 22.9551V22.9561C21.0297 23.5468 24.3135 26.8489 24.9043 31.3848V31.3867C25.0376 32.373 25.888 33.1201 26.8799 33.1201C26.9608 33.1201 27.0282 33.1099 27.0635 33.1045C27.0844 33.1013 27.0902 33.1003 27.0957 33.0996H27.1162L27.1523 33.0947C28.2286 32.9372 29.0113 31.9607 28.876 30.8779V30.876L28.7871 30.2803C27.7527 24.1826 23.1693 19.7876 16.9844 18.9844L16.9805 18.9834ZM18.7002 13.5635C17.6133 13.4311 16.5981 14.1988 16.4639 15.2998C16.3316 16.3859 17.0975 17.3997 18.1973 17.5352V17.5361C24.731 18.3675 29.4725 23.1098 30.3037 29.6436L30.3047 29.6465C30.438 30.6328 31.2883 31.3799 32.2803 31.3799C32.3611 31.3799 32.4286 31.3697 32.4639 31.3643C32.4775 31.3622 32.4845 31.361 32.4893 31.3604H32.5107L32.54 31.3564C33.6337 31.2231 34.4097 30.2341 34.2764 29.1396L34.2754 29.1357L34.2207 28.7441C32.9945 20.5611 26.9387 14.6167 18.7031 13.5645L18.7002 13.5635Z" fill="#F09219" stroke="#F09219"/>
</svg>
