<svg width="48" height="48" viewBox="0 0 48 48" fill="none" xmlns="http://www.w3.org/2000/svg">
<path d="M4 3H44C44.5439 3 45 3.45614 45 4C45 4.54386 44.5439 5 44 5H4C3.45614 5 3 4.54386 3 4C3 3.45614 3.45614 3 4 3Z" fill="#F09219" stroke="#F09219"/>
<path d="M33.34 44.68C33.08 45.2 32.54 45.5 32 45.5C31.78 45.5 31.54 45.44 31.34 45.34L24 41.68L16.66 45.34C16.46 45.44 16.22 45.5 16 45.5C15.46 45.5 14.92 45.2 14.66 44.68C14.28 43.92 14.58 43.02 15.34 42.66L22.5 39.08V34H25.5V39.08L32.66 42.66C33.42 43.02 33.72 43.92 33.34 44.68Z" fill="#F09219"/>
<path d="M6 4V28.2C6 32 8 34 11.8 34H36.2C40 34 42 32 42 28.2V4H6ZM33.96 17.16L27.66 22.42C27.08 22.9 26.34 23.1 25.64 22.98C24.92 22.86 24.3 22.42 23.92 21.78L21.82 18.28L15.96 23.16C15.68 23.4 15.34 23.5 15 23.5C14.58 23.5 14.14 23.32 13.84 22.96C13.3 22.32 13.4 21.38 14.04 20.84L20.34 15.58C20.92 15.1 21.66 14.9 22.36 15.02C23.08 15.14 23.7 15.58 24.08 16.22L26.18 19.72L32.04 14.84C32.68 14.3 33.62 14.4 34.16 15.04C34.68 15.68 34.6 16.62 33.96 17.16Z" fill="#F09219"/>
</svg>
