<svg width="48" height="48" viewBox="0 0 48 48" fill="none" xmlns="http://www.w3.org/2000/svg">
<path d="M16.1953 6.00989C17.5316 5.2149 19.262 5.6874 20.0254 7.02747L20.0273 7.0304L20.2471 7.41028C21.2103 9.07215 22.5447 10.0148 23.9775 10.0148C25.4106 10.0148 26.7391 9.07216 27.6924 7.41028L27.9102 7.03528C28.7148 5.68328 30.4512 5.21691 31.7842 6.00989L31.792 6.01379L35.252 7.99426C36.7801 8.86754 37.3356 10.7841 36.5469 12.3419L36.4658 12.4913C35.5129 14.1538 35.3674 15.7777 36.085 17.0177C36.8027 18.258 38.2833 18.9396 40.2002 18.9396C42.0198 18.9397 43.5007 20.4322 43.5205 22.2404H43.5195V25.7599C43.5195 27.582 42.0253 29.0597 40.2197 29.0597C38.3034 29.0598 36.8217 29.7415 36.1064 30.9825C35.3913 32.2236 35.5439 33.8481 36.5068 35.5099C37.3808 37.0225 36.9023 38.9775 35.4365 39.9181L35.292 40.006L31.832 41.9865L31.8242 41.9904C30.493 42.7823 28.7591 42.3179 27.9531 40.9698L27.7324 40.59V40.589C26.7693 38.9275 25.4355 37.9857 24.0029 37.9855C22.5698 37.9855 21.2404 38.9278 20.2871 40.59L20.0703 40.964C19.2657 42.3164 17.5284 42.7835 16.1953 41.9904L16.1885 41.9865L12.7285 40.006C11.1517 39.1049 10.6092 37.0924 11.5117 35.5099L11.5127 35.5109C12.4761 33.8488 12.6284 32.2238 11.9131 30.9825C11.1978 29.7415 9.71619 29.0597 7.7998 29.0597C5.97775 29.0596 4.5 27.5654 4.5 25.7599V22.2404C4.5 20.4183 5.99432 18.9397 7.7998 18.9396C9.71626 18.9396 11.1977 18.258 11.9131 17.0197C12.6286 15.7807 12.4758 14.1606 11.5117 12.5079C10.6098 10.9246 11.1533 8.89439 12.7285 7.99426L16.1885 6.01379L16.1953 6.00989ZM24 17.0001C20.1439 17.0001 17 20.144 17 24.0001C17.0001 27.8562 20.1439 31.0001 24 31.0001C27.8561 31.0001 30.9999 27.8562 31 24.0001C31 20.144 27.8561 17.0001 24 17.0001Z" fill="#F09219" stroke="#F09219"/>
</svg>
