<svg width="48" height="48" viewBox="0 0 48 48" fill="none" xmlns="http://www.w3.org/2000/svg">
<path d="M27.999 8.62244C28.6813 8.62432 29.4909 9.11759 30.1943 10.3812L30.333 10.6449L33.1523 16.2826C33.3879 16.7641 33.8005 17.2007 34.2529 17.5345C34.7076 17.87 35.2467 18.1347 35.7686 18.2318L35.7783 18.2338L40.8779 19.0736C42.4216 19.3293 43.2012 19.9847 43.4238 20.6801C43.6466 21.3761 43.3942 22.3686 42.2861 23.4867L38.3066 27.4662C37.9016 27.8713 37.6062 28.4442 37.4395 29.0277C37.2728 29.6109 37.2191 30.2587 37.3525 30.8314V30.8324L38.4932 35.7523V35.7533C38.9327 37.6488 38.5819 38.7146 38.0049 39.1361C37.4281 39.5575 36.3067 39.5674 34.6357 38.5707V38.5697L29.8555 35.7299H29.8545C29.3276 35.4126 28.6583 35.2699 28.0195 35.2699C27.4595 35.2699 26.8761 35.3796 26.3857 35.6205L26.1846 35.7299L21.4043 38.5697C19.7336 39.5562 18.6119 39.5484 18.0342 39.1283C17.4582 38.7092 17.1072 37.6491 17.5469 35.7533V35.7523L18.6865 30.8324L18.6895 30.8226L18.6914 30.8119C18.7991 30.2373 18.7362 29.5907 18.5645 29.0062C18.3931 28.4233 18.0983 27.8517 17.6934 27.4467L13.7139 23.4662C12.606 22.3583 12.3534 21.3711 12.5762 20.6752C12.7993 19.9784 13.58 19.3174 15.124 19.0521L20.2207 18.2133C20.7507 18.1269 21.2937 17.8589 21.748 17.5209C22.2025 17.1828 22.6142 16.7394 22.8486 16.2582L25.665 10.6254L25.666 10.6263C26.3999 9.1776 27.2716 8.62063 27.999 8.62244Z" fill="#F09219" stroke="#F09219"/>
<path d="M16 11.5H4C3.18 11.5 2.5 10.82 2.5 10C2.5 9.18 3.18 8.5 4 8.5H16C16.82 8.5 17.5 9.18 17.5 10C17.5 10.82 16.82 11.5 16 11.5Z" fill="#F09219"/>
<path d="M10 39.5H4C3.18 39.5 2.5 38.82 2.5 38C2.5 37.18 3.18 36.5 4 36.5H10C10.82 36.5 11.5 37.18 11.5 38C11.5 38.82 10.82 39.5 10 39.5Z" fill="#F09219"/>
<path d="M6 25.5H4C3.18 25.5 2.5 24.82 2.5 24C2.5 23.18 3.18 22.5 4 22.5H6C6.82 22.5 7.5 23.18 7.5 24C7.5 24.82 6.82 25.5 6 25.5Z" fill="#F09219"/>
</svg>
