<svg width="48" height="48" viewBox="0 0 48 48" fill="none" xmlns="http://www.w3.org/2000/svg">
<path d="M15.6201 4.5H32.3799C35.9205 4.5 38.686 5.55373 40.5635 7.43359C42.4408 9.31327 43.4901 12.0781 43.4805 15.6182V32.3799C43.4805 35.9203 42.4269 38.6863 40.5469 40.5664C38.6668 42.4465 35.9007 43.4999 32.3604 43.5H15.6201C12.0796 43.5 9.31365 42.4468 7.43359 40.5645C5.55352 38.682 4.50007 35.9111 4.5 32.3604V15.6201C4.5 12.0796 5.55347 9.31372 7.43359 7.43359C9.31372 5.55347 12.0796 4.5 15.6201 4.5ZM13.7598 30.1602C12.6637 30.1603 11.7598 31.0641 11.7598 32.1602V36.2998C11.7598 37.3959 12.6637 38.2997 13.7598 38.2998C14.8559 38.2998 15.7598 37.3959 15.7598 36.2998V32.1602C15.7598 31.064 14.8559 30.1602 13.7598 30.1602ZM24 26C22.9039 26 22 26.9039 22 28V36.2998C22 37.3959 22.9039 38.2998 24 38.2998C25.0961 38.2998 26 37.3959 26 36.2998V28C26 26.9039 25.0961 26 24 26ZM34.2402 21.8604C33.1441 21.8604 32.2402 22.7642 32.2402 23.8604V36.2998C32.2402 37.3959 33.1441 38.2998 34.2402 38.2998C35.3363 38.2997 36.2402 37.3959 36.2402 36.2998V23.8604C36.2402 22.7643 35.3363 21.8605 34.2402 21.8604ZM28.4004 9.67969C27.3044 9.67969 26.4006 10.5837 26.4004 11.6797C26.4004 12.7758 27.3042 13.6797 28.4004 13.6797H29.707C25.1525 18.1662 19.5405 21.3535 13.2812 22.9141C12.1885 23.1807 11.5485 24.2757 11.8145 25.3408L11.8164 25.3477C12.0535 26.2433 12.8493 26.8602 13.7598 26.8604C13.8621 26.8604 14.045 26.8603 14.2402 26.8027L14.2412 26.8047C21.0776 25.1003 27.2256 21.657 32.2402 16.8027V17.54C32.2403 18.6362 33.1441 19.54 34.2402 19.54C35.1637 19.5399 35.9479 18.8976 36.1729 18.04H36.2598V11.6797C36.2597 11.6356 36.2549 11.5968 36.248 11.5654C36.2438 11.5462 36.2372 11.5295 36.2324 11.5146C36.2255 11.4448 36.2154 11.3843 36.2041 11.3369C36.181 11.2398 36.179 11.2473 36.1699 11.2021C36.1674 11.1893 36.1652 11.175 36.1621 11.1543C36.1595 11.1369 36.1546 11.1046 36.1494 11.0752C36.141 11.0275 36.1249 10.9648 36.0977 10.8936C36.0648 10.7795 36.0106 10.6941 35.9717 10.6396C35.9511 10.6108 35.9302 10.5843 35.916 10.5664C35.8997 10.5459 35.8898 10.5328 35.8799 10.5195C35.8215 10.4417 35.742 10.3348 35.6338 10.2266L35.4873 10.0801H35.4395C35.4112 10.0645 35.3888 10.0504 35.374 10.043L35.3369 10.0244L35.3271 10.0176L35.3174 10.0117L35.1807 9.92578C35.117 9.88774 35.0405 9.84529 34.9658 9.81543C34.863 9.77429 34.7686 9.75772 34.7041 9.74805C34.62 9.73543 34.6143 9.73672 34.5781 9.72949L34.5293 9.71973H34.5107C34.5098 9.71946 34.5088 9.71904 34.5078 9.71875C34.4798 9.71075 34.3798 9.67969 34.2598 9.67969H28.4004Z" fill="#F09219" stroke="#F09219"/>
</svg>
