<svg width="120" height="120" viewBox="0 0 120 120" fill="none" xmlns="http://www.w3.org/2000/svg">
<path d="M59.8157 96.0202H118.404V41.8896L59.8157 96.0202ZM107.63 86.1251H86.3015L107.667 66.421L107.63 86.1251Z" fill="#DBDBDB"/>
<path d="M116.609 43.5632L116.348 43.8038L59.8157 96.0202H118.404V41.8896L116.609 43.5632ZM107.63 86.1277H86.3015L107.67 66.421L107.63 86.1277Z" fill="#EBEBEB"/>
<path d="M118.412 44.1804H116.399V44.4393H118.412V44.1804Z" fill="#C7C7C7"/>
<path d="M118.412 45.3835H117.224V45.6424H118.412V45.3835Z" fill="#C7C7C7"/>
<path d="M118.412 46.5837H117.224V46.8426H118.412V46.5837Z" fill="#C7C7C7"/>
<path d="M118.412 47.7866H117.224V48.0455H118.412V47.7866Z" fill="#C7C7C7"/>
<path d="M118.412 48.9895H117.224V49.2484H118.412V48.9895Z" fill="#C7C7C7"/>
<path d="M118.412 50.1897H117.224V50.4512H118.412V50.1897Z" fill="#C7C7C7"/>
<path d="M118.412 51.3928H117.224V51.6517H118.412V51.3928Z" fill="#C7C7C7"/>
<path d="M118.412 52.5957H116.399V52.8546H118.412V52.5957Z" fill="#C7C7C7"/>
<path d="M118.412 53.801H117.224V54.0599H118.412V53.801Z" fill="#C7C7C7"/>
<path d="M118.412 54.9988H117.224V55.2577H118.412V54.9988Z" fill="#C7C7C7"/>
<path d="M118.412 56.2043H117.224V56.4632H118.412V56.2043Z" fill="#C7C7C7"/>
<path d="M118.412 57.4072H117.224V57.6661H118.412V57.4072Z" fill="#C7C7C7"/>
<path d="M118.412 58.6074H117.224V58.8663H118.412V58.6074Z" fill="#C7C7C7"/>
<path d="M118.412 59.8103H117.224V60.0692H118.412V59.8103Z" fill="#C7C7C7"/>
<path d="M118.412 61.0132H116.399V61.2721H118.412V61.0132Z" fill="#C7C7C7"/>
<path d="M118.412 62.2136H117.224V62.4725H118.412V62.2136Z" fill="#C7C7C7"/>
<path d="M118.412 63.4165H117.224V63.6754H118.412V63.4165Z" fill="#C7C7C7"/>
<path d="M118.412 64.6194H117.224V64.8783H118.412V64.6194Z" fill="#C7C7C7"/>
<path d="M118.412 65.8196H117.224V66.0811H118.412V65.8196Z" fill="#C7C7C7"/>
<path d="M118.412 67.0225H117.224V67.2814H118.412V67.0225Z" fill="#C7C7C7"/>
<path d="M118.412 68.228H117.224V68.4869H118.412V68.228Z" fill="#C7C7C7"/>
<path d="M118.412 69.4309H116.399V69.6898H118.412V69.4309Z" fill="#C7C7C7"/>
<path d="M118.412 70.6287H117.224V70.8875H118.412V70.6287Z" fill="#C7C7C7"/>
<path d="M118.412 71.834H117.224V72.0929H118.412V71.834Z" fill="#C7C7C7"/>
<path d="M118.412 73.0371H117.224V73.296H118.412V73.0371Z" fill="#C7C7C7"/>
<path d="M118.412 74.2373H117.224V74.4962H118.412V74.2373Z" fill="#C7C7C7"/>
<path d="M118.412 75.4402H117.224V75.6991H118.412V75.4402Z" fill="#C7C7C7"/>
<path d="M118.412 76.6431H117.224V76.9019H118.412V76.6431Z" fill="#C7C7C7"/>
<path d="M118.412 77.8433H116.399V78.1048H118.412V77.8433Z" fill="#C7C7C7"/>
<path d="M118.412 79.0464H117.224V79.3053H118.412V79.0464Z" fill="#C7C7C7"/>
<path d="M118.412 80.2493H117.224V80.5082H118.412V80.2493Z" fill="#C7C7C7"/>
<path d="M118.412 81.4548H117.224V81.7137H118.412V81.4548Z" fill="#C7C7C7"/>
<path d="M118.412 82.6523H117.224V82.9112H118.412V82.6523Z" fill="#C7C7C7"/>
<path d="M118.412 83.8579H117.224V84.1168H118.412V83.8579Z" fill="#C7C7C7"/>
<path d="M118.412 85.0608H117.224V85.3197H118.412V85.0608Z" fill="#C7C7C7"/>
<path d="M118.412 86.2612H116.399V86.5201H118.412V86.2612Z" fill="#C7C7C7"/>
<path d="M118.412 87.4641H117.224V87.723H118.412V87.4641Z" fill="#C7C7C7"/>
<path d="M118.412 88.6667H117.224V88.9256H118.412V88.6667Z" fill="#C7C7C7"/>
<path d="M118.412 89.8672H117.224V90.1261H118.412V89.8672Z" fill="#C7C7C7"/>
<path d="M118.412 91.0703H117.224V91.3292H118.412V91.0703Z" fill="#C7C7C7"/>
<path d="M118.412 92.2729H117.224V92.5318H118.412V92.2729Z" fill="#C7C7C7"/>
<path d="M118.412 93.4734H117.224V93.7349H118.412V93.4734Z" fill="#C7C7C7"/>
<path d="M112.112 53.7045L113.675 51.385L112.903 50.9456C112.793 50.8814 112.704 50.7902 112.647 50.6822C112.589 50.5742 112.565 50.4535 112.577 50.3337C112.586 50.1979 112.586 50.0616 112.577 49.9258C112.574 49.8058 112.606 49.6872 112.671 49.5833C112.736 49.4793 112.831 49.3942 112.946 49.3374L113.746 48.9425L112.356 46.5472L111.557 46.9421C111.442 46.9982 111.312 47.0238 111.183 47.016C111.053 47.0081 110.928 46.9671 110.823 46.8976C110.701 46.8197 110.575 46.7481 110.445 46.6832C110.331 46.6263 110.235 46.5412 110.17 46.4373C110.104 46.3335 110.071 46.2149 110.074 46.0948L110.102 45.258L107.145 45.1743L107.117 46.0137C107.112 46.1337 107.07 46.2499 106.998 46.3496C106.925 46.4493 106.824 46.5285 106.706 46.5786C106.638 46.6047 106.575 46.6361 106.51 46.6675C106.445 46.6989 106.383 46.7329 106.32 46.7669C106.21 46.8295 106.083 46.8627 105.953 46.8627C105.824 46.8627 105.696 46.8295 105.586 46.7669L104.809 46.3249L103.25 48.6444L104.021 49.0864C104.131 49.1506 104.22 49.2418 104.278 49.3498C104.335 49.4578 104.359 49.5784 104.347 49.6983C104.334 49.833 104.329 49.9684 104.333 50.1036C104.337 50.2236 104.304 50.3422 104.239 50.4461C104.174 50.55 104.079 50.6352 103.964 50.692L103.165 51.0868L104.565 53.4953L105.362 53.0847C105.477 53.0285 105.606 53.0029 105.736 53.0108C105.866 53.0186 105.99 53.0596 106.096 53.1292C106.217 53.2059 106.342 53.2765 106.471 53.341C106.586 53.3974 106.682 53.4824 106.747 53.5864C106.813 53.6903 106.846 53.8091 106.842 53.9293L106.816 54.7688L109.773 54.8524L109.802 54.0156C109.808 53.8958 109.849 53.7796 109.921 53.68C109.994 53.5804 110.095 53.5011 110.213 53.4508L110.411 53.3619C110.474 53.3279 110.539 53.2965 110.601 53.2599C110.712 53.197 110.84 53.1637 110.97 53.1637C111.1 53.1637 111.228 53.197 111.338 53.2599L112.112 53.7045ZM109.615 51.9812C109.192 52.1898 108.712 52.2782 108.235 52.2351C107.758 52.1921 107.305 52.0195 106.935 51.7393C106.564 51.4591 106.291 51.0838 106.152 50.6608C106.012 50.2379 106.012 49.7862 106.151 49.363C106.289 48.9398 106.561 48.564 106.931 48.2832C107.301 48.0023 107.753 47.829 108.23 47.7851C108.707 47.7412 109.188 47.8288 109.611 48.0366C110.034 48.2445 110.38 48.5634 110.607 48.953C110.758 49.2118 110.852 49.4956 110.884 49.788C110.916 50.0804 110.885 50.3758 110.792 50.6571C110.7 50.9384 110.549 51.2002 110.347 51.4274C110.145 51.6546 109.896 51.8428 109.615 51.9812Z" fill="#DBDBDB"/>
<path d="M34.1463 31.9578L33.1086 30.2999L32.5586 30.5954C32.4795 30.6373 32.3893 30.658 32.2982 30.6553C32.207 30.6525 32.1185 30.6263 32.0426 30.5797C31.9564 30.5271 31.8664 30.4799 31.7733 30.4385C31.6898 30.402 31.619 30.3447 31.5689 30.2731C31.5188 30.2015 31.4914 30.1184 31.4898 30.0332V29.4448H29.4144V30.0306C29.4135 30.1159 29.3863 30.1993 29.3361 30.271C29.286 30.3427 29.2148 30.3999 29.1309 30.4359C29.0381 30.4779 28.9482 30.525 28.8616 30.5771C28.7857 30.6237 28.6972 30.6499 28.606 30.6527C28.5149 30.6554 28.4247 30.6347 28.3456 30.5928L27.7956 30.2999L26.7579 31.9578L27.3108 32.2507C27.3896 32.2937 27.4539 32.3561 27.4965 32.431C27.5391 32.5058 27.5582 32.5901 27.5518 32.6744C27.5518 32.7214 27.5518 32.7659 27.5518 32.8156C27.5518 32.8652 27.5518 32.9097 27.5518 32.9542C27.5586 33.0378 27.5399 33.1216 27.4978 33.196C27.4557 33.2704 27.3919 33.3325 27.3136 33.3752L26.7466 33.6707L27.7842 35.3286L28.3371 35.0331C28.4166 34.9922 28.5069 34.9722 28.5979 34.9754C28.6889 34.9787 28.7772 35.0049 28.8531 35.0514C28.9387 35.1035 29.0277 35.1506 29.1196 35.1926C29.2035 35.2286 29.2746 35.2858 29.3248 35.3575C29.375 35.4292 29.4021 35.5126 29.4031 35.5979V36.1837H31.4784V35.5979C31.4801 35.5127 31.5075 35.4296 31.5576 35.358C31.6077 35.2864 31.6784 35.2291 31.7619 35.1926C31.8542 35.1512 31.9432 35.104 32.0284 35.0514C32.1049 35.005 32.1936 34.9788 32.2851 34.9755C32.3765 34.9723 32.4672 34.9922 32.5473 35.0331L33.0973 35.3286L34.1349 33.6707L33.5821 33.3778C33.5039 33.3334 33.4407 33.2697 33.3996 33.1939C33.3586 33.1181 33.3412 33.0333 33.3496 32.9489C33.3496 32.9019 33.3496 32.8548 33.3496 32.8077C33.3496 32.7606 33.3496 32.7136 33.3496 32.6665C33.3432 32.5822 33.3623 32.4979 33.4049 32.4231C33.4474 32.3483 33.5117 32.2859 33.5906 32.2429L34.1463 31.9578ZM32.1617 32.8156C32.1617 33.1259 32.0619 33.4292 31.875 33.6873C31.6881 33.9453 31.4224 34.1464 31.1116 34.2651C30.8008 34.3839 30.4587 34.415 30.1287 34.3544C29.7988 34.2939 29.4957 34.1444 29.2578 33.925C29.0199 33.7056 28.8579 33.426 28.7922 33.1217C28.7266 32.8173 28.7603 32.5018 28.889 32.2151C29.0178 31.9284 29.2358 31.6834 29.5155 31.511C29.7953 31.3386 30.1242 31.2466 30.4606 31.2466C30.9118 31.2466 31.3444 31.4119 31.6635 31.7061C31.9825 32.0004 32.1617 32.3994 32.1617 32.8156Z" fill="#DBDBDB"/>
<path d="M17.7793 65.7908C16.1809 65.7903 14.6183 66.227 13.2891 67.0457C11.9599 67.8644 10.9238 69.0284 10.3119 70.3903C9.69998 71.7522 9.53973 73.2509 9.85141 74.6969C10.1631 76.1428 10.9327 77.471 12.0629 78.5134C13.1931 79.5559 14.6331 80.2657 16.2008 80.5532C17.7684 80.8407 19.3933 80.6929 20.8699 80.1285C22.3464 79.5641 23.6084 78.6084 24.496 77.3824C25.3836 76.1564 25.8571 74.7152 25.8566 73.2409C25.8566 71.265 25.0056 69.37 23.4908 67.9729C21.976 66.5757 19.9215 65.7908 17.7793 65.7908ZM17.7793 76.7215C17.0329 76.7215 16.3033 76.5174 15.6828 76.1349C15.0622 75.7525 14.5786 75.2089 14.2929 74.5729C14.0073 73.9369 13.9326 73.2371 14.0782 72.5619C14.2238 71.8867 14.5832 71.2665 15.111 70.7798C15.6387 70.293 16.3111 69.9615 17.0431 69.8272C17.7751 69.6929 18.5338 69.7619 19.2233 70.0253C19.9129 70.2887 20.5022 70.7348 20.9169 71.3072C21.3315 71.8796 21.5528 72.5525 21.5528 73.2409C21.5532 73.6981 21.4559 74.1508 21.2663 74.5733C21.0768 74.9957 20.7989 75.3796 20.4484 75.7028C20.0979 76.0261 19.6818 76.2825 19.2238 76.4572C18.7658 76.632 18.2749 76.7218 17.7793 76.7215Z" fill="#EBEBEB"/>
<path d="M19.3327 66.0994H16.2253L16.3983 64.0728H19.1597L19.3327 66.0994Z" fill="#EBEBEB"/>
<path d="M13.4185 67.0668L11.2213 69.0909L9.78955 67.5454L11.743 65.7437L13.4185 67.0668Z" fill="#EBEBEB"/>
<path d="M9.97961 71.604V74.47L7.77954 74.3105V71.7635L9.97961 71.604Z" fill="#EBEBEB"/>
<path d="M11.0256 77.0591L13.2229 79.0857L11.5445 80.4063L9.59106 78.6046L11.0256 77.0591Z" fill="#EBEBEB"/>
<path d="M15.9448 80.231H19.0521L18.882 82.2602H16.1178L15.9448 80.231Z" fill="#EBEBEB"/>
<path d="M21.8589 79.266L24.0561 77.2419L25.4879 78.7874L23.5345 80.5891L21.8589 79.266Z" fill="#EBEBEB"/>
<path d="M25.3005 74.7262V71.8628L27.4978 72.0197V74.5693L25.3005 74.7262Z" fill="#EBEBEB"/>
<path d="M24.2546 69.274L22.0574 67.2473L23.7329 65.9268L25.6863 67.7285L24.2546 69.274Z" fill="#EBEBEB"/>
<path d="M94.6764 17.5964C93.0789 17.5964 91.5172 18.0334 90.1889 18.852C88.8606 19.6706 87.8253 20.8342 87.214 22.1955C86.6026 23.5569 86.4427 25.0548 86.7543 26.5C87.066 27.9452 87.8353 29.2727 88.9649 30.3146C90.0945 31.3566 91.5338 32.0661 93.1006 32.3536C94.6675 32.641 96.2915 32.4935 97.7675 31.9296C99.2434 31.3657 100.505 30.4108 101.392 29.1857C102.28 27.9605 102.754 26.5201 102.754 25.0466C102.754 24.0681 102.545 23.0992 102.14 22.1951C101.734 21.2911 101.139 20.4696 100.389 19.7778C99.6387 19.0859 98.7481 18.5371 97.7679 18.1628C96.7878 17.7886 95.7373 17.5961 94.6764 17.5964ZM94.6764 28.5245C93.93 28.5245 93.2003 28.3203 92.5797 27.9378C91.959 27.5552 91.4754 27.0115 91.1898 26.3753C90.9043 25.7392 90.8297 25.0392 90.9756 24.364C91.1214 23.6887 91.4811 23.0686 92.0091 22.5819C92.5371 22.0952 93.2098 21.764 93.942 21.63C94.6742 21.496 95.433 21.5653 96.1225 21.8291C96.812 22.0929 97.4011 22.5394 97.8154 23.1122C98.2297 23.6849 98.4506 24.3581 98.45 25.0466C98.45 25.5035 98.3524 25.956 98.1627 26.3781C97.973 26.8003 97.695 27.1838 97.3446 27.5068C96.9941 27.8298 96.5781 28.0859 96.1203 28.2605C95.6625 28.4352 95.1718 28.5249 94.6764 28.5245Z" fill="#EBEBEB"/>
<path d="M96.2301 17.905H93.1228L93.2958 15.8757H96.0572L96.2301 17.905Z" fill="#EBEBEB"/>
<path d="M90.316 18.8698L88.1216 20.8965L86.687 19.3484L88.6404 17.5466L90.316 18.8698Z" fill="#EBEBEB"/>
<path d="M86.8771 23.4094V26.2729L84.677 26.116V23.5663L86.8771 23.4094Z" fill="#EBEBEB"/>
<path d="M87.9233 28.8618L90.1206 30.8884L88.4422 32.209L86.4888 30.4073L87.9233 28.8618Z" fill="#EBEBEB"/>
<path d="M92.845 32.0364H95.9494L95.7793 34.063H93.0151L92.845 32.0364Z" fill="#EBEBEB"/>
<path d="M98.7561 31.0687L100.953 29.0447L102.385 30.5901L100.432 32.3919L98.7561 31.0687Z" fill="#EBEBEB"/>
<path d="M102.198 26.5318V23.6658L104.395 23.8253V26.3723L102.198 26.5318Z" fill="#EBEBEB"/>
<path d="M101.149 21.0769L98.9546 19.0529L100.63 17.7297L102.584 19.5315L101.149 21.0769Z" fill="#EBEBEB"/>
<path d="M6.40998 0H6.12646V24.024H6.40998V0Z" fill="#C7C7C7"/>
<path d="M7.60091 22.6355H4.93872V25.2923H7.60091V22.6355Z" fill="#DBDBDB"/>
<path d="M11.7146 33.7754H0.822021C1.04033 29.9523 3.01642 23.8384 6.26832 23.8384C9.52022 23.8384 11.4991 29.9523 11.7146 33.7754Z" fill="#DBDBDB"/>
<path d="M21.0877 0H20.8042V17.4604H21.0877V0Z" fill="#C7C7C7"/>
<path d="M22.2786 16.0745H19.6165V18.7313H22.2786V16.0745Z" fill="#DBDBDB"/>
<path d="M26.3951 27.2119H15.4883C15.7094 23.3914 17.6855 17.2749 20.9346 17.2749C24.1836 17.2749 26.1767 23.3914 26.3951 27.2119Z" fill="#DBDBDB"/>
<path d="M60 120C90.6866 120 115.563 117.526 115.563 114.474C115.563 111.423 90.6866 108.949 60 108.949C29.3134 108.949 4.43701 111.423 4.43701 114.474C4.43701 117.526 29.3134 120 60 120Z" fill="#EBEBEB"/>
<path d="M0 96.0072L15.0007 95.9444L29.9986 95.9209L60 95.8765L90.0014 95.9209L105.002 95.9444L120 96.0072L105.002 96.0726L90.0014 96.0961L60 96.138L29.9986 96.0935L15.0007 96.07L0 96.0072Z" fill="#263238"/>
<path d="M70.8046 88.6226L70.8217 91.9725L70.8046 91.9568H74.306H74.3372V91.9855L74.3571 96.0989V96.146H74.3032L70.8018 96.1617L70.8699 96.0989V99.4514L70.7961 99.3808H72.6503V99.454V103.565V103.643H69.9966L70.076 103.596C69.2126 105.296 67.7297 106.663 65.8857 107.459C64.9701 107.852 63.9882 108.098 62.9825 108.185C62.4807 108.23 61.976 108.227 61.4799 108.227H58.5058C58.0036 108.238 57.5011 108.225 57.0004 108.188C55.9934 108.103 55.0096 107.86 54.0915 107.469C53.1757 107.071 52.339 106.533 51.6164 105.879C50.9 105.219 50.3113 104.45 49.8757 103.607L49.9891 103.672H47.4204H47.29V103.554V99.4435V99.318H49.2037L49.0648 99.4462V96.0859L49.2037 96.214H45.7023H45.5691V96.0911V91.9777V91.86H45.6967H49.1981L49.079 91.9725V88.6226L49.1924 88.7299H45.691H45.5804V88.6279V84.5145V84.4177H45.6853L59.9914 84.4386L74.2975 84.4805H74.3344V84.5145L74.3145 88.6279V88.6488H74.2975L70.8046 88.6226ZM70.8046 88.6226L74.306 88.607V88.6226L74.2862 84.5093L74.3202 84.5406L60.0141 84.5825L45.708 84.6034L45.8101 84.5093V88.6226L45.7023 88.5207H49.2037H49.32V88.6279V91.9777V92.0875H49.1981H45.6967L45.8214 91.9725V96.0859L45.6882 95.963H49.1896H49.3285V99.5717H47.4148L47.5508 99.4462V103.557L47.4233 103.437H49.9919H50.077L50.111 103.502C50.5331 104.323 51.1025 105.071 51.7951 105.717C52.4982 106.353 53.3106 106.878 54.1992 107.27C55.0939 107.653 56.0526 107.893 57.0344 107.979C57.522 108.023 58.0153 108.021 58.5172 108.021H61.5054C62.0072 108.021 62.5005 108.021 62.991 107.984C63.9725 107.9 64.9313 107.662 65.8261 107.281C67.6277 106.507 69.0775 105.174 69.9229 103.515L69.9456 103.468H72.5709L72.4859 103.546V99.4357L72.5624 99.5063H70.7111V99.4383V96.0859V96.0231H70.7791L74.2805 96.0388L74.2295 96.0859L74.2493 91.9725L74.2805 92.0012L70.7791 91.9882H70.7621V91.9751L70.8046 88.6226Z" fill="#263238"/>
<path d="M82.5508 77.432C95.0056 65.9442 95.0056 47.3189 82.5508 35.8312C70.0961 24.3435 49.9029 24.3435 37.4481 35.8312C24.9933 47.3189 24.9933 65.9442 37.4481 77.432C49.9029 88.9197 70.0961 88.9197 82.5508 77.432Z" fill="white"/>
<path d="M60 86.1772C53.6636 86.1772 47.4696 84.4442 42.2011 81.1972C36.9327 77.9503 32.8264 73.3353 30.4016 67.9358C27.9768 62.5363 27.3423 56.5949 28.5785 50.8629C29.8146 45.1308 32.8659 39.8656 37.3463 35.733C41.8268 31.6004 47.5353 28.7861 53.7498 27.6459C59.9644 26.5057 66.406 27.0909 72.26 29.3275C78.114 31.564 83.1175 35.3514 86.6378 40.2108C90.1581 45.0702 92.037 50.7833 92.037 56.6277C92.028 64.4622 88.6498 71.9734 82.6436 77.5132C76.6375 83.053 68.4939 86.1689 60 86.1772ZM60 27.3396C53.7197 27.3396 47.5805 29.0574 42.3586 32.2756C37.1368 35.4938 33.0669 40.0679 30.6635 45.4196C28.2602 50.7713 27.6313 56.6602 28.8566 62.3415C30.0818 68.0228 33.106 73.2415 37.5468 77.3375C41.9876 81.4335 47.6456 84.2229 53.8051 85.353C59.9647 86.4831 66.3493 85.9031 72.1515 83.6863C77.9537 81.4696 82.9129 77.7156 86.402 72.8993C89.8912 68.0829 91.7535 62.4203 91.7535 56.6277C91.7422 48.8634 88.3931 41.4202 82.4405 35.9303C76.4879 30.4404 68.4178 27.3519 60 27.3423V27.3396Z" fill="#263238"/>
<path d="M91.8923 56.6304C91.8949 61.823 90.4066 66.9237 87.5785 71.4136C84.7504 75.9034 80.6836 79.6224 75.7916 82.1921C73.4299 81.4913 71.6721 79.8517 69.9115 78.2121C68.6442 77.0301 71.7345 76.5463 69.8605 75.9213C71.6834 74.2556 74.0905 70.8901 70.9945 71.3738C69.1205 70.7462 67.9552 74.1484 65.449 72.9428C62.9427 71.7373 62.268 68.8321 59.7475 67.6161L57.315 69.8362C55.4381 69.206 54.1169 65.7359 53.5102 66.2903C50.4199 66.7714 48.6224 69.5826 46.1927 71.8001C44.9226 70.6207 43.0486 69.9957 43.6411 68.2934C55.0837 56.5102 66.3222 44.1595 78.1674 32.4417C82.4064 35.1483 85.8698 38.7634 88.2604 42.9766C90.651 47.1898 91.8973 51.8752 91.8923 56.6304Z" fill="#F09219"/>
<path d="M63.3029 87.8639H62.7359V69.1954C61.9704 69.1954 60.6832 69.2085 60.1077 69.2085H59.8922C59.3252 69.2085 58.0324 69.2085 57.264 69.1954V87.8639H56.697V68.6646H56.9805C57.6043 68.6646 59.0955 68.6802 59.8866 68.6802H60.102C60.893 68.6802 62.3843 68.6802 63.008 68.6646H63.2915L63.3029 87.8639Z" fill="#263238"/>
<path d="M62.7358 69.1984V63.0741C62.7358 60.8121 64.091 59.1855 66.189 58.9293C68.1736 58.6887 70.7253 59.8628 71.6353 63.0061C72.225 65.0249 72.14 66.4056 71.3745 67.3391C70.1752 68.8035 67.4053 69.1278 63.0222 69.1932L62.7358 69.1984ZM66.705 59.4235C66.559 59.4229 66.4131 59.4317 66.2684 59.4497C64.4709 59.6667 63.3085 61.0893 63.3085 63.0741V68.6649C67.2494 68.5943 69.8974 68.2805 70.9266 67.0253C71.5786 66.2251 71.6325 64.9935 71.0938 63.142C70.3312 60.5349 68.3664 59.4235 66.6994 59.4235H66.705Z" fill="#263238"/>
<path d="M57.2641 69.1982H56.9806C52.6003 69.1328 49.8304 68.8086 48.6339 67.3442C47.8656 66.408 47.7834 65.0299 48.3674 63.0111C49.2832 59.8731 51.8348 58.6937 53.8194 58.9343C55.9146 59.1958 57.2698 60.8171 57.2698 63.0791L57.2641 69.1982ZM53.2949 59.4233C51.6278 59.4233 49.6631 60.5347 48.9033 63.1418C48.3674 64.9933 48.4213 66.2249 49.0734 67.0251C50.1025 68.2803 52.7591 68.5941 56.6914 68.6647V63.0739C56.6914 61.0891 55.529 59.6744 53.7315 59.4495C53.5887 59.4317 53.4447 59.423 53.3006 59.4233H53.2949Z" fill="#263238"/>
<path d="M64.0175 80.1394H55.9827C54.5077 80.1394 53.312 81.2423 53.312 82.6027V84.1325C53.312 85.493 54.5077 86.5959 55.9827 86.5959H64.0175C65.4925 86.5959 66.6882 85.493 66.6882 84.1325V82.6027C66.6882 81.2423 65.4925 80.1394 64.0175 80.1394Z" fill="#A6A6A6"/>
<path d="M37.1063 35.7757C40.1014 33.0115 43.6611 30.8223 47.5793 29.335C51.499 27.848 55.691 27.0669 59.9291 27.0338C64.1705 26.9976 68.3792 27.7214 72.3215 29.165C76.2664 30.612 79.8523 32.7817 82.8626 35.543C85.863 38.3133 88.2307 41.6104 89.8256 45.2394C93.0318 52.5742 93.0704 60.7631 89.9334 68.1233C88.3807 71.7766 86.0356 75.0989 83.0418 77.8868C80.048 80.6747 76.4686 82.8694 72.5228 84.3364C68.5833 85.8109 64.3706 86.565 60.1191 86.5565C55.8714 86.55 51.6646 85.7919 47.7267 84.3233C43.7887 82.857 40.2078 80.6801 37.1942 77.9202C34.1806 75.1604 31.7949 71.8731 30.1772 68.2515C26.9287 60.9465 26.9144 52.758 30.1375 45.4434C31.7382 41.8244 34.1076 38.5374 37.1063 35.7757ZM37.1063 35.7757C34.118 38.5424 31.7592 41.832 30.1687 45.4512C26.978 52.756 27.0167 60.923 30.2764 68.2018C31.8992 71.8014 34.2842 75.0662 37.2917 77.8052C40.2993 80.5442 43.869 82.7024 47.7919 84.1533C51.7116 85.6027 55.8961 86.3456 60.1191 86.3421C64.3395 86.3452 68.5203 85.5921 72.4292 84.1245C76.3328 82.6502 79.8741 80.4653 82.8417 77.7003C85.8092 74.9353 88.1421 71.647 89.7009 68.0318C92.8438 60.7229 92.8296 52.5808 89.6612 45.2813C88.0936 41.6598 85.7449 38.3698 82.7574 35.6107C79.77 32.8516 76.2061 30.6809 72.2818 29.2304C68.3554 27.7811 64.161 27.0493 59.932 27.0756C55.7 27.0965 51.5117 27.8652 47.5934 29.3402C43.6709 30.8249 40.1064 33.0122 37.1063 35.7757Z" fill="#263238"/>
<path d="M92.1761 56.8919C92.1662 52.9858 91.3163 49.1203 89.6755 45.5193C88.0346 41.9198 85.6603 38.6442 82.6812 35.8699C79.7107 33.0915 76.1838 30.8713 72.2961 29.3324C68.4089 27.8028 64.2263 27.0147 60.0001 27.0155C55.7743 27.0298 51.5943 27.8247 47.707 29.3533C39.8772 32.4502 33.63 38.1946 30.2482 45.4068C28.5783 48.9796 27.7066 52.8262 27.6852 56.7168C27.6637 60.6073 28.493 64.4619 30.1235 68.0502C31.7618 71.6373 34.1402 74.8967 37.1262 77.6472C40.1112 80.4038 43.6413 82.607 47.5255 84.1377C51.4111 85.6728 55.5899 86.4765 59.8168 86.5016C64.0437 86.5268 68.2335 85.7729 72.1402 84.2841C80.0311 81.2619 86.322 75.5055 89.6613 68.2515C91.3114 64.6572 92.1664 60.7951 92.1761 56.8919ZM92.1761 56.8919C92.1798 60.8003 91.3353 64.6698 89.6925 68.2724C86.3654 75.544 80.083 81.3245 72.1912 84.3756C68.2712 85.88 64.0649 86.6473 59.8192 86.6325C55.5734 86.6176 51.3736 85.821 47.466 84.2893C43.5497 82.7617 39.9884 80.5537 36.976 77.7858C33.958 75.0242 31.5508 71.7479 29.8881 68.1391C28.2222 64.5274 27.3742 60.6399 27.3962 56.715C27.4181 52.7902 28.3095 48.9109 30.0157 45.3153C33.4394 38.0651 39.7437 32.2999 47.6333 29.2043C51.5398 27.6679 55.7441 26.8796 59.9909 26.8873C64.2377 26.8949 68.4386 27.6983 72.3386 29.2487C76.2345 30.7985 79.7664 33.0322 82.7379 35.8255C85.7104 38.6104 88.0769 41.8947 89.7095 45.501C91.3393 49.1104 92.1776 52.982 92.1761 56.8919Z" fill="#263238"/>
<path d="M59.7167 86.9932C64.0117 86.9828 68.262 86.1882 72.2225 84.6554C76.1793 83.1216 79.7807 80.9024 82.8315 78.1179C85.8865 75.3388 88.3265 72.0385 90.0158 68.4005C91.7007 64.7637 92.5688 60.8495 92.5674 56.8945C92.5533 52.9391 91.6789 49.0265 89.9959 45.3885C86.5926 38.0627 80.2759 32.2177 72.3444 29.0551C68.4154 27.4929 64.1853 26.6773 59.9069 26.6571C55.6284 26.6369 51.3895 27.4125 47.4434 28.9375C43.4996 30.472 39.916 32.6975 36.891 35.4907C33.8599 38.2822 31.4366 41.5834 29.7521 45.2159C28.0652 48.8508 27.1823 52.7598 27.155 56.7137C27.1277 60.6675 27.9567 64.5866 29.5933 68.241C32.9151 75.6214 39.241 81.5069 47.2137 84.6344C51.169 86.1823 55.4201 86.9843 59.7167 86.9932ZM59.7167 86.9932C55.4192 86.9953 51.1646 86.2058 47.2024 84.6711C39.2054 81.5545 32.8505 75.6724 29.4998 68.2854C27.844 64.6188 26.9993 60.6839 27.0154 56.7119C27.0314 52.7399 27.9079 48.8109 29.5933 45.1557C31.2783 41.4974 33.7085 38.1712 36.7521 35.3573C39.7888 32.5358 43.391 30.2853 47.3583 28.7309C51.3298 27.1732 55.6045 26.3803 59.9201 26.401C64.2357 26.4217 68.5012 27.2555 72.4549 28.8512C80.4247 32.0536 86.763 37.9485 90.1689 45.3257C91.8588 48.9796 92.726 52.9122 92.7177 56.8847C92.7095 60.8571 91.8259 64.7866 90.1207 68.4345C88.4155 72.077 85.9602 75.3798 82.8911 78.1597C79.8264 80.94 76.2127 83.153 72.2451 84.6789C68.2761 86.2072 64.0177 86.9938 59.7167 86.9932Z" fill="#263238"/>
<path d="M49.5327 84.6921H70.4674V100.155C70.4674 102.202 69.5856 104.165 68.0161 105.613C66.4465 107.061 64.3177 107.874 62.098 107.874H57.902C55.6824 107.874 53.5536 107.061 51.984 105.613C50.4145 104.165 49.5327 102.202 49.5327 100.155V84.6921Z" fill="#455A64"/>
<path d="M73.864 84.6921H46.1392V88.7323H73.864V84.6921Z" fill="#37474F"/>
<path d="M73.864 92.022H46.1392V96.0622H73.864V92.022Z" fill="#37474F"/>
<path d="M72.188 99.3542H47.8115V103.394H72.188V99.3542Z" fill="#37474F"/>
<path d="M86.4888 57.2451C86.1129 57.2451 85.7523 57.1074 85.4865 56.8622C85.2206 56.617 85.0713 56.2844 85.0713 55.9376C85.0713 42.1984 70.4221 34.2619 70.2747 34.1834C69.9487 34.01 69.7108 33.7243 69.6132 33.3891C69.5157 33.0539 69.5665 32.6967 69.7544 32.3961C69.9424 32.0954 70.2522 31.876 70.6156 31.786C70.979 31.696 71.3663 31.7428 71.6922 31.9162C74.691 33.6169 77.4158 35.6979 79.7866 38.0981C85.1053 43.4275 87.9149 49.6041 87.9149 55.9376C87.9149 56.11 87.878 56.2807 87.8062 56.4398C87.7344 56.599 87.6292 56.7435 87.4967 56.865C87.3642 56.9865 87.2069 57.0826 87.0339 57.1479C86.861 57.2131 86.6757 57.2462 86.4888 57.2451Z" fill="white"/>
<path d="M86.1428 63.8218C87.0776 63.8218 87.8353 63.1228 87.8353 62.2606C87.8353 61.3984 87.0776 60.6995 86.1428 60.6995C85.208 60.6995 84.4502 61.3984 84.4502 62.2606C84.4502 63.1228 85.208 63.8218 86.1428 63.8218Z" fill="white"/>
<path d="M46.4453 109.966L49.8333 109.906L53.2355 109.872L60.0114 109.843L66.7874 109.872C69.0555 109.893 71.3066 109.916 73.5662 109.966V109.982C71.2981 110.032 69.047 110.055 66.7874 110.076L60.0114 110.105L53.2355 110.076L49.8333 110.039L46.4453 109.982V109.966Z" fill="#263238"/>
<path d="M47.3838 111.043L47.5794 110.852L46.5531 109.974L47.5794 109.095L47.3838 108.904L46.1392 109.974L47.3838 111.043Z" fill="#263238"/>
<path d="M72.6163 111.043L72.4207 110.852L73.447 109.974L72.4207 109.095L72.6163 108.904L73.8609 109.974L72.6163 111.043Z" fill="#263238"/>
<path d="M28.4136 23.3256L36.3094 23.2629L44.2053 23.2289L59.9998 23.1975L75.7916 23.2289L83.6902 23.2629L91.5861 23.3256V23.3309L83.6902 23.3936L75.7916 23.4302L59.9998 23.459L44.2053 23.4302L36.3094 23.3936L28.4136 23.3309V23.3256Z" fill="#263238"/>
<path d="M29.3522 24.3979L29.5478 24.207L28.5215 23.3283L29.5478 22.4523L29.3522 22.2588L28.1047 23.3283L29.3522 24.3979Z" fill="#263238"/>
<path d="M90.6479 24.3979L90.4551 24.207L91.4786 23.3283L90.4551 22.4523L90.6479 22.2588L91.8953 23.3283L90.6479 24.3979Z" fill="#263238"/>
<path d="M39.7317 107.594C39.6779 105.712 39.6524 103.826 39.6297 101.941L39.5872 96.2845L39.6183 90.6309C39.641 88.7454 39.6665 86.86 39.7204 84.9746H39.7374C39.7913 86.86 39.8168 88.7454 39.8395 90.6309L39.8707 96.2845L39.8395 101.941C39.8168 103.826 39.7913 105.712 39.7374 107.594H39.7317Z" fill="#263238"/>
<path d="M40.8997 106.729L40.6927 106.551L39.7401 107.495L38.7875 106.551L38.5806 106.729L39.7401 107.879L40.8997 106.729Z" fill="#263238"/>
<path d="M40.8997 85.8427L40.6927 86.0206L39.7401 85.0765L38.7875 86.0206L38.5806 85.8427L39.7401 84.6921L40.8997 85.8427Z" fill="#263238"/>
<path d="M93.6899 107.594L93.6219 97.5839L93.5964 87.5711L93.551 67.5454L93.5964 47.5197L93.6219 37.5094L93.6899 27.4966H93.6928L93.7637 37.5094L93.7863 47.5197L93.8317 67.5454L93.7863 87.5711L93.7608 97.5839L93.6928 107.594H93.6899Z" fill="#263238"/>
<path d="M94.8523 106.729L94.6425 106.551L93.6928 107.495L92.7402 106.551L92.5332 106.729L93.6928 107.879L94.8523 106.729Z" fill="#263238"/>
<path d="M94.8523 28.3623L94.6425 28.5401L93.6928 27.5961L92.7402 28.5401L92.5332 28.3623L93.6928 27.2117L94.8523 28.3623Z" fill="#263238"/>
<path d="M52.2458 84.692C50.7743 84.7443 49.3029 84.7705 47.8315 84.7914C46.36 84.8123 44.8886 84.8123 43.4171 84.8228C41.9457 84.8333 40.4714 84.8228 39 84.7914L36.7943 84.7548C36.0571 84.7339 35.3228 84.7208 34.5857 84.692C35.3228 84.6607 36.0571 84.6502 36.7943 84.6267L39 84.5901C40.4714 84.5691 41.9457 84.5718 43.4171 84.5613C44.8886 84.5508 46.36 84.5613 47.8315 84.5927C49.3029 84.6241 50.7743 84.6371 52.2458 84.692Z" fill="#263238"/>
<path d="M57.6892 107.879C55.7642 107.934 53.8391 107.958 51.914 107.979C49.989 108 48.0639 108 46.1389 108.01L40.3609 107.979L37.4747 107.942C36.5108 107.921 35.5496 107.908 34.5857 107.879C35.5496 107.851 36.5108 107.837 37.4747 107.814L40.3609 107.777L46.1389 107.749C48.0639 107.749 49.989 107.749 51.914 107.78C53.8391 107.811 55.7642 107.824 57.6892 107.879Z" fill="#263238"/>
<path d="M46.1388 84.6921C46.1955 87.1006 46.2239 89.5116 46.2466 91.92L46.2806 99.1505L46.2466 106.378L46.2069 109.995L46.1388 113.609L46.0679 109.995L46.0283 106.378L45.9971 99.1505L46.0283 91.92C46.0509 89.5116 46.0793 87.1006 46.1388 84.6921Z" fill="#263238"/>
<path d="M73.861 84.6921C73.9205 87.1006 73.9489 89.5116 73.9716 91.92L74.0028 99.1505L73.9716 106.378L73.9319 109.995L73.861 113.609L73.7929 109.995L73.7533 106.378L73.7192 99.1505L73.7533 91.92C73.7759 89.5116 73.8043 87.1006 73.861 84.6921Z" fill="#263238"/>
<path d="M61.4177 107.879C64.5761 107.824 67.7344 107.801 70.8928 107.78L80.3706 107.749L89.8456 107.777L94.586 107.814L99.3235 107.879L94.586 107.942L89.8456 107.979L80.3706 108.01L70.8928 107.979C67.7429 107.958 64.5846 107.934 61.4177 107.879Z" fill="#263238"/>
<path d="M61.4177 27.2116C64.5761 27.1593 67.7344 27.1332 70.8928 27.1123L80.3706 27.0835L89.8456 27.1123L94.586 27.1489L99.3235 27.2116L94.586 27.277L89.8456 27.3136L80.3706 27.3424L70.8928 27.3136C67.7429 27.2927 64.5846 27.2665 61.4177 27.2116Z" fill="#263238"/>
<path d="M28.1047 107.879L28.0367 96.9564L28.0112 86.0362L27.9658 64.1904L28.0112 42.3473L28.0367 31.4244L28.1047 20.5042L28.1756 31.4244L28.2011 42.3473L28.2465 64.1904L28.2011 86.0362L28.1756 96.9564L28.1047 107.879Z" fill="#263238"/>
<path d="M91.8952 107.879L91.8243 96.9564L91.7988 86.0362L91.7534 64.1904L91.7988 42.3473L91.8243 31.4244L91.8952 20.5042L91.9632 31.4244L91.9887 42.3473L92.0341 64.1904L91.9887 86.0362L91.9632 96.9564L91.8952 107.879Z" fill="#263238"/>
<path d="M2.58576 100.17C2.58576 100.17 2.30225 110.528 2.30225 110.536C2.30225 112.45 2.35044 114.129 2.46101 114.995C2.45969 115 2.45969 115.005 2.46101 115.011C2.46315 115.216 2.5165 115.418 2.61695 115.602C3.23501 115.986 19.8262 116.386 20.4103 116.219C20.9943 116.051 20.5293 114.503 19.8971 114.014C19.2649 113.525 12.985 110.753 12.985 110.753L13.1807 100.416L2.58576 100.17Z" fill="#EB9481"/>
<path d="M2.28247 108.481C2.28247 108.481 2.30232 110.528 2.30232 110.536C2.30232 112.45 2.35051 114.129 2.46108 114.995C2.45976 115 2.45976 115.005 2.46108 115.01C2.4877 115.212 2.54004 115.411 2.61702 115.601C3.23508 115.986 19.8263 116.386 20.4103 116.219C20.9944 116.051 20.5294 114.503 19.8972 114.014C19.2649 113.525 12.9851 110.753 12.9851 110.753V108.661L2.28247 108.481Z" fill="white"/>
<path d="M14.0169 110.769C12.9112 110.601 11.5702 110.785 10.7452 111.525C10.714 111.553 10.7452 111.593 10.7934 111.582C11.8382 111.248 12.9189 111.018 14.0169 110.897C14.033 110.894 14.0474 110.886 14.0577 110.874C14.0681 110.863 14.0737 110.848 14.0737 110.833C14.0737 110.818 14.0681 110.803 14.0577 110.792C14.0474 110.78 14.033 110.772 14.0169 110.769Z" fill="#263238"/>
<path d="M14.8221 111.195C13.7164 111.028 12.3754 111.211 11.5504 111.948C11.5192 111.977 11.5504 112.019 11.5986 112.008C12.6425 111.674 13.7222 111.445 14.8193 111.323C14.8354 111.321 14.85 111.313 14.8606 111.301C14.8712 111.29 14.8772 111.275 14.8775 111.26C14.8779 111.245 14.8725 111.23 14.8624 111.219C14.8523 111.207 14.8381 111.198 14.8221 111.195Z" fill="#263238"/>
<path d="M15.6273 111.622C14.5216 111.454 13.1777 111.622 12.3556 112.375C12.3215 112.403 12.3556 112.445 12.4038 112.435C13.4477 112.101 14.5274 111.871 15.6245 111.75C15.6406 111.747 15.6552 111.739 15.6658 111.728C15.6764 111.716 15.6824 111.702 15.6827 111.687C15.6831 111.672 15.6777 111.657 15.6676 111.645C15.6575 111.633 15.6433 111.625 15.6273 111.622Z" fill="#263238"/>
<path d="M20.4244 116.229C19.8404 116.394 3.25202 115.996 2.63112 115.612C2.39297 115.468 2.31359 113.238 2.30225 110.536C2.30225 110.507 2.30225 110.479 2.30225 110.45L13.0077 110.596V110.764C13.0077 110.764 19.2819 113.536 19.917 114.027C20.552 114.519 21.0113 116.064 20.4244 116.229Z" fill="#37474F"/>
<path d="M2.30225 110.45V110.536C2.30225 113.238 2.39014 115.471 2.63112 115.612C2.87211 115.753 6.50675 115.965 10.3852 116.106C15.0348 116.258 20.0984 116.334 20.4188 116.242C21.0028 116.077 20.5322 114.527 19.9028 114.038C19.2734 113.549 12.9935 110.777 12.9935 110.777V110.612L9.42411 110.562L2.30225 110.45Z" fill="#F09219"/>
<path d="M20.2542 115.63C17.4587 115.499 6.17489 115.217 3.40212 115.285C3.37944 115.285 3.37661 115.301 3.40212 115.301C6.16922 115.486 17.4587 115.685 20.257 115.672C20.308 115.672 20.308 115.633 20.2542 115.63Z" fill="#263238"/>
<path opacity="0.1" d="M9.44116 110.549C9.70199 112.202 10.1017 114.639 10.3853 116.106C15.0349 116.258 20.0984 116.334 20.4188 116.242C21.0028 116.077 20.5322 114.527 19.9028 114.038C19.2734 113.549 12.9936 110.777 12.9936 110.777V110.612L9.44116 110.549Z" fill="black"/>
<path d="M1.33838 110.591L13.3423 110.698C13.3423 110.698 14.0256 92.6679 14.0766 86.656C14.1362 79.7864 13.7137 59.1985 13.7137 59.1985H4.73771C4.73771 59.1985 2.32784 63.7381 3.70572 68.8478L4.08563 87.2287L1.33838 110.591Z" fill="#37474F"/>
<path d="M2.2284 108.653C2.54528 108.614 2.86422 108.59 3.18384 108.583C3.53824 108.559 3.89263 108.536 4.24702 108.52C4.93029 108.494 5.61356 108.483 6.29682 108.481C7.6747 108.481 9.05541 108.481 10.4333 108.525C11.2158 108.549 12.0011 108.577 12.7836 108.619C12.8148 108.619 12.812 108.664 12.7836 108.664C11.4171 108.711 10.0505 108.729 8.68401 108.753C7.31747 108.776 5.9481 108.802 4.5844 108.779C4.19315 108.779 3.8019 108.779 3.41066 108.747C3.01941 108.716 2.61682 108.747 2.23407 108.695C2.20856 108.693 2.20005 108.659 2.2284 108.653Z" fill="#263238"/>
<path d="M12.4777 98.7007C12.6195 95.7196 12.7215 92.7359 12.8094 89.7548C12.989 83.7873 13.0362 77.819 12.9512 71.8499C12.9058 68.5026 12.8066 65.1554 12.6989 61.8082C12.6989 61.769 12.7612 61.7716 12.7641 61.8082C13.1071 67.7992 13.2375 73.8033 13.246 79.8021C13.2545 85.8009 13.1185 91.7396 12.7981 97.7018C12.6195 101.046 12.3983 104.396 12.0553 107.73C12.0535 107.735 12.0503 107.739 12.046 107.742C12.0416 107.745 12.0365 107.746 12.0312 107.746C12.0259 107.746 12.0207 107.745 12.0164 107.742C12.0121 107.739 12.0088 107.735 12.0071 107.73C12.1545 104.72 12.3388 101.724 12.4777 98.7007Z" fill="#263238"/>
<path d="M15.429 101.815C15.429 101.815 15.5225 111.828 15.5225 111.833C15.5225 113.75 15.5707 115.429 15.6813 116.294C15.6826 116.5 15.735 116.702 15.8344 116.885V116.899C16.4524 117.283 33.0437 117.683 33.6277 117.513C34.2117 117.343 33.7439 115.8 33.1145 115.311C32.4851 114.822 26.2025 112.05 26.2025 112.05L26.0069 102.043L15.429 101.815Z" fill="#EB9481"/>
<path d="M15.5024 109.778C15.5024 109.778 15.5223 111.828 15.5223 111.833C15.5223 113.75 15.5705 115.429 15.6811 116.294C15.707 116.496 15.7584 116.695 15.8342 116.885V116.898C16.4522 117.283 33.0434 117.683 33.6275 117.513C34.2115 117.343 33.7437 115.8 33.1143 115.311C32.4849 114.822 26.2022 112.05 26.2022 112.05V109.958L15.5024 109.778Z" fill="white"/>
<path d="M27.2372 112.069C26.1315 111.901 24.7876 112.082 23.9654 112.822C23.9314 112.851 23.9654 112.892 24.0136 112.882C25.0575 112.548 26.1373 112.318 27.2343 112.197C27.2504 112.194 27.265 112.186 27.2756 112.175C27.2863 112.163 27.2922 112.149 27.2926 112.134C27.2929 112.119 27.2876 112.104 27.2775 112.092C27.2674 112.08 27.2531 112.072 27.2372 112.069Z" fill="#263238"/>
<path d="M28.0396 112.495C26.9368 112.327 25.5929 112.508 24.7679 113.248C24.7367 113.277 24.7679 113.318 24.8161 113.308C25.8611 112.974 26.9417 112.745 28.0396 112.623C28.0557 112.62 28.0701 112.612 28.0804 112.6C28.0908 112.589 28.0964 112.574 28.0964 112.559C28.0964 112.544 28.0908 112.529 28.0804 112.517C28.0701 112.506 28.0557 112.498 28.0396 112.495Z" fill="#263238"/>
<path d="M28.8449 112.921C27.7421 112.751 26.3982 112.934 25.5732 113.674C25.542 113.703 25.5874 113.745 25.6214 113.735C26.6663 113.401 27.747 113.171 28.8449 113.049C28.861 113.046 28.8754 113.038 28.8857 113.027C28.8961 113.015 28.9017 113 28.9017 112.985C28.9017 112.97 28.8961 112.956 28.8857 112.944C28.8754 112.932 28.861 112.924 28.8449 112.921Z" fill="#263238"/>
<path d="M33.6334 117.526C33.0494 117.693 16.4582 117.296 15.8373 116.912C15.5991 116.768 15.5226 114.534 15.5112 111.836V111.75L26.2167 111.896V112.063C26.2167 112.063 32.4994 114.835 33.1316 115.322C33.7638 115.808 34.2288 117.364 33.6334 117.526Z" fill="#F09219"/>
<path d="M33.4744 116.93C30.679 116.799 19.3923 116.517 16.6195 116.585C16.5969 116.585 16.5969 116.598 16.6195 116.601C19.3866 116.786 30.6733 116.982 33.4716 116.972C33.5311 116.972 33.534 116.933 33.4744 116.93Z" fill="#263238"/>
<path d="M9.94568 69.7842C9.94568 69.7842 14.8703 84.1039 14.9582 86.7346C15.0348 88.9783 14.7229 112.001 14.7229 112.001L27.1975 112.069C27.1975 112.069 26.1428 88.5913 25.95 86.2535C25.5843 81.8812 21.4337 69.8783 18.4624 59.1855H5.01538C5.01538 59.1855 5.13162 64.7869 7.89304 68.8349C7.89304 68.8349 9.14334 69.3684 9.94568 69.7842Z" fill="#37474F"/>
<path d="M15.3864 109.88C16.8267 109.841 18.3208 109.801 19.761 109.835C21.2013 109.869 22.6217 109.888 24.0478 109.966C24.8586 110.011 25.6666 110.037 26.4746 110.11C26.479 110.112 26.4827 110.114 26.4854 110.118C26.488 110.121 26.4894 110.125 26.4894 110.13C26.4894 110.134 26.488 110.138 26.4854 110.142C26.4827 110.145 26.479 110.148 26.4746 110.149C25.0372 110.228 23.5913 110.212 22.1482 110.199C20.7051 110.186 19.2904 110.173 17.8615 110.113C17.0506 110.079 16.2426 110.042 15.4346 109.99C15.3439 109.985 15.2985 109.883 15.3864 109.88Z" fill="#263238"/>
<path d="M18.1138 65.9321C18.5561 67.2997 18.9332 68.6883 19.3301 70.069C19.727 71.4497 20.1296 72.8514 20.5265 74.253C21.2949 76.9465 22.0547 79.6425 22.633 82.3778C23.2206 85.123 23.5535 87.9093 23.6282 90.7066C23.6962 93.557 23.6282 96.4126 23.6083 99.2629C23.5885 102.113 23.563 104.998 23.5091 107.864C23.5091 108.219 23.4921 108.575 23.4779 108.933C23.4779 108.967 23.4212 108.965 23.4212 108.933C23.339 106.083 23.3815 103.225 23.3929 100.374C23.4042 97.5239 23.4439 94.6684 23.4184 91.818C23.4052 88.9863 23.1397 86.1605 22.6245 83.3689C22.1029 80.6258 21.3714 77.9219 20.6116 75.2258C20.1778 73.6882 19.7384 72.1532 19.3074 70.6155C18.8765 69.0779 18.4058 67.522 18.0231 65.9635C18.0186 65.9524 18.019 65.9401 18.0244 65.9293C18.0297 65.9185 18.0394 65.9101 18.0515 65.9059C18.0635 65.9018 18.0768 65.9022 18.0885 65.9071C18.1002 65.912 18.1093 65.921 18.1138 65.9321Z" fill="#263238"/>
<path d="M13.0276 70.0614C12.4069 70.0571 11.7877 70.0054 11.1763 69.9071C10.5698 69.7825 9.97078 69.6289 9.38163 69.4468C8.8023 69.3254 8.21519 69.2381 7.62384 69.1853C7.02736 69.1057 6.44666 68.9463 5.90008 68.712C5.87456 68.6989 5.85188 68.7356 5.8774 68.746C6.40736 69.0087 6.96026 69.23 7.53028 69.4076C8.12283 69.5802 8.74088 69.6037 9.3391 69.7397C9.94471 69.9057 10.5612 70.0358 11.1848 70.1293C11.8002 70.201 12.4236 70.1913 13.0361 70.1006C13.0588 70.0954 13.0503 70.0614 13.0276 70.0614Z" fill="#263238"/>
<path d="M13.8157 81.4521C13.6967 81.0259 13.5861 80.6023 13.4613 80.1786C13.209 79.3235 12.951 78.4684 12.6732 77.6211C12.1061 75.9371 11.5901 74.2426 11.0004 72.569C10.6687 71.6171 10.3682 70.6548 9.97695 69.7238C9.97507 69.719 9.97118 69.715 9.96613 69.7128C9.96108 69.7106 9.95528 69.7103 9.95002 69.7121C9.94476 69.7138 9.94046 69.7174 9.93806 69.7221C9.93567 69.7267 9.93538 69.7321 9.93726 69.7369C10.1329 70.6051 10.4136 71.455 10.6631 72.3101C10.9126 73.1652 11.1791 74.0177 11.4456 74.8702C11.9786 76.5595 12.4974 78.254 13.0786 79.9328C13.243 80.4035 13.4103 80.8716 13.5861 81.3397C13.7619 81.8078 13.9065 82.3072 14.1219 82.7701C14.1219 82.7756 14.1243 82.781 14.1286 82.7849C14.1328 82.7888 14.1386 82.791 14.1446 82.791C14.1506 82.791 14.1564 82.7888 14.1606 82.7849C14.1649 82.781 14.1673 82.7756 14.1673 82.7701C14.0709 82.3177 13.9348 81.8862 13.8157 81.4521Z" fill="#263238"/>
<path d="M14.9014 46.4737C17.5891 50.1347 21.6376 55.0875 23.0183 54.3632C26.5509 52.5117 30.6222 46.9444 31.3395 45.5427C31.7562 44.7295 25.9839 40.7181 25.414 41.5261C24.7478 42.4701 21.9637 47.47 21.5044 47.5877C21.1557 47.6766 17.7904 45.0485 16.6847 44.5046C13.9346 43.1631 13.6539 44.7792 14.9014 46.4737Z" fill="#EB9481"/>
<path d="M24.3339 42.7659L31.2204 46.8374C31.2204 46.8374 25.2383 54.4942 22.6158 54.5046C21.0848 54.5046 16.7045 49.7976 14.7993 46.7564C12.7212 43.4275 15.1594 43.383 17.1411 44.6356C18.7175 45.6319 21.2804 47.4493 21.3938 47.3578C21.5072 47.2663 24.3339 42.7659 24.3339 42.7659Z" fill="#F09219"/>
<path opacity="0.1" d="M22.8996 47.2848C22.7901 47.4937 22.7155 47.7168 22.6785 47.9463C22.84 47.7683 22.9736 47.5703 23.0754 47.358C23.1825 47.1479 23.2579 46.9253 23.2994 46.6964C23.137 46.8743 23.0024 47.0724 22.8996 47.2848ZM21.0908 53.7804L21.241 53.885C21.3198 53.7179 21.3751 53.5421 21.4055 53.362C21.2833 53.4897 21.1777 53.6302 21.0908 53.7804ZM25.7262 45.8203C25.4997 45.7216 25.2592 45.6529 25.0118 45.6164C25.4011 45.9117 25.8673 46.1082 26.3641 46.1864C26.1704 46.0384 25.9558 45.9152 25.7262 45.8203ZM20.0078 50.2502C19.7822 50.1486 19.5413 50.079 19.2933 50.0436C19.4841 50.1947 19.6981 50.3189 19.9284 50.4123C20.1559 50.5111 20.3974 50.5798 20.6457 50.6163C20.4538 50.4659 20.2388 50.3425 20.0078 50.2502ZM15.1427 44.9312C15.0589 44.7129 14.9415 44.5068 14.7939 44.3193C14.8143 44.5496 14.8706 44.776 14.9612 44.9914C15.0449 45.2106 15.1624 45.4176 15.3099 45.6059C15.2896 45.3748 15.2332 45.1476 15.1427 44.9312ZM29.2248 47.7711C29.1399 47.5524 29.0226 47.3456 28.8761 47.1566C28.8961 47.3878 28.9525 47.6151 29.0433 47.8313C29.1282 48.05 29.2456 48.2568 29.3921 48.4458C29.372 48.2146 29.3157 47.9874 29.2248 47.7711ZM23.9628 51.7773C23.8773 51.5588 23.76 51.3521 23.6141 51.1628C23.6613 51.6267 23.8392 52.0711 24.1301 52.452C24.1097 52.2209 24.0533 51.9937 23.9628 51.7773ZM26.3301 49.4107C26.093 49.489 25.8687 49.5973 25.6639 49.7324C26.1673 49.6909 26.6497 49.5266 27.0616 49.2565C26.8103 49.2794 26.5639 49.3358 26.3301 49.4238V49.4107ZM18.3917 46.9919C18.1557 47.0707 17.9325 47.1789 17.7283 47.3135C18.2317 47.272 18.7141 47.1078 19.126 46.8376C18.8714 46.8573 18.6212 46.911 18.3832 46.9971L18.3917 46.9919Z" fill="black"/>
<path d="M26.8289 46.1311C26.3328 45.8304 25.8253 45.5454 25.3206 45.2577C25.0796 45.1191 24.8386 44.9779 24.5892 44.8471C24.3397 44.7164 24.0618 44.5438 23.7868 44.4209C23.767 44.4209 23.7528 44.4209 23.7698 44.4444C24.0023 44.6275 24.2716 44.7792 24.5211 44.9439C24.7706 45.1086 24.9889 45.2446 25.2242 45.3911C25.7147 45.6996 26.208 46.0056 26.707 46.3011C27.705 46.8947 28.7199 47.4621 29.7463 48.0165C29.7509 48.0176 29.7559 48.0173 29.7604 48.0156C29.7648 48.014 29.7686 48.011 29.7711 48.0072C29.7737 48.0034 29.7748 47.999 29.7744 47.9945C29.774 47.9901 29.7721 47.9859 29.7689 47.9825C28.8135 47.3471 27.8382 46.7273 26.8289 46.1311Z" fill="#263238"/>
<path opacity="0.1" d="M27.3961 51.1994C25.6951 52.9227 23.8154 54.4995 22.6274 54.5048C21.0965 54.5048 16.7162 49.7978 14.811 46.7565C13.7308 45.028 13.8697 44.186 14.5275 43.948L27.3961 51.1994Z" fill="black"/>
<path d="M47.7439 53.0847C47.7439 53.0847 40.089 49.4237 32.3434 45.326C24.5978 41.2283 6.06167 35.5642 5.47196 35.9826C4.88226 36.401 22.1993 45.5352 30.2879 48.7046C38.3766 51.874 46.8111 54.6014 46.8111 54.6014L47.7439 53.0847Z" fill="#455A64"/>
<path d="M47.9565 53.0872L42.805 50.3467L41.498 53.0689L46.9982 54.9046L47.9565 53.0872Z" fill="#DBDBDB"/>
<path d="M47.9566 53.0845C49.1813 52.9773 50.5762 53.1708 51.9569 54.4731C53.624 56.0421 55.1833 55.9375 55.1833 55.9375C55.1833 55.9375 50.1311 58.3825 46.9983 54.8915L47.9566 53.0845Z" fill="#263238"/>
<path d="M55.4099 55.9613C55.1604 55.7494 53.7088 55.8436 52.7392 55.0538C51.8262 54.3138 49.5638 56.9314 51.245 56.9733C53.1559 57.0073 55.8635 56.3352 55.4099 55.9613Z" fill="#F09219"/>
<path d="M17.4247 46.4372C16.5175 46.4529 15.1566 44.7976 14.7994 43.6914C14.7767 43.6156 15.0574 42.9252 15.3664 42.0701C15.545 41.5471 15.7321 40.9692 15.8597 40.4253L19.3526 41.9943C18.9819 42.6304 18.6963 43.3056 18.5021 44.0052C18.4854 44.0801 18.4769 44.1563 18.4766 44.2327C18.475 44.2449 18.475 44.2572 18.4766 44.2693C18.4397 44.7165 18.3036 46.4215 17.4247 46.4372Z" fill="#EB9481"/>
<path d="M18.4682 44.2328C18.4665 44.2458 18.4665 44.259 18.4682 44.272C18.3381 44.2622 18.2091 44.242 18.0827 44.2119C15.9308 43.6889 15.8911 41.3354 15.9535 40.4724L19.3556 41.9943C18.9844 42.6302 18.6988 43.3055 18.5051 44.0053C18.4861 44.0801 18.4737 44.1561 18.4682 44.2328Z" fill="#263238"/>
<path d="M15.8061 36.3249C15.2022 37.4912 15.3298 41.1156 16.1435 42.0308C17.3258 43.3592 19.5457 43.7776 20.8385 42.4074C22.0945 41.0816 21.8365 36.3615 20.9009 35.5012C19.523 34.2355 16.6935 34.6042 15.8061 36.3249Z" fill="#EB9481"/>
<path d="M19.3357 38.9897C19.3357 38.9897 19.313 39.0028 19.313 39.0107C19.3272 39.2565 19.296 39.5337 19.0579 39.6226C19.3527 39.5938 19.3896 39.2251 19.3357 38.9897Z" fill="#263238"/>
<path d="M19.0947 38.7387C18.6666 38.7125 18.6467 39.5023 19.0408 39.5232C19.4349 39.5441 19.4576 38.757 19.0947 38.7387Z" fill="#263238"/>
<path d="M20.8212 39.021C20.8212 39.021 20.841 39.021 20.841 39.0419C20.841 39.2851 20.841 39.5649 21.0905 39.6538C21.0905 39.6538 21.0905 39.6695 21.0905 39.6669C20.7957 39.6224 20.7645 39.2485 20.8212 39.021Z" fill="#263238"/>
<path d="M21.065 38.7701C21.4902 38.7518 21.5016 39.5389 21.1075 39.5546C20.7134 39.5703 20.7077 38.7884 21.065 38.7701Z" fill="#263238"/>
<path d="M18.7658 38.3699C18.8791 38.3423 18.9908 38.3092 19.1003 38.2706C19.2236 38.2506 19.3362 38.1936 19.4207 38.1084C19.4411 38.0765 19.4497 38.0393 19.4451 38.0025C19.4405 37.9657 19.423 37.9312 19.3952 37.9045C19.3318 37.8597 19.2566 37.8313 19.1774 37.8221C19.0982 37.8129 19.0178 37.8233 18.9444 37.8522C18.7853 37.8925 18.648 37.9856 18.5588 38.1137C18.5423 38.1433 18.535 38.1765 18.538 38.2097C18.541 38.2429 18.554 38.2747 18.5755 38.3014C18.5971 38.3281 18.6264 38.3487 18.66 38.3608C18.6936 38.3729 18.7303 38.3761 18.7658 38.3699Z" fill="#263238"/>
<path d="M21.4052 38.3807C21.2908 38.3578 21.1781 38.3281 21.0679 38.2917C20.944 38.2757 20.8294 38.2224 20.7418 38.1401C20.72 38.1095 20.7099 38.0732 20.7129 38.0367C20.716 38.0002 20.7322 37.9658 20.7588 37.9387C20.8202 37.8916 20.894 37.8605 20.9728 37.8485C21.0515 37.8365 21.1323 37.8442 21.2068 37.8707C21.3671 37.9023 21.5087 37.9881 21.6037 38.1113C21.6236 38.1406 21.6338 38.1745 21.6331 38.2091C21.6325 38.2436 21.6209 38.2772 21.5998 38.3058C21.5788 38.3343 21.5492 38.3566 21.5146 38.3699C21.4801 38.3832 21.4421 38.3869 21.4052 38.3807Z" fill="#263238"/>
<path d="M19.2933 40.4779C19.3581 40.5756 19.4438 40.66 19.5452 40.7261C19.6466 40.7922 19.7615 40.8385 19.883 40.8623C19.9902 40.8824 20.0998 40.8894 20.209 40.8832H20.2714H20.3281C20.3422 40.8814 20.3552 40.8753 20.365 40.8658C20.3748 40.8563 20.3808 40.844 20.382 40.8309V40.7943V40.7734C20.382 40.5851 20.382 40.2974 20.382 40.2974C20.4557 40.334 20.8328 40.5014 20.8271 40.402C20.8274 39.5541 20.7324 38.7084 20.5436 37.8785C20.5436 37.8524 20.4926 37.8576 20.4954 37.8785C20.4954 38.663 20.6371 39.4475 20.6457 40.232C20.5122 40.171 20.3699 40.1279 20.2232 40.1039C20.1949 40.1039 20.2572 40.6583 20.2459 40.742C20.0788 40.7536 19.9109 40.7341 19.7521 40.6847C19.5933 40.6353 19.4469 40.5569 19.3216 40.4543C19.299 40.4412 19.2763 40.4569 19.2933 40.4779Z" fill="#263238"/>
<path d="M20.0899 40.7942C19.9748 40.9262 19.8243 41.0281 19.6533 41.0897C19.5611 41.117 19.462 41.117 19.3698 41.0897C19.16 41.0348 19.16 40.8544 19.2025 40.7027C19.2258 40.6215 19.2601 40.5433 19.3045 40.47C19.522 40.6528 19.7972 40.7664 20.0899 40.7942Z" fill="#263238"/>
<path d="M19.6533 41.0792C19.5611 41.1064 19.462 41.1064 19.3698 41.0792C19.16 41.0242 19.16 40.8438 19.2025 40.6921C19.3139 40.7004 19.419 40.7431 19.5009 40.8133C19.5827 40.8836 19.6364 40.9772 19.6533 41.0792Z" fill="#FF97B8"/>
<path opacity="0.2" d="M16.7416 35.3208C16.7416 35.8046 16.6736 37.3004 16.4354 37.6142C16.1973 37.928 15.6955 38.6602 15.429 38.7726C15.429 37.7763 15.548 36.8244 15.806 36.325C16.016 35.9197 16.3389 35.5732 16.7416 35.3208Z" fill="#263238"/>
<path d="M18.6071 33.65C18.2674 33.6519 17.9337 33.7324 17.6365 33.8841C17.3393 34.0357 17.0882 34.2538 16.906 34.5182C16.7526 34.7851 16.7026 35.0923 16.7643 35.389H16.7926C16.7772 35.1261 16.8385 34.8641 16.9701 34.6305C17.1018 34.3968 17.2989 34.2 17.5411 34.0606C17.8066 33.9 18.1089 33.7983 18.4241 33.7633C18.7394 33.7284 19.0592 33.7612 19.3584 33.8592C19.6515 33.9506 19.8991 34.1362 20.0558 34.3822C20.0558 34.4058 20.1267 34.3822 20.1125 34.3639C19.8971 33.9246 19.279 33.6343 18.6071 33.65Z" fill="#263238"/>
<path d="M22.9532 35.1432C22.8295 34.8024 22.5796 34.5126 22.2473 34.3247C21.788 34.0632 21.2692 34.1025 20.7532 34.1522C20.7532 34.1522 20.7532 34.1731 20.7532 34.1705C21.1881 34.098 21.6364 34.1444 22.0432 34.3038C22.3776 34.4595 22.6431 34.7174 22.7945 35.0334C22.9406 35.3573 22.9551 35.7189 22.8353 36.0518C22.7155 36.3847 22.4694 36.6666 22.1424 36.8456C21.9506 36.9442 21.7391 37.0057 21.5207 37.0264C21.3024 37.047 21.0817 37.0265 20.8722 36.9659C20.8722 36.9659 20.8439 36.9842 20.8722 36.9894C21.1552 37.0832 21.4608 37.1024 21.7549 37.0447C22.0489 36.9871 22.3197 36.8549 22.5368 36.6631C22.7539 36.4713 22.9087 36.2274 22.9837 35.9589C23.0588 35.6904 23.0512 35.408 22.9617 35.1432H22.9532Z" fill="#263238"/>
<path d="M15.5253 37.026C15.5253 37.026 14.8193 35.7864 15.4147 35.0725C15.7549 34.6698 16.872 34.7248 16.872 34.7248C17.1724 34.316 17.6363 34.0339 18.162 33.9403C19.0976 33.7467 20.2089 34.2541 20.2089 34.2541C20.2089 34.2541 21.0992 33.7886 21.9299 34.2305C23.0894 34.845 22.9363 36.4768 21.7683 36.9972C20.9461 37.3607 19.8347 36.6886 19.8347 36.6886C19.727 36.6886 18.6269 37.3084 17.8019 36.401C17.8019 36.401 17.1243 36.9527 16.5204 36.5631C16.4257 36.7248 16.2795 36.8558 16.1016 36.9386C15.9237 37.0213 15.7226 37.0518 15.5253 37.026Z" fill="#263238"/>
<path d="M16.1575 39.314C16.1575 39.314 15.4487 38.0666 14.8477 38.2837C14.2466 38.5007 14.6634 40.2397 15.2928 40.543C15.3704 40.5873 15.457 40.6167 15.5473 40.6294C15.6376 40.6421 15.7298 40.6378 15.8182 40.6168C15.9067 40.5958 15.9896 40.5585 16.062 40.5072C16.1345 40.4558 16.1949 40.3915 16.2397 40.3181L16.1575 39.314Z" fill="#EB9481"/>
<path d="M14.981 38.7805C14.981 38.7805 14.981 38.7805 14.981 38.7962C15.1799 38.9186 15.3486 39.0782 15.4761 39.2648C15.6036 39.4513 15.687 39.6605 15.7209 39.8788C15.6996 39.8332 15.6679 39.7924 15.6279 39.759C15.588 39.7257 15.5408 39.7006 15.4895 39.6855C15.4382 39.6704 15.384 39.6656 15.3305 39.6714C15.277 39.6772 15.2255 39.6936 15.1794 39.7193C15.1757 39.7193 15.1721 39.7207 15.1694 39.7231C15.1667 39.7256 15.1652 39.7289 15.1652 39.7324C15.1652 39.7358 15.1667 39.7392 15.1694 39.7416C15.1721 39.7441 15.1757 39.7455 15.1794 39.7455C15.2641 39.731 15.3515 39.7411 15.4297 39.7744C15.5079 39.8076 15.573 39.8624 15.616 39.9311C15.687 40.0471 15.744 40.1698 15.7861 40.2972C15.8031 40.3364 15.8797 40.326 15.8712 40.2815C15.9591 39.7271 15.6075 38.9087 14.981 38.7805Z" fill="#263238"/>
<path d="M2.85203 61.7483C2.88322 61.7953 19.8629 65.0039 20.0528 64.8706C20.3165 64.6849 21.2209 48.7517 18.5559 45.2005C17.8981 44.3271 15.355 43.0928 14.4166 43.5008C11.984 44.5468 10.2262 47.3291 9.12052 48.9347C8.30116 50.122 7.17845 52.1983 6.11527 54.34C4.35749 57.8702 2.7443 61.5731 2.85203 61.7483Z" fill="#F09219"/>
<path opacity="0.1" d="M14.6547 49.6853C14.5451 49.8945 14.4696 50.1174 14.4307 50.3469C14.5938 50.1709 14.7276 49.9735 14.8277 49.7612C14.9365 49.5518 15.012 49.3289 15.0516 49.0996C14.8886 49.2756 14.7548 49.473 14.6547 49.6853ZM7.26635 53.0691C7.15923 53.279 7.08479 53.5017 7.04521 53.7307C7.20826 53.5547 7.34203 53.3573 7.44213 53.145C7.55049 52.9356 7.62499 52.7127 7.66327 52.4834C7.50215 52.6607 7.36856 52.8579 7.26635 53.0691ZM16.1488 63.4115C16.0413 63.6212 15.9669 63.844 15.9277 64.0731C16.0906 63.8965 16.2253 63.6992 16.3274 63.4873C16.4329 63.2769 16.5073 63.0544 16.5486 62.8257C16.3816 63.0017 16.2432 63.199 16.1375 63.4115H16.1488ZM7.57821 62.627V62.6557L7.77384 62.6897C7.87819 62.4839 7.95072 62.2656 7.98931 62.0412C7.81675 62.2173 7.6743 62.4166 7.56687 62.6322L7.57821 62.627ZM3.26597 60.8802C3.15881 61.0902 3.08344 61.3128 3.04199 61.5418C3.20692 61.3655 3.34172 61.1671 3.44175 60.9534C3.55042 60.7441 3.62494 60.5212 3.66289 60.2918C3.49791 60.4714 3.36054 60.6712 3.25463 60.8854L3.26597 60.8802ZM12.5085 57.7918C12.4014 58.0019 12.326 58.2245 12.2845 58.4534C12.4494 58.2782 12.5843 58.0806 12.6843 57.8677C12.7923 57.6582 12.8668 57.4353 12.9054 57.2061C12.7443 57.3834 12.6107 57.5806 12.5085 57.7918ZM11.2781 46.4846C11.1694 46.6938 11.0949 46.9168 11.0569 47.1462C11.2181 46.9679 11.3517 46.7699 11.4538 46.5578C11.5627 46.3493 11.6381 46.1273 11.6778 45.8988C11.5151 46.0746 11.3805 46.271 11.2781 46.4819V46.4846ZM20.0245 50.2554C19.7989 50.1539 19.5581 50.0842 19.31 50.0488C19.5008 50.1999 19.7148 50.3242 19.9451 50.4175L20.0642 50.462C20.0386 50.3888 20.0245 50.3208 20.0245 50.2554ZM7.69445 57.9775C7.46674 57.8787 7.22539 57.8092 6.97716 57.7709C7.16777 57.9236 7.38298 58.048 7.61507 58.1396C7.84114 58.24 8.08179 58.3096 8.32952 58.3462C8.13869 58.1951 7.92469 58.0709 7.69445 57.9775ZM20.1294 64.1097C19.9023 64.0098 19.6607 63.9411 19.4121 63.9057C19.6044 64.0556 19.8192 64.1789 20.05 64.2718L20.152 64.3137C20.152 64.2561 20.152 64.196 20.1719 64.1306L20.1294 64.1097ZM14.0452 61.126C13.8178 61.0268 13.5763 60.9581 13.3279 60.922C13.5202 61.0719 13.735 61.1952 13.9658 61.2881C14.1925 61.3892 14.4342 61.4589 14.6831 61.4947C14.4901 61.3449 14.2754 61.2208 14.0452 61.126ZM19.2788 56.8347C19.0526 56.7352 18.812 56.6665 18.5644 56.6308C18.7559 56.7803 18.9698 56.9036 19.1994 56.9969C19.4268 57.0965 19.6683 57.1661 19.9167 57.2035C19.7242 57.0531 19.5094 56.929 19.2788 56.8347ZM12.7779 52.5435C12.5508 52.4436 12.3092 52.3749 12.0606 52.3396C12.2529 52.4894 12.4677 52.6128 12.6985 52.7057C12.9252 52.8068 13.1669 52.8764 13.4158 52.9122C13.2233 52.7619 13.0085 52.6377 12.7779 52.5435ZM5.89131 60.637C5.80835 60.4183 5.69084 60.2121 5.54258 60.0251C5.56326 60.2561 5.61959 60.4833 5.70986 60.6997C5.79534 60.9174 5.91267 61.1233 6.05858 61.3116C6.03852 61.0805 5.98218 60.8532 5.89131 60.637ZM15.1424 44.9312C15.0586 44.7129 14.9412 44.5068 14.7936 44.3193C14.814 44.5496 14.8703 44.776 14.9609 44.9914C15.0446 45.2106 15.1621 45.4176 15.3096 45.6059C15.2893 45.3748 15.2329 45.1476 15.1424 44.9312ZM17.8499 52.7318C17.7656 52.5137 17.6482 52.3077 17.5012 52.1199C17.5216 52.351 17.5779 52.5782 17.6685 52.7946C17.7526 53.0133 17.871 53.2194 18.02 53.4065C17.9984 53.1753 17.9411 52.9481 17.8499 52.7318ZM11.7203 63.0951C11.636 62.8769 11.5186 62.6709 11.3716 62.4832C11.3923 62.7142 11.4486 62.9414 11.5389 63.1578C11.5786 63.2494 11.6183 63.3409 11.6665 63.4193L11.8394 63.4507C11.8079 63.33 11.7681 63.2112 11.7203 63.0951ZM16.455 58.8065C16.3695 58.5888 16.2522 58.3829 16.1063 58.1945C16.127 58.4256 16.1833 58.6528 16.2736 58.8692C16.3584 59.088 16.4758 59.2948 16.6223 59.4837C16.6019 59.2518 16.5456 59.0237 16.455 58.8065ZM10.1695 55.2814C10.0843 55.0623 9.96598 54.8554 9.81797 54.6669C9.83834 54.8989 9.89467 55.127 9.98524 55.3442C10.071 55.5644 10.1903 55.7722 10.3396 55.9613C10.3189 55.7283 10.2616 55.4993 10.1695 55.2814ZM5.2619 56.0895L5.15701 56.3091L5.22788 56.2882C5.46473 56.2089 5.68811 56.0988 5.89131 55.9613C5.67608 55.9769 5.46425 56.02 5.2619 56.0895ZM10.0476 60.1061C9.81046 60.1844 9.58624 60.2926 9.38136 60.4278C9.63286 60.409 9.88015 60.357 10.1157 60.2735C10.3515 60.1962 10.574 60.0879 10.7762 59.9518C10.5266 59.9706 10.2812 60.0226 10.0476 60.1061ZM9.90019 50.2476C9.66828 50.3257 9.44966 50.434 9.25094 50.5692C9.50148 50.5501 9.74779 50.4982 9.98241 50.4149C10.219 50.3362 10.4424 50.227 10.6458 50.0907C10.3903 50.1093 10.1392 50.1622 9.90019 50.2476ZM18.5474 61.411C18.3102 61.4893 18.086 61.5975 17.8811 61.7327C18.1317 61.7139 18.378 61.6619 18.6126 61.5784C18.8498 61.5022 19.0734 61.3938 19.276 61.2567C19.0263 61.2755 18.7809 61.3275 18.5474 61.411ZM15.6357 55.2579C15.3985 55.3362 15.1743 55.4444 14.9694 55.5795C15.22 55.5608 15.4663 55.5088 15.7009 55.4253C15.9381 55.3491 16.1618 55.2407 16.3643 55.1036C16.1146 55.1224 15.8692 55.1744 15.6357 55.2579ZM18.3829 46.9971C18.1469 47.0759 17.9237 47.1842 17.7195 47.3187C18.2229 47.2773 18.7053 47.113 19.1172 46.8428C18.8657 46.8616 18.6184 46.9136 18.3829 46.9971Z" fill="black"/>
<path d="M16.9456 48.1945C19.0692 51.9052 23.3899 58.6545 26.5851 59.1775C29.9646 59.7215 34.8297 56.7273 36.8738 55.8513C37.7244 55.4799 33.6729 50.2499 32.6693 50.4304C31.6657 50.6108 28.4875 52.6348 27.7248 52.6374C26.9622 52.64 22.6528 48.3227 19.5965 45.977C15.9987 43.2077 15.2219 45.182 16.9456 48.1945Z" fill="#EB9481"/>
<path d="M37.4154 45.5012C37.6313 45.5707 37.8194 45.6988 37.955 45.8686C38.0906 46.0385 38.1674 46.2422 38.1752 46.4531C38.5522 46.3579 38.9534 46.3875 39.3092 46.5367C39.9188 46.827 39.6948 47.8442 39.6948 47.8442C40.1057 47.8207 40.5147 47.9118 40.8686 48.1057C41.4214 48.4352 41.3534 49.4838 41.3534 49.4838C41.7438 49.6559 42.0539 49.9521 42.2266 50.318C42.649 51.3091 41.5944 52.6166 40.9366 53.456C40.2789 54.2955 36.752 56.1338 36.2303 56.1338L31.2688 51.5628C31.2688 51.5628 32.0711 49.0288 33.9338 47.2114C34.705 46.4583 36.5733 45.2737 37.4154 45.5012Z" fill="#EB9481"/>
<path d="M38.0506 46.432C37.013 47.0387 36.2276 47.8964 35.3913 48.7097C35.3714 48.728 35.3913 48.7541 35.4224 48.7358C36.2446 47.9173 37.2313 47.261 38.0875 46.4739C38.113 46.4529 38.079 46.4163 38.0506 46.432Z" fill="#263238"/>
<path d="M39.5873 47.8075C39.3667 47.9665 39.1695 48.151 39.0004 48.3567C38.8048 48.5659 38.6176 48.7751 38.4334 48.9895C38.0553 49.4149 37.6953 49.8507 37.3532 50.297C37.339 50.3153 37.3532 50.3441 37.3844 50.3232C37.7558 49.8969 38.1328 49.4785 38.5184 49.068C38.714 48.8614 38.9125 48.6574 39.111 48.4561C39.3115 48.2757 39.4902 48.0758 39.644 47.8598C39.6477 47.8525 39.649 47.8443 39.6475 47.8363C39.646 47.8283 39.6419 47.8209 39.6357 47.8152C39.6294 47.8095 39.6214 47.8056 39.6128 47.8043C39.6041 47.8029 39.5952 47.804 39.5873 47.8075Z" fill="#263238"/>
<path d="M41.3307 49.5021C41.1338 49.6494 40.9652 49.8262 40.8317 50.0251L40.3327 50.6161C39.9982 51.0083 39.6636 51.4006 39.3121 51.7823C39.295 51.8007 39.3262 51.8294 39.3432 51.8085C39.7005 51.4241 40.0634 51.0423 40.4178 50.6527C40.5907 50.4618 40.7636 50.2709 40.9338 50.0774C41.1089 49.9166 41.2511 49.7279 41.3533 49.5204C41.356 49.5176 41.3573 49.514 41.357 49.5103C41.3568 49.5066 41.3549 49.5032 41.3519 49.5008C41.3489 49.4983 41.345 49.4971 41.341 49.4973C41.337 49.4976 41.3333 49.4993 41.3307 49.5021Z" fill="#263238"/>
<path d="M31.1414 50.849L35.0454 57.648C35.0454 57.648 28.6408 60.5794 25.457 59.1725C22.2731 57.7657 17.8333 50.781 16.4582 47.6508C15.0832 44.5207 16.6397 43.4956 19.4862 45.7209C22.3326 47.9463 27.3452 52.2166 27.5493 52.3108C27.7534 52.4049 31.1414 50.849 31.1414 50.849Z" fill="#F09219"/>
<path opacity="0.1" d="M18.3831 46.9971C18.1472 47.0759 17.924 47.1841 17.7197 47.3187C18.2232 47.2772 18.7056 47.113 19.1174 46.8428C18.8659 46.8616 18.6187 46.9135 18.3831 46.9971ZM27.4726 56.7249C27.2349 56.8021 27.0106 56.9104 26.8063 57.0465C27.3099 57.0036 27.7921 56.8385 28.2041 56.568C27.9533 56.5876 27.707 56.6405 27.4726 56.7249ZM31.5297 51.5158C31.4276 51.5393 31.3312 51.5707 31.2462 51.6021C31.0085 51.6793 30.7841 51.7876 30.5799 51.9237C30.8314 51.9049 31.0787 51.853 31.3142 51.7694C31.4176 51.7334 31.5188 51.6923 31.6176 51.6465L31.5297 51.5158ZM23.9627 51.7773C23.8773 51.5588 23.7599 51.352 23.614 51.1628C23.6612 51.6266 23.8391 52.0711 24.13 52.452C24.1096 52.2208 24.0533 51.9936 23.9627 51.7773ZM25.1761 58.8012C25.0906 58.5835 24.9733 58.3776 24.8274 58.1893C24.8481 58.4204 24.9044 58.6475 24.9947 58.8639L25.0372 58.9607C25.1166 59.0052 25.196 59.047 25.2725 59.0836C25.2442 58.9921 25.2102 58.9006 25.1761 58.8064V58.8012ZM30.5629 54.7741C30.478 54.5562 30.3606 54.3502 30.2142 54.1622C30.2349 54.3933 30.2912 54.6204 30.3814 54.8368C30.4663 55.0547 30.5837 55.2607 30.7302 55.4487C30.7065 55.219 30.6473 54.9936 30.5544 54.7793L30.5629 54.7741ZM23.7586 55.5115C23.5312 55.4124 23.2897 55.3437 23.0413 55.3075C23.2343 55.4565 23.449 55.5798 23.6792 55.6736C23.9064 55.7736 24.1479 55.8432 24.3965 55.8802C24.1962 55.7306 23.9738 55.6082 23.7359 55.5167L23.7586 55.5115ZM34.5321 56.6987C34.43 56.6412 34.3251 56.5915 34.2174 56.5418C33.9899 56.4435 33.7484 56.3757 33.5001 56.3405C33.6938 56.4886 33.9084 56.6117 34.138 56.7066C34.2973 56.7739 34.4623 56.829 34.6313 56.8713L34.5321 56.6987ZM20.0389 50.2449C19.8133 50.1433 19.5725 50.0737 19.3244 50.0383C19.5152 50.1894 19.7292 50.3137 19.9595 50.407C20.187 50.5058 20.4285 50.5745 20.6768 50.611C20.475 50.46 20.2493 50.3383 20.0077 50.2501L20.0389 50.2449ZM21.0368 53.9347C20.9293 54.1444 20.8549 54.3671 20.8157 54.5963C20.9786 54.4196 21.1133 54.2224 21.2154 54.0105C21.3222 53.8005 21.3966 53.5778 21.4366 53.3489C21.2622 53.5253 21.117 53.7244 21.0056 53.9399L21.0368 53.9347ZM27.4839 53.6889C27.3743 53.898 27.2988 54.1209 27.26 54.3504C27.5825 53.9924 27.7967 53.5621 27.8809 53.1031C27.7063 53.2788 27.5619 53.4781 27.4527 53.6941L27.4839 53.6889ZM30.149 58.2468C30.0426 58.4571 29.9673 58.6796 29.925 58.9084C30.0899 58.7331 30.2247 58.5356 30.3247 58.3226C30.4334 58.1134 30.5079 57.8904 30.5459 57.661C30.3747 57.8392 30.2307 58.038 30.1178 58.252L30.149 58.2468Z" fill="black"/>
<path d="M31.4503 54.7636C31.1894 54.272 30.9144 53.7856 30.6422 53.3018C30.509 53.0664 30.3814 52.8337 30.2396 52.6036C30.0979 52.3735 29.9561 52.0937 29.7889 51.8583C29.7889 51.84 29.752 51.8583 29.7577 51.8714C29.8597 52.1329 30.0072 52.3944 30.1262 52.6559C30.2453 52.9174 30.3616 53.1344 30.4835 53.3724C30.733 53.8666 30.9853 54.3635 31.249 54.8525C31.7791 55.8357 32.3348 56.8007 32.9075 57.7604C32.9084 57.7634 32.9099 57.7662 32.9121 57.7686C32.9143 57.771 32.917 57.7729 32.9201 57.7741C32.9232 57.7754 32.9265 57.7761 32.9299 57.776C32.9333 57.776 32.9366 57.7752 32.9396 57.7738C32.9426 57.7724 32.9453 57.7704 32.9473 57.768C32.9494 57.7655 32.9509 57.7627 32.9516 57.7596C32.9523 57.7566 32.9523 57.7534 32.9516 57.7504C32.9508 57.7473 32.9493 57.7445 32.9472 57.7421C32.4681 56.7457 31.9748 55.7468 31.4503 54.7636Z" fill="#263238"/>
<path d="M20.3395 54.1307C19.9681 53.5632 18.5789 51.2855 18.3294 50.8619C17.8276 50.0042 17.3343 49.1412 16.8324 48.2861H16.8154C17.0451 48.8327 17.3002 49.3687 17.5752 49.897L17.4987 49.7976C17.3371 49.5962 17.167 49.4001 16.9969 49.204C16.9969 49.1909 16.9657 49.204 16.9742 49.2197C17.1273 49.4341 17.2747 49.6486 17.4363 49.8578C17.5384 49.9885 17.649 50.1193 17.7539 50.2422C17.8786 50.4723 18.0062 50.6972 18.1366 50.9247C18.3889 51.3588 19.7611 53.639 20.3026 54.1437C20.3225 54.1725 20.3537 54.1542 20.3395 54.1307Z" fill="#263238"/>
<path d="M24.334 41.0372C25.468 40.8541 27.0387 40.0644 27.8836 40.1821C28.0925 40.2043 28.288 40.2881 28.4412 40.4209C28.5944 40.5537 28.6971 40.7286 28.7341 40.9195C28.7341 40.9195 29.3664 40.2684 30.1148 40.4932C30.5004 40.6083 30.6393 41.2777 30.6393 41.2777C30.7916 41.1385 30.9823 41.0405 31.1908 40.9944C31.3992 40.9483 31.6174 40.9558 31.8216 41.0162C32.3404 41.2045 32.3886 41.8452 32.3886 41.8452C32.3886 41.8452 33.1399 41.5837 33.602 41.9315C34.5405 42.6376 33.2703 46.9 31.3736 47.1249C30.4891 47.2295 30.8605 46.2044 30.8605 46.2044C30.8605 46.2044 29.939 47.559 28.9808 47.3393C28.0225 47.1197 28.5924 45.8148 28.5924 45.8148C28.5924 45.8148 27.688 47.1223 26.7183 46.8006C25.7487 46.479 26.5454 45.2395 26.5454 45.2395C26.5454 45.2395 25.5673 46.0083 24.884 45.6082C23.7499 44.944 25.8423 43.5423 25.8791 42.546L24.3595 41.6046L24.334 41.0372Z" fill="#EB9481"/>
<path d="M26.0437 40.5535C24.955 40.6398 24.0591 39.2041 23.0157 39.1492C21.5982 39.076 22.4941 40.8097 24.3539 41.6152L25.9189 42.0074L26.0437 40.5535Z" fill="#EB9481"/>
<path d="M30.6563 41.2572C30.6563 41.2389 30.6904 41.2441 30.6904 41.2572C30.6231 42.9701 29.8941 44.6043 28.6349 45.8648C28.5895 45.9067 28.5045 45.9041 28.5527 45.8648C29.3635 44.9784 30.3757 42.6615 30.6563 41.2572Z" fill="#263238"/>
<path d="M26.4121 45.3126C27.6312 44.0679 28.2946 42.5904 28.7397 40.9822C28.7397 40.9613 28.7766 40.9822 28.7766 40.9822C28.7766 41.8242 28.391 42.8127 28.0082 43.5737C27.6688 44.2784 27.135 44.8888 26.4603 45.344C26.4319 45.3702 26.3865 45.3388 26.4121 45.3126Z" fill="#263238"/>
<path d="M17.6403 44.4342C16.4609 43.4458 12.7979 42.2899 11.0373 42.8652C8.81453 43.6053 5.21674 50.0277 5.883 50.6109C7.07376 51.6569 12.9425 48.7804 14.4281 47.3997C15.9137 46.0189 17.6403 44.4342 17.6403 44.4342Z" fill="#F09219"/>
<path opacity="0.1" d="M12.2223 42.7161C12.1088 42.768 12.0006 42.8292 11.8991 42.8991C12.1488 42.8803 12.3942 42.8284 12.6277 42.7448H12.6589C12.5115 42.7213 12.3697 42.7161 12.2223 42.7161ZM9.54877 44.2851C9.51474 44.2066 9.48072 44.1282 9.44103 44.0523L9.31061 44.1909C9.32762 44.2432 9.34747 44.2955 9.36732 44.3478C9.45166 44.566 9.56906 44.772 9.71604 44.9597C9.6954 44.7295 9.63907 44.5032 9.54877 44.2877V44.2851ZM15.1425 44.9284C15.0588 44.71 14.9413 44.5039 14.7938 44.3164C14.8141 44.5467 14.8705 44.7731 14.961 44.9885C15.0447 45.2077 15.1622 45.4147 15.3098 45.603C15.2891 45.3728 15.2328 45.1465 15.1425 44.931V44.9284ZM7.69459 47.8545C7.46724 47.7554 7.22571 47.6867 6.97729 47.6506C7.16877 47.8009 7.38264 47.925 7.61237 48.0193C7.84001 48.1177 8.08143 48.1864 8.32966 48.2233C8.13818 48.073 7.92431 47.9488 7.69459 47.8545ZM11.2782 46.4921C11.1695 46.7014 11.095 46.9243 11.0571 47.1537C11.2182 46.9755 11.3518 46.7775 11.454 46.5654C11.5628 46.3568 11.6382 46.1349 11.678 45.9064C11.5159 46.0798 11.3813 46.2735 11.2782 46.4817V46.4921Z" fill="black"/>
<path d="M16.118 46.2518C15.8089 46.4322 15.4942 46.6074 15.188 46.7905C15.6388 46.393 16.0925 46.006 16.5291 45.5876C16.5291 45.5719 16.5291 45.5484 16.5036 45.5614C15.9461 45.9526 15.4123 46.3716 14.9045 46.8166C14.3659 47.2507 13.8272 47.6874 13.2687 48.098C12.7167 48.5132 12.132 48.8899 11.5194 49.225C10.8649 49.564 10.1846 49.8585 9.48375 50.1063C9.08683 50.2475 8.68991 50.3835 8.29016 50.5116C7.86024 50.6477 7.41945 50.7526 6.97182 50.8254C6.88677 50.8254 6.93213 50.8699 6.97182 50.8673C7.34836 50.83 7.72038 50.7608 8.08319 50.6607C8.46027 50.5613 8.84018 50.4619 9.21725 50.3573C9.93961 50.1674 10.6433 49.9216 11.3209 49.6225C12.6393 49.0185 13.728 48.1267 14.7684 47.1801L14.828 47.1252C15.0123 47.0154 15.1937 46.9003 15.3695 46.78C15.6275 46.6048 15.8883 46.4427 16.1605 46.2858C16.1662 46.2858 16.1435 46.2387 16.118 46.2518Z" fill="#263238"/>
<path d="M99.4084 91.8127C99.4084 91.8127 100.659 95.6568 102.142 99.5819C103.624 103.507 104.945 112.524 104.668 112.756C104.39 112.989 101.11 104.224 100.146 100.22C99.1816 96.2164 98.5154 92.1135 98.5154 92.1135L99.4084 91.8127Z" fill="#F09219"/>
<path d="M99.4284 91.7158L100.421 94.3256L98.8443 94.6786L98.3708 91.9904L99.4284 91.7158Z" fill="#DBDBDB"/>
<path d="M99.431 91.7161C99.5416 91.3852 99.5654 91.0348 99.5004 90.6938C99.4353 90.3528 99.2832 90.0309 99.0567 89.7548C98.3678 88.8474 98.5691 88.1414 98.5691 88.1414C98.5691 88.1414 96.7943 90.2334 98.3706 91.9906L99.431 91.7161Z" fill="#455A64"/>
<path d="M98.5834 88.0367C98.6741 88.1701 98.4898 88.8212 98.8216 89.3442C99.1533 89.8672 97.5259 90.6308 97.6591 89.8541C97.8122 88.9755 98.419 87.7935 98.5834 88.0367Z" fill="#F09219"/>
<path d="M107.183 94.0615C107.183 94.0615 105.975 97.1734 104.571 100.338C103.168 103.502 101.66 110.868 101.875 111.059C102.091 111.25 105.212 104.184 106.182 100.929C107.151 97.6728 107.914 94.3361 107.914 94.3361L107.183 94.0615Z" fill="#A6A6A6"/>
<path d="M107.171 93.9805L106.233 96.0882L107.511 96.4438L108.027 94.2498L107.171 93.9805Z" fill="#DBDBDB"/>
<path d="M107.168 93.983C107.304 92.2466 108.798 90.845 108.798 90.845C108.798 90.845 109.405 92.8821 108.027 94.2602L107.168 93.983Z" fill="#455A64"/>
<path d="M103.468 89.9822C103.468 89.9822 103.945 93.2588 104.602 96.6269C105.26 99.995 105.065 107.487 104.807 107.644C104.549 107.801 103.105 100.277 102.89 96.9067C102.675 93.536 102.703 90.1077 102.703 90.1077L103.468 89.9822Z" fill="#37474F"/>
<path d="M103.497 89.9062L103.939 92.1473L102.606 92.2467L102.598 90.003L103.497 89.9062Z" fill="#DBDBDB"/>
<path d="M102.598 90.0032C102.598 90.0032 103.449 89.9248 103.497 89.9065C103.761 89.1404 103.972 88.3596 104.129 87.5686C104.078 87.5059 101.26 87.872 101.274 88.1152C101.288 88.3584 102.598 90.0032 102.598 90.0032Z" fill="#455A64"/>
<path d="M106.584 102.388H99.1305C98.4446 102.388 97.8887 102.9 97.8887 103.533V112.782C97.8887 113.415 98.4446 113.928 99.1305 113.928H106.584C107.27 113.928 107.826 113.415 107.826 112.782V103.533C107.826 102.9 107.27 102.388 106.584 102.388Z" fill="#455A64"/>
<path d="M106.57 100.565H99.1418V102.388H106.57V100.565Z" fill="#455A64"/>
</svg>
