<svg width="120" height="120" viewBox="0 0 120 120" fill="none" xmlns="http://www.w3.org/2000/svg">
<path d="M16.0059 7.14844H5.8252V10.1982H16.0059V7.14844Z" fill="#EBEBEB"/>
<path d="M114.397 34.46H103.927V31.1377H114.397V34.46ZM104.217 34.1874H114.108V31.4102H104.217V34.1874Z" fill="#EBEBEB"/>
<path d="M10.3284 3.30331C8.63741 3.33056 4.30278 3.3987 2.66969 3.41777H0.147672L0.280867 3.29241V6.34215L0.13609 6.20588C1.82709 6.20588 6.13855 6.22768 7.77164 6.24948L10.3168 6.27946L10.2473 6.34215L10.3168 3.29241L10.3284 3.30331ZM10.3284 3.30331L10.395 6.35305V6.41846H10.3255C9.05436 6.43481 6.50339 6.46206 5.23514 6.47024L0.144777 6.48932H0V6.35305V3.30331V3.18066H0.130299H2.69865C4.32015 3.19702 8.63451 3.26515 10.311 3.29241L10.3284 3.30331Z" fill="#EBEBEB"/>
<path d="M27.3426 76.0226C25.6516 76.0498 21.314 76.118 19.6838 76.1371H17.1618L17.2921 76.0117V79.0614L17.1474 78.9251C18.8384 78.9251 23.1498 78.947 24.7829 78.9688L27.3281 78.9987L27.2586 79.0614L27.3281 76.0117L27.3426 76.0226ZM27.3426 76.0226L27.4092 79.0723V79.1377H27.3397C26.0685 79.1541 23.5175 79.1813 22.2493 79.1922L17.1589 79.2086H17.0142V79.0696V76.0199V75.8972H17.1474H19.7157C21.3372 75.9136 25.6516 75.9844 27.3281 76.009L27.3426 76.0226Z" fill="#EBEBEB"/>
<path d="M21.6614 72.1774C19.9704 72.2046 15.6358 72.2728 14.0056 72.2918H11.4836L11.6139 72.1665V75.2162L11.4691 75.0799C13.1572 75.0799 17.4687 75.1017 19.1018 75.1236L21.647 75.1535L21.5804 75.2162L21.647 72.1665L21.6614 72.1774ZM21.6614 72.1774L21.7309 75.2271V75.2925H21.6585C20.3903 75.3089 17.8393 75.3361 16.5682 75.347L11.4807 75.3634H11.3359V75.2244V72.1746V72.052H11.4691H14.0346C15.659 72.0684 19.9733 72.1392 21.647 72.1637L21.6614 72.1774Z" fill="#EBEBEB"/>
<path d="M16.0059 76.0229H5.8252V79.0727H16.0059V76.0229Z" fill="#EBEBEB"/>
<path d="M119.93 3.30322H109.75V6.35296H119.93V3.30322Z" fill="#EBEBEB"/>
<path d="M114.253 110.129H104.072V113.179H114.253V110.129Z" fill="#EBEBEB"/>
<path d="M119.93 106.283C118.239 106.31 113.905 106.378 112.272 106.397H109.75L109.883 106.272V109.322L109.738 109.185C111.429 109.185 115.741 109.204 117.374 109.229L119.919 109.256L119.849 109.322L119.919 106.272L119.93 106.283ZM119.93 106.283L120 109.332V109.398H119.93C118.659 109.414 116.111 109.441 114.84 109.45L109.75 109.469H109.605V109.341L109.619 106.291V106.166H109.75H112.318C113.94 106.182 118.257 106.25 119.93 106.277V106.283Z" fill="#EBEBEB"/>
<path d="M10.3284 110.129C8.63741 110.156 4.30278 110.224 2.66969 110.241L0.147672 110.254L0.280867 110.129V113.179L0.13609 113.042C1.82709 113.042 6.13855 113.061 7.77164 113.083L10.3168 113.113L10.2473 113.179L10.3168 110.129H10.3284ZM10.3284 110.129L10.395 113.179V113.244H10.3255C9.05436 113.26 6.50339 113.288 5.23514 113.296L0.144777 113.315H0V113.179V110.129V110.003H0.130299H2.69865C4.32015 110.02 8.63451 110.088 10.311 110.115L10.3284 110.129Z" fill="#EBEBEB"/>
<path d="M118.593 2.40723H50.0381V49.0227H118.593V2.40723Z" fill="white"/>
<path d="M119.433 49.8123H49.1987V1.61328H119.433V49.8123ZM50.8781 48.2288H117.765V3.19675H50.8781V48.2288Z" fill="#EBEBEB"/>
<path d="M100.456 37.0843C100.428 37.0847 100.401 37.0781 100.378 37.0652L96.7437 35.092C96.7194 35.0785 96.6992 35.0594 96.6851 35.0365C96.6709 35.0136 96.6631 34.9877 96.6626 34.9612V31.012C96.6628 30.9855 96.6705 30.9594 96.6847 30.9365C96.6989 30.9135 96.7192 30.8945 96.7437 30.8812L100.378 28.9053C100.402 28.8919 100.429 28.8848 100.457 28.8848C100.485 28.8848 100.513 28.8919 100.537 28.9053L104.171 30.8812C104.195 30.8945 104.216 30.9135 104.23 30.9365C104.244 30.9594 104.252 30.9855 104.252 31.012V34.9612C104.251 34.9877 104.244 35.0136 104.229 35.0365C104.215 35.0594 104.195 35.0785 104.171 35.092L100.537 37.0652C100.512 37.0785 100.484 37.0851 100.456 37.0843ZM96.9811 34.8739L100.456 36.7599L103.93 34.8739V31.0992L100.456 29.2105L96.9811 31.0992V34.8739Z" fill="#EBEBEB"/>
<path d="M107.723 37.0842C107.695 37.0847 107.667 37.0781 107.642 37.0651L104.011 35.0919C103.986 35.0788 103.966 35.0598 103.951 35.0368C103.937 35.0139 103.93 34.9877 103.93 34.9611V31.012C103.929 30.9853 103.937 30.959 103.951 30.936C103.965 30.9129 103.986 30.894 104.011 30.8811L107.642 28.9052C107.666 28.8918 107.694 28.8848 107.723 28.8848C107.751 28.8848 107.779 28.8918 107.804 28.9052L111.435 30.8811C111.46 30.894 111.48 30.9129 111.495 30.936C111.509 30.959 111.516 30.9853 111.516 31.012V34.9611C111.516 34.9877 111.509 35.0139 111.494 35.0368C111.48 35.0598 111.46 35.0788 111.435 35.0919L107.816 37.0651C107.787 37.0802 107.755 37.0868 107.723 37.0842ZM104.248 34.8739L107.723 36.7599L111.198 34.8739V31.0992L107.723 29.2105L104.248 31.0992V34.8739Z" fill="#EBEBEB"/>
<path d="M107.723 29.1893C107.702 29.1894 107.681 29.1854 107.661 29.1777C107.642 29.17 107.624 29.1587 107.609 29.1445C107.594 29.1303 107.583 29.1134 107.575 29.0949C107.567 29.0764 107.563 29.0566 107.564 29.0367V26.6929C107.564 26.6531 107.58 26.615 107.61 26.5869C107.64 26.5588 107.681 26.543 107.723 26.543C107.765 26.543 107.806 26.5588 107.835 26.5869C107.865 26.615 107.882 26.6531 107.882 26.6929V29.0367C107.882 29.0566 107.879 29.0764 107.871 29.0949C107.863 29.1134 107.851 29.1303 107.836 29.1445C107.822 29.1587 107.804 29.17 107.784 29.1777C107.765 29.1854 107.744 29.1894 107.723 29.1893Z" fill="#EBEBEB"/>
<path d="M111.357 31.1628C111.328 31.1634 111.299 31.1563 111.274 31.1423C111.249 31.1284 111.229 31.1081 111.215 31.0838C111.195 31.0486 111.191 31.0076 111.203 30.9694C111.215 30.9312 111.242 30.8989 111.279 30.8794L113.393 29.7892C113.411 29.7796 113.431 29.7736 113.452 29.7714C113.473 29.7692 113.494 29.771 113.514 29.7766C113.535 29.7821 113.553 29.7914 113.57 29.8039C113.586 29.8164 113.6 29.8317 113.61 29.8492C113.62 29.8665 113.626 29.8856 113.629 29.9053C113.631 29.9249 113.629 29.9449 113.623 29.9639C113.617 29.9829 113.607 30.0006 113.594 30.016C113.581 30.0314 113.565 30.0442 113.546 30.0536L111.432 31.1437C111.41 31.1567 111.384 31.1634 111.357 31.1628Z" fill="#EBEBEB"/>
<path d="M97.4845 34.6644C97.442 34.6637 97.4015 34.6473 97.3717 34.6188C97.3419 34.5902 97.3252 34.5518 97.3252 34.5118V31.5029C97.3252 31.4632 97.342 31.425 97.3718 31.3969C97.4017 31.3688 97.4422 31.353 97.4845 31.353C97.5267 31.353 97.5672 31.3688 97.5971 31.3969C97.6269 31.425 97.6437 31.4632 97.6437 31.5029V34.5172C97.6429 34.5565 97.6258 34.5939 97.5961 34.6215C97.5663 34.649 97.5262 34.6644 97.4845 34.6644Z" fill="#EBEBEB"/>
<path d="M104.983 34.6644C104.962 34.6644 104.941 34.6604 104.922 34.6527C104.902 34.645 104.885 34.6338 104.87 34.6195C104.855 34.6053 104.843 34.5885 104.836 34.57C104.828 34.5515 104.824 34.5317 104.824 34.5118V31.5029C104.824 31.4632 104.841 31.425 104.871 31.3969C104.901 31.3688 104.941 31.353 104.983 31.353C105.026 31.353 105.066 31.3688 105.096 31.3969C105.126 31.425 105.143 31.4632 105.143 31.5029V34.5172C105.142 34.5565 105.125 34.5939 105.095 34.6215C105.065 34.649 105.025 34.6644 104.983 34.6644Z" fill="#EBEBEB"/>
<path d="M103.351 31.4924C103.322 31.4932 103.294 31.4856 103.27 31.4706L100.502 29.9553C100.465 29.9353 100.439 29.9026 100.428 29.8643C100.417 29.826 100.423 29.7852 100.444 29.7509C100.454 29.7333 100.468 29.7178 100.484 29.7054C100.501 29.693 100.521 29.684 100.541 29.6789C100.562 29.6738 100.583 29.6727 100.604 29.6757C100.625 29.6787 100.646 29.6857 100.664 29.6964L103.432 31.2117C103.468 31.2316 103.495 31.2643 103.506 31.3026C103.516 31.3409 103.511 31.3817 103.49 31.4161C103.476 31.4391 103.455 31.4582 103.431 31.4716C103.407 31.485 103.379 31.4922 103.351 31.4924Z" fill="#EBEBEB"/>
<path d="M110.569 31.4924C110.54 31.4932 110.512 31.4856 110.488 31.4706L107.719 29.9552C107.701 29.9456 107.685 29.9327 107.672 29.9171C107.659 29.9015 107.65 29.8837 107.644 29.8646C107.639 29.8455 107.638 29.8256 107.641 29.8061C107.644 29.7865 107.651 29.7678 107.662 29.7508C107.672 29.7336 107.686 29.7185 107.702 29.7063C107.719 29.6942 107.738 29.6853 107.758 29.6803C107.778 29.6752 107.799 29.674 107.82 29.6767C107.841 29.6795 107.861 29.6862 107.879 29.6963L110.647 31.2117C110.674 31.2293 110.694 31.2543 110.706 31.2834C110.717 31.3124 110.718 31.344 110.71 31.3739C110.701 31.4037 110.683 31.4303 110.658 31.4501C110.633 31.4698 110.601 31.4817 110.569 31.4842V31.4924Z" fill="#EBEBEB"/>
<path d="M89.1301 28.426C89.1018 28.4262 89.0739 28.4196 89.049 28.407L85.418 26.4338C85.3937 26.4203 85.3736 26.4012 85.3594 26.3783C85.3452 26.3554 85.3374 26.3294 85.3369 26.3029V22.3538C85.3372 22.3272 85.3448 22.3012 85.359 22.2783C85.3732 22.2553 85.3935 22.2363 85.418 22.223L89.049 20.2471C89.0741 20.2349 89.1019 20.2285 89.1301 20.2285C89.1583 20.2285 89.1861 20.2349 89.2112 20.2471L92.8451 22.223C92.8692 22.2364 92.8891 22.2556 92.9028 22.2785C92.9165 22.3015 92.9236 22.3275 92.9232 22.3538V26.3029C92.9233 26.3292 92.9161 26.3551 92.9024 26.378C92.8887 26.4009 92.869 26.4201 92.8451 26.4338L89.2112 28.3961C89.1876 28.4129 89.1595 28.4233 89.1301 28.426ZM85.6554 26.2157L89.1301 28.1017L92.6047 26.2157V22.441L89.1301 20.5523L85.6554 22.441V26.2157Z" fill="#EBEBEB"/>
<path d="M89.1302 20.5303C89.0877 20.5296 89.0472 20.5132 89.0174 20.4847C88.9876 20.4561 88.9709 20.4177 88.9709 20.3777V18.0393C88.9709 17.9995 88.9877 17.9614 89.0176 17.9333C89.0475 17.9052 89.088 17.8894 89.1302 17.8894C89.1714 17.8908 89.2105 17.9072 89.2391 17.9352C89.2677 17.9632 89.2837 18.0005 89.2837 18.0393V20.3832C89.2829 20.4215 89.2666 20.4582 89.2381 20.4855C89.2095 20.5129 89.1709 20.5289 89.1302 20.5303Z" fill="#EBEBEB"/>
<path d="M96.0333 20.0021C95.9911 20.0021 95.9506 19.9863 95.9207 19.9582C95.8908 19.9301 95.8741 19.8919 95.8741 19.8522V17.5083C95.8737 17.4885 95.8775 17.4689 95.8854 17.4505C95.8932 17.4322 95.9049 17.4155 95.9198 17.4015C95.9347 17.3875 95.9524 17.3765 95.9719 17.3691C95.9914 17.3617 96.0123 17.3581 96.0333 17.3584C96.0755 17.3584 96.116 17.3742 96.1459 17.4023C96.1758 17.4304 96.1926 17.4686 96.1926 17.5083V19.8522C96.1926 19.8919 96.1758 19.9301 96.1459 19.9582C96.116 19.9863 96.0755 20.0021 96.0333 20.0021Z" fill="#EBEBEB"/>
<path d="M92.7589 22.5032C92.7298 22.5037 92.7011 22.4966 92.676 22.4827C92.6509 22.4687 92.6305 22.4484 92.617 22.4241C92.598 22.3888 92.594 22.348 92.6058 22.31C92.6176 22.272 92.6444 22.2397 92.6807 22.2197L94.7945 21.1295C94.8129 21.12 94.8331 21.1139 94.8541 21.1117C94.875 21.1096 94.8961 21.1113 94.9163 21.1169C94.9365 21.1225 94.9553 21.1318 94.9717 21.1442C94.9881 21.1567 95.0016 21.1721 95.0116 21.1895C95.0218 21.2068 95.0282 21.2259 95.0306 21.2456C95.0329 21.2653 95.031 21.2852 95.0251 21.3042C95.0192 21.3232 95.0093 21.3409 94.996 21.3563C94.9828 21.3717 94.9665 21.3845 94.9479 21.3939L92.8342 22.4841C92.8115 22.4971 92.7854 22.5037 92.7589 22.5032Z" fill="#EBEBEB"/>
<path d="M99.2563 22.5032C99.2297 22.5037 99.2036 22.4971 99.181 22.4841L97.0672 21.3939C97.0487 21.3845 97.0324 21.3717 97.0191 21.3563C97.0059 21.3409 96.996 21.3232 96.9901 21.3042C96.9842 21.2852 96.9823 21.2653 96.9846 21.2456C96.9869 21.2259 96.9933 21.2068 97.0035 21.1895C97.0135 21.1721 97.0271 21.1567 97.0434 21.1442C97.0598 21.1318 97.0786 21.1225 97.0988 21.1169C97.119 21.1113 97.1402 21.1096 97.1611 21.1117C97.182 21.1139 97.2023 21.12 97.2207 21.1295L99.3344 22.2197C99.3713 22.2392 99.3985 22.2715 99.4104 22.3097C99.4223 22.3479 99.4179 22.389 99.3981 22.4241C99.3847 22.4484 99.3642 22.4687 99.3392 22.4827C99.3141 22.4966 99.2854 22.5037 99.2563 22.5032Z" fill="#EBEBEB"/>
<path d="M92.0699 26.0109C92.0274 26.0102 91.9869 25.9938 91.9571 25.9653C91.9273 25.9367 91.9106 25.8983 91.9106 25.8583V22.844C91.9106 22.8042 91.9274 22.7661 91.9573 22.738C91.9871 22.7099 92.0277 22.6941 92.0699 22.6941C92.1121 22.6941 92.1526 22.7099 92.1825 22.738C92.2124 22.7661 92.2292 22.8042 92.2292 22.844V25.8583C92.2295 25.8782 92.2257 25.898 92.2179 25.9165C92.21 25.935 92.1984 25.9518 92.1835 25.9661C92.1687 25.9803 92.151 25.9916 92.1315 25.9993C92.112 26.007 92.0911 26.0109 92.0699 26.0109Z" fill="#EBEBEB"/>
<path d="M86.307 22.8334C86.2791 22.8334 86.2516 22.8267 86.2273 22.8138C86.2029 22.8009 86.1825 22.7823 86.168 22.7598C86.1572 22.7427 86.15 22.7237 86.1471 22.7039C86.1441 22.6842 86.1454 22.664 86.1507 22.6448C86.1561 22.6255 86.1656 22.6074 86.1785 22.5916C86.1914 22.5758 86.2075 22.5625 86.226 22.5526L88.9941 21.0373C89.0325 21.0174 89.0777 21.0127 89.1198 21.0242C89.1619 21.0357 89.1974 21.0625 89.2185 21.0986C89.2396 21.1348 89.2446 21.1773 89.2324 21.2169C89.2202 21.2566 89.1917 21.29 89.1533 21.3099L86.3881 22.8143C86.3632 22.827 86.3353 22.8335 86.307 22.8334Z" fill="#EBEBEB"/>
<path d="M68.4074 13.7825C68.3802 13.7816 68.3535 13.7751 68.3292 13.7634L64.6953 11.7875C64.6709 11.7742 64.6506 11.7552 64.6363 11.7322C64.6221 11.7093 64.6145 11.6832 64.6143 11.6567V7.70754C64.6148 7.68104 64.6225 7.6551 64.6367 7.6322C64.6509 7.6093 64.6711 7.59021 64.6953 7.57672L68.3292 5.60352C68.3534 5.59009 68.3809 5.58301 68.4089 5.58301C68.4369 5.58301 68.4644 5.59009 68.4885 5.60352L72.1224 7.57672C72.1463 7.59034 72.1661 7.60954 72.1798 7.63246C72.1935 7.65538 72.2006 7.68125 72.2006 7.70754V11.6567C72.2009 11.683 72.1939 11.709 72.1801 11.732C72.1664 11.7549 72.1465 11.7741 72.1224 11.7875L68.4885 13.7634C68.4632 13.7752 68.4356 13.7817 68.4074 13.7825ZM64.9328 11.5695L68.4074 13.4582L71.8821 11.5695V7.79476L68.4074 5.90877L64.9328 7.79476V11.5695Z" fill="#EBEBEB"/>
<path d="M72.0416 7.85977C72.0128 7.85919 71.9845 7.85162 71.9597 7.83777C71.9348 7.82393 71.9142 7.80428 71.8997 7.78074C71.8807 7.74544 71.8767 7.70463 71.8885 7.66664C71.9003 7.62865 71.9272 7.59635 71.9634 7.57633L74.0772 6.48616C74.1148 6.46669 74.1591 6.46206 74.2004 6.4733C74.2417 6.48455 74.2765 6.51074 74.2973 6.54612C74.3163 6.58142 74.3203 6.62223 74.3085 6.66022C74.2966 6.69821 74.2698 6.73052 74.2335 6.75053L72.1198 7.8407C72.0954 7.85207 72.0688 7.85857 72.0416 7.85977Z" fill="#EBEBEB"/>
<path d="M65.5841 11.3654C65.5631 11.3658 65.5422 11.3621 65.5227 11.3547C65.5032 11.3473 65.4855 11.3363 65.4706 11.3223C65.4557 11.3083 65.444 11.2917 65.4362 11.2733C65.4283 11.2549 65.4244 11.2353 65.4248 11.2155V8.20119C65.4244 8.18141 65.4283 8.16175 65.4362 8.14339C65.444 8.12504 65.4557 8.10837 65.4706 8.09438C65.4855 8.08038 65.5032 8.06935 65.5227 8.06195C65.5422 8.05455 65.5631 8.05093 65.5841 8.0513C65.6263 8.0513 65.6668 8.06709 65.6967 8.0952C65.7266 8.12331 65.7433 8.16144 65.7433 8.20119V11.2264C65.7404 11.2642 65.7223 11.2996 65.6928 11.3254C65.6632 11.3512 65.6244 11.3655 65.5841 11.3654Z" fill="#EBEBEB"/>
<path d="M71.3312 8.18989C71.3036 8.18939 71.2766 8.18185 71.2531 8.16808L68.4849 6.65275C68.4662 6.64316 68.4498 6.63007 68.4366 6.61428C68.4235 6.5985 68.4139 6.58035 68.4085 6.56095C68.403 6.54155 68.4019 6.52131 68.4051 6.50148C68.4083 6.48165 68.4157 6.46264 68.427 6.44562C68.4482 6.41135 68.4829 6.38637 68.5236 6.37616C68.5643 6.36594 68.6077 6.37132 68.6442 6.39111L71.4123 7.90644C71.4489 7.9269 71.4755 7.96009 71.4863 7.99884C71.4972 8.0376 71.4914 8.07881 71.4702 8.11357C71.4563 8.13676 71.4361 8.15605 71.4117 8.16947C71.3873 8.18288 71.3595 8.18993 71.3312 8.18989Z" fill="#EBEBEB"/>
<path d="M68.5641 13.036C68.5313 13.0335 68.5002 13.0216 68.475 13.0018C68.4497 12.9821 68.4315 12.9555 68.423 12.9256C68.4144 12.8958 68.4159 12.8642 68.4271 12.8351C68.4384 12.8061 68.4589 12.7811 68.4859 12.7634L71.254 11.2481C71.272 11.2379 71.292 11.2313 71.3127 11.2285C71.3335 11.2257 71.3546 11.2269 71.3749 11.232C71.3952 11.2371 71.4141 11.246 71.4307 11.2581C71.4472 11.2702 71.461 11.2854 71.4712 11.3026C71.4924 11.3374 71.4982 11.3786 71.4873 11.4173C71.4765 11.4561 71.4499 11.4893 71.4133 11.5097L68.6451 13.0251C68.6196 13.0353 68.5916 13.039 68.5641 13.036Z" fill="#EBEBEB"/>
<path d="M108.32 17.178C108.291 17.1775 108.263 17.17 108.238 17.1562L104.605 15.183C104.58 15.1696 104.561 15.1504 104.547 15.1275C104.533 15.1045 104.526 15.0785 104.526 15.0522V11.1031C104.526 11.0767 104.533 11.0507 104.547 11.0278C104.561 11.0048 104.58 10.9856 104.605 10.9722L108.238 8.99903C108.263 8.9856 108.29 8.97852 108.318 8.97852C108.346 8.97852 108.374 8.9856 108.398 8.99903L112.032 10.9722C112.056 10.9855 112.076 11.0046 112.091 11.0275C112.105 11.0505 112.112 11.0765 112.113 11.1031V15.0413C112.112 15.0678 112.105 15.0939 112.091 15.1168C112.076 15.1398 112.056 15.1588 112.032 15.1721L108.395 17.1562C108.372 17.1695 108.346 17.177 108.32 17.178ZM104.845 14.965L108.32 16.8537L111.794 14.965V11.1903L108.32 9.30428L104.845 11.1903V14.965Z" fill="#EBEBEB"/>
<path d="M111.95 11.2537C111.918 11.2508 111.887 11.2385 111.862 11.2186C111.837 11.1986 111.819 11.172 111.811 11.1422C111.803 11.1125 111.805 11.0811 111.816 11.0523C111.828 11.0235 111.848 10.9986 111.875 10.9812L113.989 9.891C114.027 9.87185 114.072 9.86784 114.113 9.87985C114.155 9.89186 114.19 9.91891 114.21 9.95505C114.23 9.99119 114.235 10.0335 114.222 10.0726C114.209 10.1117 114.181 10.1444 114.142 10.1635L112.028 11.2537C112.003 11.259 111.976 11.259 111.95 11.2537Z" fill="#EBEBEB"/>
<path d="M105.499 14.769C105.456 14.769 105.416 14.7532 105.386 14.7251C105.356 14.697 105.339 14.6589 105.339 14.6191V11.5966C105.345 11.56 105.364 11.5264 105.393 11.5021C105.423 11.4778 105.461 11.4644 105.5 11.4644C105.539 11.4644 105.577 11.4778 105.607 11.5021C105.636 11.5264 105.656 11.56 105.661 11.5966V14.6109C105.662 14.6314 105.658 14.6519 105.65 14.671C105.642 14.6902 105.63 14.7076 105.615 14.7224C105.6 14.7372 105.582 14.7489 105.562 14.7569C105.542 14.7649 105.52 14.769 105.499 14.769Z" fill="#EBEBEB"/>
<path d="M111.244 11.5827C111.215 11.5833 111.187 11.5767 111.163 11.5636L108.394 10.0483C108.375 10.0383 108.359 10.0248 108.345 10.0087C108.332 9.99263 108.322 9.97418 108.316 9.95444C108.31 9.9347 108.308 9.91406 108.311 9.89369C108.313 9.87332 108.32 9.85363 108.331 9.83573C108.341 9.81784 108.356 9.80209 108.373 9.78939C108.39 9.77669 108.409 9.76729 108.43 9.76172C108.451 9.75616 108.473 9.75453 108.495 9.75694C108.517 9.75935 108.538 9.76575 108.557 9.77577L111.325 11.2911C111.361 11.312 111.387 11.3452 111.398 11.3838C111.408 11.4223 111.403 11.4633 111.383 11.4982C111.37 11.523 111.35 11.5439 111.326 11.5588C111.301 11.5737 111.273 11.582 111.244 11.5827Z" fill="#EBEBEB"/>
<path d="M108.475 16.4315C108.442 16.4295 108.411 16.418 108.385 16.3984C108.36 16.3788 108.341 16.3523 108.332 16.3223C108.323 16.2924 108.324 16.2606 108.336 16.2313C108.347 16.202 108.367 16.1767 108.394 16.159L111.162 14.6436C111.181 14.6336 111.2 14.627 111.221 14.6243C111.242 14.6215 111.263 14.6226 111.283 14.6276C111.304 14.6325 111.323 14.6412 111.34 14.653C111.356 14.6649 111.37 14.6798 111.381 14.6968C111.392 14.7138 111.399 14.7326 111.402 14.7521C111.405 14.7717 111.403 14.7915 111.398 14.8107C111.393 14.8298 111.384 14.8477 111.371 14.8635C111.358 14.8792 111.343 14.8925 111.325 14.9025L108.556 16.4042C108.532 16.4198 108.504 16.4292 108.475 16.4315Z" fill="#EBEBEB"/>
<path d="M67.7025 20.3957L6.0376 27.8413L16.8268 107.006L78.4917 99.5608L67.7025 20.3957Z" fill="#EBEBEB"/>
<path d="M14.1019 107.334L16.8274 107.005L6.03814 27.8398L3.31261 28.1689L14.1019 107.334Z" fill="#DBDBDB"/>
<path d="M67.7037 20.3947L6.03882 27.8403L7.11572 35.742L68.7806 28.2964L67.7037 20.3947Z" fill="#DBDBDB"/>
<path d="M6.03511 27.8399L3.30957 28.1689L4.38647 36.0706L7.112 35.7415L6.03511 27.8399Z" fill="#A6A6A6"/>
<path d="M4.66508 36.0373L4.52148 36.0547L14.2338 107.318L14.3774 107.301L4.66508 36.0373Z" fill="#C7C7C7"/>
<path d="M4.9959 35.9978L4.85229 36.0151L14.565 107.281L14.7086 107.264L4.9959 35.9978Z" fill="#C7C7C7"/>
<path d="M5.32671 35.9556L5.18311 35.9729L14.8955 107.236L15.0391 107.219L5.32671 35.9556Z" fill="#C7C7C7"/>
<path d="M5.74538 35.7738L5.60205 35.7915L15.5253 106.92L15.6686 106.903L5.74538 35.7738Z" fill="#C7C7C7"/>
<path d="M6.07228 35.7337L5.92896 35.7515L15.8525 106.883L15.9959 106.865L6.07228 35.7337Z" fill="#C7C7C7"/>
<path d="M6.31596 35.8357L6.17236 35.853L15.8851 107.119L16.0287 107.102L6.31596 35.8357Z" fill="#C7C7C7"/>
<path d="M6.64653 35.7961L6.50293 35.8135L16.2153 107.077L16.3589 107.06L6.64653 35.7961Z" fill="#C7C7C7"/>
<path d="M6.9771 35.7566L6.8335 35.7739L16.5462 107.04L16.6898 107.023L6.9771 35.7566Z" fill="#C7C7C7"/>
<path d="M18.0195 59.9479L40.3015 57.1938L40.2405 56.7567L17.9585 59.5108L18.0195 59.9479Z" fill="#C7C7C7"/>
<path d="M18.4342 62.0046L40.7583 59.3091L40.6986 58.8712L18.3745 61.5666L18.4342 62.0046Z" fill="#C7C7C7"/>
<path d="M17.7993 57.368L66.0461 51.5425L65.9865 51.1045L17.7396 56.93L17.7993 57.368Z" fill="#C7C7C7"/>
<path d="M17.1706 52.7352L65.4175 46.9097L65.3578 46.4717L17.1109 52.2972L17.1706 52.7352Z" fill="#C7C7C7"/>
<path d="M16.8557 50.4163L65.1025 44.5908L65.0429 44.1529L16.796 49.9784L16.8557 50.4163Z" fill="#C7C7C7"/>
<path d="M16.2229 45.7845L64.4697 39.959L64.41 39.5211L16.1632 45.3465L16.2229 45.7845Z" fill="#C7C7C7"/>
<path d="M15.905 43.4656L64.1519 37.6401L64.0922 37.2022L15.8453 43.0277L15.905 43.4656Z" fill="#C7C7C7"/>
<path d="M18.7464 64.3205L41.0706 61.625L41.0109 61.1871L18.6867 63.8826L18.7464 64.3205Z" fill="#C7C7C7"/>
<path d="M19.0614 66.6369L41.3855 63.9414L41.3258 63.5035L19.0017 66.199L19.0614 66.6369Z" fill="#C7C7C7"/>
<path d="M19.379 68.9557L41.7031 66.2603L41.6434 65.8223L19.3193 68.5178L19.379 68.9557Z" fill="#C7C7C7"/>
<path d="M19.6939 71.2741L42.0181 68.5786L41.9584 68.1407L19.6343 70.8362L19.6939 71.2741Z" fill="#C7C7C7"/>
<path d="M20.0118 73.5929L42.3359 70.8975L42.2763 70.4595L19.9521 73.155L20.0118 73.5929Z" fill="#C7C7C7"/>
<path d="M20.3258 75.9064L42.6499 73.2109L42.5902 72.773L20.2661 75.4685L20.3258 75.9064Z" fill="#C7C7C7"/>
<path d="M20.6434 78.2248L42.9675 75.5293L42.9078 75.0914L20.5837 77.7868L20.6434 78.2248Z" fill="#C7C7C7"/>
<path d="M20.9583 80.5436L43.2825 77.8481L43.2228 77.4102L20.8987 80.1057L20.9583 80.5436Z" fill="#C7C7C7"/>
<path d="M21.5909 85.1755L43.915 82.48L43.8554 82.0421L21.5312 84.7375L21.5909 85.1755Z" fill="#C7C7C7"/>
<path d="M21.9059 87.4943L44.23 84.7988L44.1703 84.3609L21.8462 87.0564L21.9059 87.4943Z" fill="#C7C7C7"/>
<path d="M44.0406 56.5541L66.3647 53.8586L66.3051 53.4207L43.9809 56.1162L44.0406 56.5541Z" fill="#C7C7C7"/>
<path d="M44.3556 58.8722L66.6797 56.1768L66.62 55.7388L44.2959 58.4343L44.3556 58.8722Z" fill="#C7C7C7"/>
<path d="M44.6729 61.1916L66.9971 58.4961L66.9374 58.0582L44.6133 60.7537L44.6729 61.1916Z" fill="#C7C7C7"/>
<path d="M44.9874 63.5104L67.3115 60.8149L67.2518 60.377L44.9277 63.0725L44.9874 63.5104Z" fill="#C7C7C7"/>
<path d="M45.3058 65.8254L67.6299 63.1299L67.5702 62.6919L45.2461 65.3874L45.3058 65.8254Z" fill="#C7C7C7"/>
<path d="M45.9322 70.4611L68.2563 67.7656L68.1967 67.3277L45.8725 70.0232L45.9322 70.4611Z" fill="#C7C7C7"/>
<path d="M46.2501 72.7773L68.5742 70.0818L68.5145 69.6439L46.1904 72.3393L46.2501 72.7773Z" fill="#C7C7C7"/>
<path d="M46.565 75.0954L68.8892 72.3999L68.8295 71.962L46.5054 74.6575L46.565 75.0954Z" fill="#C7C7C7"/>
<path d="M46.8814 77.4118L69.2056 74.7163L69.1459 74.2784L46.8218 76.9739L46.8814 77.4118Z" fill="#C7C7C7"/>
<path d="M47.1964 79.728L69.5205 77.0325L69.4608 76.5945L47.1367 79.29L47.1964 79.728Z" fill="#C7C7C7"/>
<path d="M47.5143 82.0461L69.8384 79.3506L69.7787 78.9127L47.4546 81.6081L47.5143 82.0461Z" fill="#C7C7C7"/>
<path d="M47.8292 84.3654L70.1533 81.6699L70.0936 81.232L47.7695 83.9275L47.8292 84.3654Z" fill="#C7C7C7"/>
<path opacity="0.1" d="M14.1097 30.304C14.1464 30.5714 14.0979 30.843 13.9705 31.0845C13.8431 31.326 13.6425 31.5265 13.394 31.6606C13.1455 31.7947 12.8603 31.8564 12.5745 31.8379C12.2887 31.8194 12.0152 31.7216 11.7886 31.5567C11.5619 31.3918 11.3923 31.1674 11.3012 30.9117C11.2101 30.6561 11.2017 30.3808 11.2769 30.1206C11.3521 29.8605 11.5076 29.6272 11.7237 29.4502C11.9399 29.2733 12.2069 29.1607 12.4911 29.1266C12.8716 29.0811 13.2557 29.1794 13.5591 29.4002C13.8626 29.6209 14.0606 29.946 14.1097 30.304Z" fill="#13131A"/>
<path d="M13.5427 30.3613C13.563 30.5209 13.5329 30.6826 13.4562 30.8262C13.3794 30.9698 13.2594 31.0889 13.1112 31.1686C12.9629 31.2484 12.793 31.2852 12.6226 31.2746C12.4522 31.2639 12.2889 31.2062 12.1532 31.1087C12.0174 31.0112 11.9152 30.8782 11.8594 30.7263C11.8035 30.5744 11.7964 30.4104 11.839 30.2548C11.8816 30.0991 11.972 29.9588 12.0989 29.8512C12.2257 29.7436 12.3835 29.6737 12.5524 29.65C12.6673 29.6339 12.7844 29.6397 12.8969 29.667C13.0093 29.6942 13.1149 29.7424 13.2072 29.8088C13.2995 29.8751 13.3768 29.9582 13.4344 30.0531C13.492 30.148 13.5288 30.2528 13.5427 30.3613Z" fill="#B46E13"/>
<path opacity="0.1" d="M21.598 29.3885C21.6347 29.6559 21.5862 29.9275 21.4588 30.169C21.3314 30.4105 21.1308 30.611 20.8823 30.7451C20.6338 30.8792 20.3486 30.9409 20.0628 30.9224C19.777 30.9039 19.5035 30.806 19.2768 30.6412C19.0502 30.4763 18.8806 30.2518 18.7895 29.9962C18.6984 29.7406 18.6899 29.4653 18.7652 29.2051C18.8404 28.9449 18.9959 28.7116 19.212 28.5347C19.4282 28.3577 19.6952 28.2451 19.9794 28.2111C20.3598 28.1655 20.744 28.2639 21.0474 28.4847C21.3509 28.7054 21.5489 29.0305 21.598 29.3885Z" fill="#13131A"/>
<path d="M21.0303 29.4565C21.051 29.6166 21.021 29.7788 20.944 29.9229C20.867 30.0669 20.7464 30.1863 20.5975 30.2661C20.4486 30.3458 20.278 30.3823 20.1071 30.371C19.9362 30.3597 19.7727 30.3011 19.6371 30.2026C19.5015 30.104 19.3999 29.9699 19.345 29.8171C19.2902 29.6644 19.2846 29.4998 19.3289 29.344C19.3732 29.1882 19.4654 29.0483 19.594 28.9417C19.7226 28.8352 19.8818 28.7668 20.0516 28.7452C20.1656 28.7307 20.2815 28.7376 20.3926 28.7656C20.5037 28.7936 20.6078 28.8421 20.6989 28.9083C20.7899 28.9745 20.8661 29.057 20.923 29.1511C20.9799 29.2452 21.0163 29.349 21.0303 29.4565Z" fill="#B46E13"/>
<path opacity="0.1" d="M29.086 28.4856C29.1227 28.7531 29.0743 29.0247 28.9469 29.2662C28.8194 29.5077 28.6188 29.7081 28.3703 29.8423C28.1218 29.9764 27.8366 30.0381 27.5508 30.0196C27.2651 30.0011 26.9915 29.9032 26.7649 29.7383C26.5382 29.5735 26.3686 29.349 26.2775 29.0934C26.1864 28.8377 26.178 28.5624 26.2532 28.3023C26.3284 28.0421 26.4839 27.8088 26.7001 27.6319C26.9162 27.4549 27.1833 27.3423 27.4674 27.3083C27.8479 27.2627 28.232 27.3611 28.5355 27.5818C28.8389 27.8026 29.0369 28.1276 29.086 28.4856Z" fill="#13131A"/>
<path d="M28.5214 28.5538C28.5414 28.7137 28.5109 28.8756 28.4335 29.0193C28.3562 29.1629 28.2355 29.2818 28.0867 29.3612C27.9378 29.4405 27.7674 29.4767 27.5967 29.4652C27.4261 29.4537 27.2629 29.3951 27.1275 29.2966C26.9921 29.1981 26.8907 29.0642 26.8359 28.9117C26.781 28.7592 26.7753 28.5948 26.8193 28.4392C26.8633 28.2836 26.9552 28.1437 27.0834 28.0371C27.2115 27.9304 27.3703 27.8618 27.5398 27.8397C27.6542 27.8248 27.7707 27.8316 27.8823 27.8596C27.9939 27.8876 28.0985 27.9362 28.1899 28.0027C28.2813 28.0692 28.3577 28.1522 28.4146 28.2468C28.4715 28.3414 28.5078 28.4458 28.5214 28.5538Z" fill="#B46E13"/>
<path opacity="0.1" d="M36.5848 27.5784C36.6215 27.8458 36.573 28.1175 36.4456 28.3589C36.3182 28.6004 36.1176 28.8009 35.8691 28.935C35.6206 29.0691 35.3354 29.1308 35.0496 29.1123C34.7638 29.0938 34.4903 28.996 34.2636 28.8311C34.037 28.6662 33.8674 28.4418 33.7763 28.1861C33.6852 27.9305 33.6768 27.6552 33.752 27.395C33.8272 27.1349 33.9827 26.9016 34.1988 26.7246C34.415 26.5477 34.682 26.4351 34.9662 26.401C35.3467 26.3555 35.7308 26.4539 36.0342 26.6746C36.3377 26.8953 36.5357 27.2204 36.5848 27.5784Z" fill="#13131A"/>
<path d="M36.0326 27.6466C36.0527 27.8065 36.0221 27.9684 35.9448 28.112C35.8674 28.2557 35.7468 28.3746 35.5979 28.4539C35.449 28.5333 35.2786 28.5695 35.108 28.558C34.9373 28.5465 34.7741 28.4878 34.6387 28.3894C34.5034 28.2909 34.4019 28.157 34.3471 28.0045C34.2923 27.8519 34.2865 27.6876 34.3305 27.532C34.3746 27.3764 34.4664 27.2365 34.5946 27.1298C34.7228 27.0232 34.8816 26.9545 35.051 26.9325C35.1654 26.9176 35.2819 26.9244 35.3935 26.9524C35.5052 26.9803 35.6097 27.029 35.7011 27.0955C35.7925 27.162 35.8689 27.245 35.9258 27.3396C35.9828 27.4342 36.0191 27.5386 36.0326 27.6466Z" fill="#B46E13"/>
<path opacity="0.1" d="M44.1136 26.6712C44.1503 26.9386 44.1018 27.2102 43.9744 27.4517C43.847 27.6932 43.6464 27.8937 43.3979 28.0278C43.1494 28.1619 42.8642 28.2236 42.5784 28.2051C42.2926 28.1866 42.0191 28.0887 41.7925 27.9239C41.5658 27.759 41.3962 27.5345 41.3051 27.2789C41.214 27.0233 41.2056 26.748 41.2808 26.4878C41.356 26.2277 41.5115 25.9943 41.7277 25.8174C41.9438 25.6405 42.2108 25.5278 42.495 25.4938C42.8755 25.4482 43.2596 25.5466 43.563 25.7674C43.8665 25.9881 44.0645 26.3132 44.1136 26.6712Z" fill="#13131A"/>
<path d="M43.534 26.7396C43.5546 26.8995 43.5246 27.0617 43.4476 27.2056C43.3707 27.3495 43.2503 27.4689 43.1016 27.5486C42.9528 27.6283 42.7824 27.6649 42.6116 27.6538C42.4408 27.6427 42.2774 27.5843 42.1417 27.486C42.0061 27.3877 41.9043 27.2539 41.8492 27.1013C41.7941 26.9488 41.7881 26.7843 41.832 26.6286C41.8759 26.4728 41.9677 26.3328 42.0958 26.226C42.224 26.1192 42.3828 26.0504 42.5524 26.0282C42.6666 26.0133 42.7828 26.02 42.8943 26.0478C43.0057 26.0756 43.1102 26.1241 43.2016 26.1903C43.2929 26.2565 43.3694 26.3392 43.4265 26.4335C43.4835 26.5278 43.5201 26.6318 43.534 26.7396Z" fill="#B46E13"/>
<path opacity="0.1" d="M51.5843 25.7693C51.621 26.0367 51.5726 26.3084 51.4451 26.5499C51.3177 26.7913 51.1171 26.9918 50.8686 27.1259C50.6201 27.2601 50.3349 27.3218 50.0491 27.3033C49.7633 27.2848 49.4898 27.1869 49.2632 27.022C49.0365 26.8571 48.8669 26.6327 48.7758 26.3771C48.6847 26.1214 48.6763 25.8461 48.7515 25.586C48.8267 25.3258 48.9822 25.0925 49.1984 24.9155C49.4145 24.7386 49.6815 24.626 49.9657 24.592C50.3462 24.5464 50.7303 24.6448 51.0338 24.8655C51.3372 25.0863 51.5352 25.4113 51.5843 25.7693Z" fill="#13131A"/>
<path d="M51.0197 25.8365C51.0397 25.9964 51.0092 26.1583 50.9318 26.302C50.8545 26.4456 50.7338 26.5645 50.585 26.6439C50.4361 26.7232 50.2657 26.7594 50.095 26.7479C49.9244 26.7364 49.7612 26.6778 49.6258 26.5793C49.4904 26.4808 49.389 26.3469 49.3342 26.1944C49.2793 26.0419 49.2736 25.8775 49.3176 25.7219C49.3616 25.5663 49.4535 25.4264 49.5817 25.3198C49.7098 25.2131 49.8686 25.1445 50.0381 25.1224C50.1525 25.1076 50.2689 25.1143 50.3806 25.1423C50.4922 25.1703 50.5968 25.2189 50.6882 25.2854C50.7796 25.3519 50.856 25.4349 50.9129 25.5295C50.9698 25.6242 51.0061 25.7285 51.0197 25.8365Z" fill="#B46E13"/>
<path opacity="0.1" d="M59.0804 24.8528C59.1171 25.1202 59.0686 25.3919 58.9412 25.6334C58.8138 25.8748 58.6132 26.0753 58.3647 26.2094C58.1162 26.3435 57.831 26.4053 57.5452 26.3868C57.2594 26.3683 56.9859 26.2704 56.7593 26.1055C56.5326 25.9406 56.363 25.7162 56.2719 25.4606C56.1808 25.2049 56.1724 24.9296 56.2476 24.6695C56.3228 24.4093 56.4783 24.176 56.6945 23.999C56.9106 23.8221 57.1776 23.7095 57.4618 23.6755C57.8423 23.6299 58.2264 23.7283 58.5298 23.949C58.8333 24.1698 59.0313 24.4948 59.0804 24.8528Z" fill="#13131A"/>
<path d="M58.5135 24.9328C58.5337 25.0928 58.5031 25.2549 58.4257 25.3987C58.3483 25.5424 58.2275 25.6614 58.0785 25.7408C57.9295 25.8201 57.7589 25.8562 57.5881 25.8445C57.4173 25.8329 57.254 25.774 57.1187 25.6753C56.9834 25.5765 56.8821 25.4424 56.8275 25.2896C56.773 25.1369 56.7676 24.9724 56.812 24.8167C56.8565 24.6611 56.9488 24.5213 57.0774 24.4149C57.206 24.3085 57.3651 24.2403 57.5348 24.2188C57.649 24.2043 57.7652 24.2113 57.8765 24.2395C57.9878 24.2676 58.092 24.3164 58.1831 24.3828C58.2742 24.4493 58.3503 24.5321 58.407 24.6266C58.4637 24.721 58.4999 24.8251 58.5135 24.9328Z" fill="#B46E13"/>
<path opacity="0.1" d="M66.6007 23.9568C66.6373 24.2242 66.5889 24.4959 66.4615 24.7374C66.3341 24.9788 66.1335 25.1793 65.8849 25.3134C65.6364 25.4476 65.3513 25.5093 65.0655 25.4908C64.7797 25.4723 64.5062 25.3744 64.2795 25.2095C64.0529 25.0446 63.8833 24.8202 63.7922 24.5646C63.7011 24.3089 63.6926 24.0336 63.7678 23.7735C63.8431 23.5133 63.9986 23.28 64.2147 23.103C64.4309 22.9261 64.6979 22.8135 64.9821 22.7795C65.3625 22.7339 65.7466 22.8323 66.0501 23.053C66.3536 23.2738 66.5516 23.5988 66.6007 23.9568Z" fill="#13131A"/>
<path d="M66.033 24.0354C66.0532 24.1954 66.0227 24.3575 65.9453 24.5012C65.8679 24.6449 65.7471 24.764 65.598 24.8433C65.449 24.9226 65.2784 24.9587 65.1076 24.9471C64.9369 24.9354 64.7736 24.8765 64.6382 24.7778C64.5029 24.6791 64.4016 24.5449 64.3471 24.3922C64.2925 24.2394 64.2871 24.0749 64.3316 23.9193C64.376 23.7636 64.4683 23.6239 64.5969 23.5175C64.7255 23.4111 64.8847 23.3428 65.0544 23.3213C65.1686 23.3068 65.2847 23.3138 65.396 23.342C65.5073 23.3702 65.6115 23.4189 65.7026 23.4854C65.7937 23.5518 65.8698 23.6347 65.9265 23.7291C65.9833 23.8235 66.0195 23.9276 66.033 24.0354Z" fill="#B46E13"/>
<path d="M12.9891 27.5274C13.0818 28.2006 13.3018 30.4054 13.3018 30.4054C13.4061 31.1686 12.1436 31.3184 12.0481 30.5581C11.9525 29.7977 11.7585 28.4459 11.5906 27.2085C11.3589 25.5188 10.496 25.0037 9.71714 25.0991C8.74713 25.2162 8.32149 26.3854 8.47785 27.5519L7.21829 27.7046C6.85924 25.0745 8.0551 23.889 9.43048 23.7336C11.5211 23.472 12.6011 24.6766 12.9891 27.5274Z" fill="#A6A6A6"/>
<path d="M20.4861 26.6219C20.5787 27.2951 20.7988 29.5 20.7988 29.5C20.903 30.2631 19.6406 30.413 19.545 29.6526C19.4495 28.8922 19.2555 27.5404 19.0875 26.3003C18.8559 24.6133 17.993 24.0982 17.2141 24.1936C16.2441 24.3108 15.8184 25.48 15.9748 26.6465L14.7152 26.7991C14.3562 24.169 15.555 22.9835 16.9274 22.8254C19.018 22.5665 20.0981 23.763 20.4861 26.6219Z" fill="#A6A6A6"/>
<path d="M27.9826 25.7148C28.0753 26.3907 28.2954 28.5955 28.2954 28.5955C28.3996 29.3587 27.1371 29.5058 27.0416 28.7482C26.946 27.9905 26.752 26.636 26.5841 25.3959C26.3554 23.7089 25.4896 23.1938 24.7107 23.2892C23.7407 23.4064 23.315 24.5756 23.4714 25.742L22.2118 25.8947C21.8528 23.2646 23.0515 22.0791 24.424 21.921C26.5175 21.6621 27.6091 22.864 27.9826 25.7148Z" fill="#A6A6A6"/>
<path d="M35.4787 24.8098C35.5714 25.4857 35.7915 27.6906 35.7915 27.6906C35.8957 28.4537 34.6332 28.6009 34.5377 27.8405C34.4421 27.0801 34.2481 25.731 34.0802 24.4909C33.8514 22.8039 32.9857 22.2888 32.2068 22.3815C31.2368 22.4987 30.8111 23.6679 30.9704 24.8343L29.7079 24.987C29.3489 22.3542 30.5476 21.1714 31.9201 21.0133C34.0136 20.7653 35.0907 21.959 35.4787 24.8098Z" fill="#A6A6A6"/>
<path d="M42.9782 23.9045C43.068 24.5804 43.288 26.7852 43.288 26.7852C43.3923 27.5483 42.1298 27.6955 42.0343 26.9351C41.9387 26.1747 41.7447 24.8257 41.5768 23.5856C41.348 21.8986 40.4823 21.3835 39.7034 21.4761C38.7334 21.5933 38.3077 22.7625 38.467 23.929L37.2045 24.0789C36.8455 21.4489 38.0442 20.2633 39.4167 20.108C41.5073 19.849 42.5873 21.0537 42.9782 23.9045Z" fill="#A6A6A6"/>
<path d="M50.4841 22.9998C50.5738 23.6757 50.7939 25.8806 50.7939 25.8806C50.8981 26.641 49.6357 26.7909 49.5401 26.0305C49.4446 25.2701 49.2506 23.9183 49.0826 22.6809C48.8539 20.9939 47.9881 20.4788 47.2121 20.5715C46.2392 20.6887 45.8136 21.8579 45.9728 23.0243L44.7104 23.177C44.3513 20.5469 45.5501 19.3614 46.9226 19.206C49.0073 18.9444 50.0845 20.149 50.4841 22.9998Z" fill="#A6A6A6"/>
<path d="M57.9719 22.0953C58.0616 22.7684 58.2817 24.9733 58.2817 24.9733C58.3859 25.7364 57.1235 25.8863 57.0279 25.1259C56.9324 24.3655 56.7384 23.0137 56.5704 21.7764C56.3417 20.0866 55.4759 19.5743 54.6999 19.6669C53.7299 19.7841 53.3014 20.9533 53.4606 22.1198L52.1982 22.2724C51.8391 19.6424 53.0379 18.4568 54.4103 18.3015C56.5038 18.0398 57.5839 19.2445 57.9719 22.0953Z" fill="#A6A6A6"/>
<path d="M65.4682 21.1895C65.5609 21.8627 65.778 24.0675 65.778 24.0675C65.8823 24.8307 64.6198 24.9806 64.5243 24.2202C64.4287 23.4598 64.2347 22.108 64.0668 20.8706C63.838 19.1809 62.9723 18.6658 62.1962 18.7612C61.2262 18.8784 60.7977 20.0476 60.9569 21.214L59.6945 21.3667C59.3354 18.7366 60.5342 17.5511 61.9067 17.3957C64.0002 17.1341 65.0802 18.3387 65.4682 21.1895Z" fill="#A6A6A6"/>
<path d="M60.5463 103.517H9.06641V108.646H60.5463V103.517Z" fill="#F09219"/>
<path opacity="0.6" d="M60.5463 103.517H9.06641V108.646H60.5463V103.517Z" fill="white"/>
<path d="M50.8371 108.646H55.8667V103.516H50.8371V108.646Z" fill="#F09219"/>
<path d="M46.8705 108.646H48.9697V103.516H46.8705V108.646Z" fill="#F09219"/>
<path d="M13.6496 108.646H18.6792V103.516H13.6496V108.646Z" fill="#F09219"/>
<path d="M62.9142 116.111H9.96631V119.749H62.9142V116.111Z" fill="#B46E13"/>
<path d="M23.9313 116.111H21.7712V119.749H23.9313V116.111Z" fill="#F09219"/>
<path d="M20.3471 116.111H18.187V119.749H20.3471V116.111Z" fill="#F09219"/>
<path d="M57.6357 116.111H55.4756V119.749H57.6357V116.111Z" fill="#F09219"/>
<path d="M54.0512 116.111H51.8911V119.749H54.0512V116.111Z" fill="#F09219"/>
<path d="M43.3692 98.0879H11.3213V103.52H43.3692V98.0879Z" fill="#B46E13"/>
<path d="M62.405 98.0879H43.332V103.52H62.405V98.0879Z" fill="#543309"/>
<path d="M42.6598 98.6519H11.3213V102.955H42.6598V98.6519Z" fill="white"/>
<path d="M13.3484 102.07C15.7922 102.1 18.2351 102.122 20.677 102.135L28.0056 102.154L35.3314 102.135C37.7752 102.124 40.2181 102.102 42.66 102.07C40.2161 102.039 37.7733 102.018 35.3314 102.007L28.0056 101.988L20.677 102.007C18.2332 102.018 15.7903 102.039 13.3484 102.07Z" fill="#DBDBDB"/>
<path d="M13.3484 101.227C15.7922 101.256 18.2351 101.277 20.677 101.29L28.0056 101.309L35.3314 101.29C37.7752 101.279 40.2181 101.258 42.66 101.227C40.2161 101.194 37.7733 101.173 35.3314 101.162L28.0056 101.143L20.677 101.162C18.2332 101.163 15.7903 101.185 13.3484 101.227Z" fill="#DBDBDB"/>
<path d="M13.3484 100.382C15.7922 100.413 18.2351 100.434 20.677 100.445L28.0056 100.464L35.3314 100.445C37.7752 100.434 40.2181 100.413 42.66 100.382C40.2161 100.35 37.7733 100.328 35.3314 100.317L28.0056 100.298L20.677 100.317C18.2332 100.337 15.7903 100.359 13.3484 100.382Z" fill="#DBDBDB"/>
<path d="M13.3484 99.5291C15.7922 99.56 18.2351 99.5809 20.677 99.5918L28.0056 99.6108L35.3314 99.5918C37.7752 99.5809 40.2181 99.56 42.66 99.5291C40.2161 99.5 37.7733 99.4782 35.3314 99.4637L28.0056 99.4446L20.677 99.4664C18.2332 99.4827 15.7903 99.5036 13.3484 99.5291Z" fill="#DBDBDB"/>
<path d="M40.1297 107.711L37.9464 105.541L35.7632 107.711V102.088L36.2294 101.227H40.5958L40.1297 102.088V107.711Z" fill="#F09219"/>
<path d="M39.2984 116.111H70.1533V108.646H39.2984V116.111Z" fill="#543309"/>
<path d="M5.12221 116.111H39.2954V108.646H5.12221V116.111Z" fill="#B46E13"/>
<path d="M40.2366 115.337H70.1533V109.423H40.2366V115.337Z" fill="white"/>
<path d="M68.2164 110.638C65.8846 110.608 63.5527 110.587 61.2208 110.576L54.2281 110.557L47.2324 110.576C44.9006 110.587 42.5687 110.608 40.2368 110.638C42.5668 110.669 44.8986 110.69 47.2324 110.701L54.2281 110.72L61.2208 110.701C63.5546 110.69 65.8865 110.669 68.2164 110.638Z" fill="#DBDBDB"/>
<path d="M68.2164 111.793C65.8846 111.764 63.5527 111.743 61.2208 111.728L54.2281 111.709L47.2324 111.728C44.9006 111.739 42.5687 111.761 40.2368 111.793C42.5668 111.824 44.8986 111.845 47.2324 111.856L54.2281 111.875L61.2208 111.856C63.5546 111.849 65.8865 111.828 68.2164 111.793Z" fill="#DBDBDB"/>
<path d="M68.2164 112.96C65.8846 112.927 63.5527 112.905 61.2208 112.894L54.2281 112.883L47.2324 112.902C44.9006 112.913 42.5687 112.935 40.2368 112.968C42.5668 112.999 44.8986 113.02 47.2324 113.03L54.2281 113.05L61.2208 113.03C63.5546 113.014 65.8865 112.991 68.2164 112.96Z" fill="#DBDBDB"/>
<path d="M68.2164 114.119C65.8846 114.09 63.5527 114.069 61.2208 114.056L54.2281 114.037L47.2324 114.056C44.9006 114.067 42.5687 114.088 40.2368 114.119C42.5668 114.152 44.8986 114.173 47.2324 114.184L54.2281 114.203L61.2208 114.184C63.5546 114.173 65.8865 114.152 68.2164 114.119Z" fill="#DBDBDB"/>
<path d="M23.578 98.0879H52.8057V92.419H23.578V98.0879Z" fill="#F09219"/>
<path d="M6.91766 98.0879H23.5786V92.419H6.91766V98.0879Z" fill="#F09219"/>
<path opacity="0.2" d="M6.91767 98.0879H22.8345V92.419H6.91767V98.0879Z" fill="#13131A"/>
<path d="M23.578 97.499H52.8057V93.0048H23.578V97.499Z" fill="white"/>
<path d="M50.9125 93.9314C48.6366 93.8987 46.3588 93.8769 44.0791 93.866L37.2456 93.8442L30.4121 93.866C28.1362 93.8769 25.8584 93.8987 23.5786 93.9314C25.8564 93.9642 28.1343 93.986 30.4121 93.9969L37.2456 94.0187L44.0791 93.9969C46.3588 93.986 48.6366 93.9642 50.9125 93.9314Z" fill="#DBDBDB"/>
<path d="M50.9125 94.811C48.6366 94.7802 46.3588 94.7584 44.0791 94.7456L37.2456 94.7266L30.4121 94.7456C28.1362 94.7565 25.8584 94.7783 23.5786 94.811C25.8564 94.8438 28.1343 94.8665 30.4121 94.8792L37.2456 94.8983L44.0791 94.8792C46.3588 94.8665 48.6366 94.8438 50.9125 94.811Z" fill="#DBDBDB"/>
<path d="M50.9125 95.6951C48.6366 95.6624 46.3588 95.6397 44.0791 95.627L37.2456 95.6079L30.4121 95.627C28.1362 95.6397 25.8584 95.6624 23.5786 95.6951C25.8564 95.7278 28.1343 95.7496 30.4121 95.7605L37.2456 95.7823L44.0791 95.7605C46.3588 95.7496 48.6366 95.7278 50.9125 95.6951Z" fill="#DBDBDB"/>
<path d="M50.9125 96.5747C48.6366 96.5438 46.3588 96.522 44.0791 96.5093L37.2456 96.4902L30.4121 96.5093C28.1362 96.5202 25.8584 96.542 23.5786 96.5747C25.8564 96.6074 28.1343 96.6301 30.4121 96.6429L37.2456 96.6619L44.0791 96.6429C46.3588 96.6301 48.6366 96.6074 50.9125 96.5747Z" fill="#DBDBDB"/>
<path d="M28.7582 99.9605L30.1712 98.5569L31.5842 99.9605V96.3248L31.2831 95.7661H28.457L28.7582 96.3248V99.9605Z" fill="#B46E13"/>
<path d="M92.4696 17.6684V85.2587H53.2986V85.3841C53.2994 87.8757 52.2643 90.2687 50.4148 92.0513C48.5653 93.834 46.0481 94.8647 43.4017 94.923H43.0513C42.7069 94.9251 42.3627 94.9078 42.0205 94.8713L40.1326 94.5061C39.6643 94.3649 39.2075 94.1918 38.7659 93.9882C38.5453 93.8957 38.3306 93.7911 38.1231 93.6748C38.0103 93.6201 37.9027 93.5563 37.8017 93.484C37.507 93.3221 37.2254 93.1399 36.9591 92.9389C36.9121 92.9085 36.8675 92.8748 36.8259 92.8381C36.6204 92.701 36.4268 92.5488 36.2468 92.383C36.1541 92.3066 36.0615 92.2194 35.9572 92.1322C34.7899 91.0502 33.9288 89.7104 33.4526 88.2349C33.443 88.2043 33.4294 88.175 33.412 88.1477C33.3454 87.9214 33.2788 87.6816 33.2267 87.4418C33.1448 87.1396 33.0905 86.8315 33.0646 86.5206C33.0385 86.3816 33.0385 86.248 33.024 86.1063C33.0184 86.0601 33.0184 86.0135 33.024 85.9673C33.024 85.7902 32.9835 85.6266 32.9835 85.4495V17.7665C32.9835 15.0929 31.0001 8.2085 22.2266 8.2085H82.4104C83.731 8.20743 85.0389 8.45132 86.2592 8.92624C87.4796 9.40117 88.5886 10.0978 89.5228 10.9764C90.457 11.8549 91.1981 12.8981 91.7037 14.0464C92.2093 15.1946 92.4696 16.4254 92.4696 17.6684Z" fill="white"/>
<path d="M92.4688 17.6692C92.4891 17.7101 92.5209 85.2786 92.5354 85.3222C92.5499 85.3658 53.3269 85.3386 53.3124 85.3577L53.4166 85.2596C53.4175 86.2832 53.2594 87.3014 52.9475 88.282C52.452 89.7508 51.5926 91.0876 50.4402 92.1822C49.2878 93.2768 47.8755 94.0979 46.3196 94.5777C44.9278 94.9876 43.4621 95.1276 42.0111 94.9893L40.1087 94.6241C39.5732 94.4686 39.0538 94.268 38.5567 94.0245C36.9356 93.2761 35.5564 92.1337 34.5617 90.7154C33.567 89.2971 32.9929 87.6544 32.8988 85.9573C32.8322 85.3141 32.8641 84.1612 32.8583 83.5044C32.8583 81.8691 32.8583 77.3395 32.8583 75.6388C32.8727 58.4115 32.8988 35.2073 32.9133 17.9609C32.9133 14.5132 30.9096 11.0002 27.6 9.40578C25.9337 8.64164 24.0993 8.25877 22.2461 8.28836V8.14664C36.8483 8.17935 68.5024 8.14664 82.7629 8.21478C88.0994 8.33742 92.4949 12.6436 92.4601 17.6692H92.4688ZM92.4688 17.6692C92.492 12.6627 88.1081 8.34832 82.7687 8.24203C68.6501 8.2066 36.7296 8.28564 22.2519 8.28019V8.14664C24.1295 8.11231 25.989 8.49711 27.6781 9.26951C31.0428 10.883 33.0725 14.4478 33.0957 17.9527C33.116 35.2073 33.1362 58.3951 33.1507 75.6307C33.1507 77.334 33.1507 81.8446 33.1507 83.4962C33.1681 84.1394 33.1102 85.3086 33.1884 85.9491C33.2149 86.4068 33.2758 86.8622 33.3708 87.3118C33.676 88.7002 34.3109 90.0056 35.2281 91.1303C36.1452 92.255 37.3207 93.1699 38.6667 93.8064C39.1447 94.0423 39.6437 94.2383 40.1579 94.3924L42.0458 94.7603C43.4593 94.907 44.8898 94.7696 46.2427 94.3571C47.5956 93.9447 48.8401 93.2667 49.8938 92.3678C50.9476 91.469 51.7866 90.3698 52.3555 89.1431C52.9243 87.9163 53.21 86.5898 53.1937 85.2514V85.1533H53.2979L92.4543 85.1887C92.3559 85.5975 92.4543 17.5657 92.4543 17.6611L92.4688 17.6692Z" fill="#B46E13"/>
<path d="M64.8191 13.9243L85.8379 13.9243V13.382L64.8191 13.382V13.9243Z" fill="#DBDBDB"/>
<path d="M40.4104 28.2593L61.4292 28.2593V27.7169L40.4104 27.7169V28.2593Z" fill="#DBDBDB"/>
<path d="M40.4104 31.1299L61.4292 31.1299V30.5875L40.4104 30.5875V31.1299Z" fill="#DBDBDB"/>
<path d="M40.4104 33.9971H61.4292V33.4547H40.4104V33.9971Z" fill="#DBDBDB"/>
<path d="M40.4104 36.8638H61.4292V36.3214H40.4104V36.8638Z" fill="#DBDBDB"/>
<path d="M40.4104 39.7314H61.4292V39.1891H40.4104V39.7314Z" fill="#DBDBDB"/>
<path d="M40.4104 42.5986H61.4292V42.0563H40.4104V42.5986Z" fill="#DBDBDB"/>
<path d="M40.4104 45.4624H61.4292V44.92H40.4104V45.4624Z" fill="#DBDBDB"/>
<path d="M40.4104 48.3301H61.4292V47.7877H40.4104V48.3301Z" fill="#DBDBDB"/>
<path d="M40.4104 51.1973H61.4292V50.6549H40.4104V51.1973Z" fill="#DBDBDB"/>
<path d="M40.4104 54.0664H61.4292V53.524H40.4104V54.0664Z" fill="#DBDBDB"/>
<path d="M40.4104 59.8013H61.4292V59.2589H40.4104V59.8013Z" fill="#DBDBDB"/>
<path d="M40.4104 62.668H61.4292V62.1256H40.4104V62.668Z" fill="#DBDBDB"/>
<path d="M40.4104 65.5352H61.4292V64.9928H40.4104V65.5352Z" fill="#DBDBDB"/>
<path d="M40.4104 68.4028H61.4292V67.8605H40.4104V68.4028Z" fill="#DBDBDB"/>
<path d="M40.4104 74.1367H61.4292V73.5944H40.4104V74.1367Z" fill="#DBDBDB"/>
<path d="M40.4104 77.0044H61.4292V76.462H40.4104V77.0044Z" fill="#DBDBDB"/>
<path d="M40.4104 79.873H61.4292V79.3307H40.4104V79.873Z" fill="#DBDBDB"/>
<path d="M64.8191 16.792L85.8379 16.792V16.2496L64.8191 16.2496V16.792Z" fill="#DBDBDB"/>
<path d="M64.8191 19.6582L85.8379 19.6582V19.1158L64.8191 19.1158V19.6582Z" fill="#DBDBDB"/>
<path d="M64.8191 22.5256L85.8379 22.5256V21.9833L64.8191 21.9833V22.5256Z" fill="#DBDBDB"/>
<path d="M64.8191 25.3931L85.8379 25.3931V24.8507L64.8191 24.8507V25.3931Z" fill="#DBDBDB"/>
<path d="M64.8191 28.2593L85.8379 28.2593V27.7169L64.8191 27.7169V28.2593Z" fill="#DBDBDB"/>
<path d="M64.8191 31.1299L85.8379 31.1299V30.5875L64.8191 30.5875V31.1299Z" fill="#DBDBDB"/>
<path d="M64.8191 33.9971H85.8379V33.4547H64.8191V33.9971Z" fill="#DBDBDB"/>
<path d="M64.8191 36.8638H85.8379V36.3214H64.8191V36.8638Z" fill="#DBDBDB"/>
<path d="M64.8191 39.7314H85.8379V39.1891H64.8191V39.7314Z" fill="#DBDBDB"/>
<path d="M64.8191 45.4624H85.8379V44.92H64.8191V45.4624Z" fill="#DBDBDB"/>
<path d="M64.8191 48.3301H85.8379V47.7877H64.8191V48.3301Z" fill="#DBDBDB"/>
<path d="M64.8191 51.1973H85.8379V50.6549H64.8191V51.1973Z" fill="#DBDBDB"/>
<path d="M64.8191 54.0664H85.8379V53.524H64.8191V54.0664Z" fill="#DBDBDB"/>
<path d="M64.8191 56.9336H85.8379V56.3912H64.8191V56.9336Z" fill="#DBDBDB"/>
<path d="M64.8191 59.8013H85.8379V59.2589H64.8191V59.8013Z" fill="#DBDBDB"/>
<path d="M64.8191 62.668H85.8379V62.1256H64.8191V62.668Z" fill="#DBDBDB"/>
<path d="M64.8191 65.5352H85.8379V64.9928H64.8191V65.5352Z" fill="#DBDBDB"/>
<path d="M40.4102 13.899L50.921 13.8745C54.4246 13.8745 57.9253 13.8745 61.4289 13.899C57.9253 13.9208 54.4246 13.9154 50.921 13.9236L40.4102 13.899Z" fill="#DBDBDB"/>
<path d="M40.4102 14.6383L50.921 14.6138C54.4246 14.6138 57.9253 14.6138 61.4289 14.6383C57.9253 14.6601 54.4246 14.6547 50.921 14.6628L40.4102 14.6383Z" fill="#DBDBDB"/>
<path d="M40.4102 15.377L50.921 15.3552C54.4246 15.3552 57.9253 15.3552 61.4289 15.377C57.9253 15.3988 54.4246 15.3934 50.921 15.4016L40.4102 15.377Z" fill="#DBDBDB"/>
<path d="M40.4102 16.1156L50.921 16.0938C54.4246 16.0938 57.9253 16.0938 61.4289 16.1156C57.9253 16.1374 54.4246 16.1319 50.921 16.1401L40.4102 16.1156Z" fill="#DBDBDB"/>
<path d="M40.4102 16.8566L50.921 16.832C54.4246 16.832 57.9253 16.832 61.4289 16.8566C57.9253 16.8756 54.4246 16.8566 50.921 16.8784L40.4102 16.8566Z" fill="#DBDBDB"/>
<path d="M40.4102 17.5953L50.921 17.5708C54.4246 17.5708 57.9253 17.5708 61.4289 17.5953C57.9253 17.6144 54.4246 17.5953 50.921 17.6199L40.4102 17.5953Z" fill="#DBDBDB"/>
<path d="M40.4102 18.3341L50.921 18.3096C54.4246 18.3096 57.9253 18.3096 61.4289 18.3341C57.9253 18.3532 54.4246 18.3505 50.921 18.3586L40.4102 18.3341Z" fill="#DBDBDB"/>
<path d="M40.4102 19.0724L50.921 19.0479C54.4246 19.0479 57.9253 19.0479 61.4289 19.0724C57.9253 19.0942 54.4246 19.0887 50.921 19.0969L40.4102 19.0724Z" fill="#DBDBDB"/>
<path d="M40.4102 19.8109L50.921 19.7864C54.4246 19.7864 57.9253 19.7864 61.4289 19.8109C57.9253 19.8327 54.4246 19.8273 50.921 19.8354L40.4102 19.8109Z" fill="#DBDBDB"/>
<path d="M40.4102 20.5494L50.921 20.5249C54.4246 20.5249 57.9253 20.5249 61.4289 20.5494C57.9253 20.5712 54.4246 20.5658 50.921 20.574L40.4102 20.5494Z" fill="#DBDBDB"/>
<path d="M40.4102 21.2887L50.921 21.2642C54.4246 21.2642 57.9253 21.2642 61.4289 21.2887C57.9253 21.3105 54.4246 21.305 50.921 21.3132L40.4102 21.2887Z" fill="#DBDBDB"/>
<path d="M40.4102 22.0262L50.921 22.0044C54.4246 22.0044 57.9253 22.0044 61.4289 22.0262C57.9253 22.048 54.4246 22.0425 50.921 22.0507L40.4102 22.0262Z" fill="#DBDBDB"/>
<path d="M40.4102 22.7682L50.921 22.7437C54.4246 22.7437 57.9253 22.7437 61.4289 22.7682C57.9253 22.7873 54.4246 22.7818 50.921 22.79L40.4102 22.7682Z" fill="#DBDBDB"/>
<path d="M40.4102 23.5069L50.921 23.4824C54.4246 23.4824 57.9253 23.4824 61.4289 23.5069C57.9253 23.526 54.4246 23.507 50.921 23.5288L40.4102 23.5069Z" fill="#DBDBDB"/>
<path d="M40.4102 24.2457L50.921 24.2212C54.4246 24.2212 57.9253 24.2212 61.4289 24.2457C57.9253 24.2648 54.4246 24.2457 50.921 24.2702L40.4102 24.2457Z" fill="#DBDBDB"/>
<path d="M44.2268 19.0723H42.6343V25.1063H44.2268V19.0723Z" fill="#F09219"/>
<path d="M47.1834 16.5186H45.5908V25.1036H47.1834V16.5186Z" fill="#B46E13"/>
<path d="M50.1394 18.3582H48.5469V25.1063H50.1394V18.3582Z" fill="#DBDBDB"/>
<path d="M53.0955 16.1152H51.5029V25.1037H53.0955V16.1152Z" fill="#F09219"/>
<path d="M56.0545 17.3228H54.4619V25.1065H56.0545V17.3228Z" fill="#B46E13"/>
<path d="M59.012 21.7329H57.4194V25.107H59.012V21.7329Z" fill="#DBDBDB"/>
<path d="M40.9803 13.3813L41.0237 16.3112L41.0556 19.2437C41.0758 21.1978 41.0816 23.152 41.0845 25.1061L40.9803 25.0161H46.0938H51.2044L56.318 25.0434L61.4286 25.0979L56.318 25.1497L51.2044 25.1797H46.0938H40.8818V25.0897C40.8818 23.1356 40.8818 21.1815 40.9137 19.2274L40.9426 16.2948L40.9803 13.3813Z" fill="#DBDBDB"/>
<path d="M44.2268 25.7251H42.6343V25.8505H44.2268V25.7251Z" fill="#DBDBDB"/>
<path d="M47.1834 25.7251H45.5908V25.8505H47.1834V25.7251Z" fill="#DBDBDB"/>
<path d="M50.1394 25.7251H48.5469V25.8505H50.1394V25.7251Z" fill="#DBDBDB"/>
<path d="M53.0955 25.7251H51.5029V25.8505H53.0955V25.7251Z" fill="#DBDBDB"/>
<path d="M56.0545 25.7251H54.4619V25.8505H56.0545V25.7251Z" fill="#DBDBDB"/>
<path d="M59.012 25.7251H57.4194V25.8505H59.012V25.7251Z" fill="#DBDBDB"/>
<path d="M75.6118 72.3433C75.6116 73.2812 75.3183 74.1983 74.7685 74.9805C74.2186 75.7626 73.4364 76.3753 72.5193 76.7421L70.5359 72.3433H75.6118Z" fill="#F09219"/>
<path d="M69.8844 72.0164L71.8678 76.4125C71.7115 76.4725 71.5551 76.527 71.4017 76.5733C70.4195 76.8567 69.3696 76.8567 68.3874 76.5733C67.6029 76.3417 66.8896 75.9345 66.3087 75.3868C65.7278 74.8391 65.2965 74.1671 65.0517 73.4282C64.7468 72.5052 64.7468 71.5168 65.0517 70.5938C65.2958 69.8552 65.7269 69.1835 66.308 68.6365C66.8891 68.0896 67.6027 67.6838 68.3874 67.4541C69.369 67.167 70.4201 67.167 71.4017 67.4541C72.1867 67.6838 72.9006 68.0896 73.4822 68.6365C74.0637 69.1834 74.4954 69.8551 74.7402 70.5938C74.8905 71.0529 74.9676 71.5305 74.969 72.011L69.8844 72.0164Z" fill="#F09219"/>
<path d="M69.8841 72.0164L71.8675 76.4125C71.7112 76.4725 71.5548 76.527 71.4014 76.5733C70.3805 76.8724 69.2853 76.8604 68.2721 76.5391C67.2588 76.2178 66.3793 75.6035 65.7588 74.7838C65.1384 73.9642 64.8088 72.9811 64.817 71.9747C64.8253 70.9684 65.1709 69.9902 65.8047 69.1796C66.4385 68.3691 67.328 67.7676 68.3463 67.461C69.3647 67.1544 70.46 67.1583 71.4758 67.4722C72.4917 67.7861 73.3763 68.3938 74.0036 69.2089C74.6308 70.0239 74.9685 71.0046 74.9687 72.011L69.8841 72.0164Z" fill="#DBDBDB"/>
<path d="M69.8836 72.0165L66.5827 75.6359C65.9386 75.1142 65.444 74.4485 65.1446 73.7C64.8451 72.9514 64.7504 72.1441 64.869 71.3521C64.9876 70.56 65.3159 69.8088 65.8235 69.1674C66.3312 68.5259 67.002 68.0149 67.7743 67.6812C68.5466 67.3475 69.3956 67.2019 70.2433 67.2577C71.091 67.3136 71.9102 67.569 72.6256 68.0007C73.341 68.4323 73.9297 69.0263 74.3375 69.728C74.7453 70.4297 74.9592 71.2167 74.9595 72.0165H69.8836Z" fill="#B46E13"/>
<path d="M78.2348 78.3421H74.404L69.6582 73.8779L69.7277 73.8125L74.4445 78.2522H78.2348V78.3421Z" fill="#B46E13"/>
<path d="M69.959 73.5918H69.4263V74.0933H69.959V73.5918Z" fill="#B46E13"/>
<path d="M78.2345 74.8866H73.9172L71.8672 72.9597L71.9367 72.8943L73.9578 74.7966H78.2345V74.8866Z" fill="#B46E13"/>
<path d="M72.1685 72.6763H71.6357V73.1777H72.1685V72.6763Z" fill="#B46E13"/>
<path d="M78.2345 71.4688H71.7051V71.5614H78.2345V71.4688Z" fill="#B46E13"/>
<path d="M71.899 71.2637H71.3662V71.7651H71.899V71.2637Z" fill="#B46E13"/>
<path d="M84.4634 71.0107H79.7205V71.425H84.4634V71.0107Z" fill="#EBEBEB"/>
<path d="M85.8764 71.8774H79.7205V72.2917H85.8764V71.8774Z" fill="#EBEBEB"/>
<path d="M83.0098 72.7441H79.7205V73.1584H83.0098V72.7441Z" fill="#EBEBEB"/>
<path d="M78.7703 71.0107H77.699V72.0191H78.7703V71.0107Z" fill="#B46E13"/>
<path d="M85.0396 74.3652H79.7205V74.7795H85.0396V74.3652Z" fill="#EBEBEB"/>
<path d="M84.1564 75.2324H79.7205V75.6467H84.1564V75.2324Z" fill="#EBEBEB"/>
<path d="M85.8764 76.1023H79.7205V76.5166H85.8764V76.1023Z" fill="#EBEBEB"/>
<path d="M78.7703 74.3652H77.699V75.3736H78.7703V74.3652Z" fill="#F09219"/>
<path d="M85.0396 77.7209H79.7205V78.1352H85.0396V77.7209Z" fill="#EBEBEB"/>
<path d="M84.1564 78.5898H79.7205V79.0041H84.1564V78.5898Z" fill="#EBEBEB"/>
<path d="M85.8764 79.4568H79.7205V79.871H85.8764V79.4568Z" fill="#EBEBEB"/>
<path d="M78.7703 77.7209H77.699V78.7293H78.7703V77.7209Z" fill="#DBDBDB"/>
<path d="M22.9765 8.21143C25.6661 8.21504 28.2443 9.22344 30.1445 11.0151C32.0447 12.8067 33.1117 15.2351 33.1109 17.7667V21.8821H12.8247V17.7667C12.8243 16.5118 13.0867 15.2691 13.5967 14.1097C14.1067 12.9502 14.8545 11.8967 15.7972 11.0093C16.74 10.1219 17.8593 9.41812 19.0911 8.93805C20.323 8.45798 21.6432 8.21107 22.9765 8.21143Z" fill="#DBDBDB"/>
<path d="M107.254 85.2593V85.3846C107.255 87.8763 106.22 90.2693 104.37 92.0519C102.521 93.8345 100.003 94.8652 97.3569 94.9236H43.4014C46.0478 94.8652 48.565 93.8345 50.4145 92.0519C52.264 90.2693 53.2991 87.8763 53.2983 85.3846V85.2593H107.254Z" fill="#DBDBDB"/>
<path d="M3.44604 119.752C39.704 119.583 80.3748 119.583 116.633 119.752C80.3748 119.918 39.704 119.918 3.44604 119.752Z" fill="#B46E13"/>
<path d="M74.607 119.725C75.3164 119.94 95.5041 119.692 96.2657 119.223C96.5552 119.052 96.6913 116.28 96.7492 112.928V112.821C96.7637 112.132 96.7753 111.42 96.7753 110.698C96.7753 110.6 96.7753 110.499 96.7753 110.401L95.7966 100.543L82.2918 100.671L83.6237 110.436L83.6411 110.823L83.7222 112.843V113.053C83.7222 113.053 76.049 116.4 75.2701 116.999C74.4912 117.599 73.8976 119.512 74.607 119.725Z" fill="#F09219"/>
<path d="M74.607 119.724C75.3164 119.939 95.5041 119.691 96.2657 119.223C96.5552 119.051 96.6913 116.279 96.7492 112.927V112.821C96.7637 112.131 96.7753 111.42 96.7753 110.697C96.7753 110.599 96.7753 110.499 96.7753 110.4L83.6237 110.436L83.6411 110.823L83.7222 112.842V113.052C83.7222 113.052 76.049 116.399 75.2701 116.999C74.4912 117.598 73.8976 119.511 74.607 119.724Z" fill="#EBEBEB"/>
<path d="M74.6041 119.722C74.9689 119.834 80.4531 119.823 85.8156 119.722C86.8928 119.703 87.9641 119.678 89.0007 119.654C92.8257 119.556 95.9848 119.406 96.2772 119.226C96.5697 119.046 96.7 116.359 96.7579 113.069C96.7579 113.023 96.7579 112.977 96.7579 112.93C96.7579 112.884 96.7579 112.857 96.7579 112.821H96.7405L83.7308 112.846V113.056C83.7308 113.056 76.0489 116.4 75.27 116.999C74.4911 117.599 73.8976 119.512 74.6041 119.722Z" fill="#A6A6A6"/>
<path d="M74.8237 118.986C78.226 118.864 91.9596 118.681 95.3329 118.806C95.3589 118.806 95.3618 118.825 95.3329 118.828C91.9625 119.016 78.2289 119.101 74.8266 119.038C74.7542 119.035 74.7542 118.986 74.8237 118.986Z" fill="#B46E13"/>
<path d="M82.2742 112.898C83.612 112.644 85.2509 112.819 86.2875 113.716C86.328 113.751 86.2875 113.803 86.2325 113.792C84.9471 113.419 83.6231 113.176 82.2829 113.067C82.2591 113.068 82.2358 113.06 82.2182 113.045C82.2005 113.03 82.19 113.009 82.1888 112.987C82.1877 112.964 82.196 112.942 82.212 112.926C82.2281 112.909 82.2504 112.899 82.2742 112.898Z" fill="#B46E13"/>
<path d="M81.316 113.456C82.6508 113.206 84.2926 113.38 85.3292 114.274C85.3698 114.307 85.3292 114.361 85.2713 114.348C83.9872 113.974 82.664 113.732 81.3247 113.625C81.3009 113.626 81.2776 113.619 81.2599 113.603C81.2423 113.588 81.2317 113.567 81.2306 113.545C81.2294 113.523 81.2378 113.501 81.2538 113.484C81.2698 113.467 81.2922 113.457 81.316 113.456Z" fill="#B46E13"/>
<path d="M80.3579 114.018C81.6928 113.764 83.3345 113.939 84.3682 114.835C84.4088 114.871 84.3682 114.922 84.3132 114.911C83.028 114.538 81.7039 114.295 80.3637 114.187C80.3399 114.187 80.3168 114.179 80.2994 114.164C80.282 114.148 80.2718 114.127 80.271 114.105C80.2703 114.082 80.279 114.061 80.2953 114.044C80.3116 114.028 80.3341 114.018 80.3579 114.018Z" fill="#B46E13"/>
<path opacity="0.2" d="M85.8096 119.719C86.8867 119.7 87.9581 119.676 88.9947 119.651C92.8197 119.553 95.9787 119.403 96.2712 119.223C96.5636 119.043 96.6939 116.356 96.7518 113.067C96.7518 113.02 96.7518 112.974 96.7518 112.928C96.7518 112.881 96.7518 112.854 96.7518 112.819H96.7345C94.9537 113.996 88.6733 117.931 85.8096 119.719Z" fill="#13131A"/>
<path d="M82.839 112.884H97.392C97.392 112.884 94.4646 80.9199 94.5775 80.3639C94.7252 79.6471 95.5823 76.4121 96.726 72.1877C97.0822 70.8659 97.4702 69.4486 97.8843 67.9769C98.9701 64.0005 100.166 59.6535 101.205 55.8734C102.769 50.2072 103.988 45.8057 103.988 45.8057H91.6357C91.6357 45.8057 90.1879 50.0927 88.3898 55.6662C85.4421 64.7282 81.5013 77.197 81.1133 80.2277C80.482 85.1225 82.839 112.884 82.839 112.884Z" fill="#B46E13"/>
<path d="M83.4936 110.551C85.7145 110.508 85.0774 110.491 87.2983 110.472C88.3841 110.472 95.5275 110.404 96.5409 110.562C96.5453 110.564 96.5491 110.566 96.5518 110.57C96.5545 110.574 96.556 110.578 96.556 110.583C96.556 110.587 96.5545 110.591 96.5518 110.595C96.5491 110.599 96.5453 110.601 96.5409 110.603C95.5246 110.761 88.3841 110.704 87.2983 110.693C85.0774 110.674 85.7145 110.657 83.4936 110.614C83.4864 110.612 83.4801 110.608 83.4756 110.602C83.4712 110.596 83.4688 110.59 83.4688 110.583C83.4688 110.575 83.4712 110.569 83.4756 110.563C83.4801 110.557 83.4864 110.553 83.4936 110.551Z" fill="#543309"/>
<path d="M91.8293 78.4124C92.3042 76.4337 93.0165 74.496 93.6361 72.5527C94.8986 68.6063 96.1668 64.6627 97.4409 60.7217C98.0779 58.7503 98.7168 56.7808 99.3577 54.813C99.6849 53.8182 100.009 52.8235 100.339 51.8314C100.669 50.8394 101.031 49.8964 101.324 48.9179C101.442 48.52 101.506 48.7381 101.356 49.245C101.049 50.2643 100.745 51.2863 100.429 52.3056C99.8036 54.3206 99.1734 56.3356 98.5383 58.3506C97.2797 62.3642 96.0085 66.3697 94.7248 70.367C94.084 72.3765 93.4421 74.3842 92.7993 76.3901C92.4747 77.3443 92.2126 78.3164 92.0146 79.3009C91.8425 80.3319 91.7988 81.3782 91.8843 82.4188C92.0233 84.5119 92.281 86.6023 92.4866 88.6872C92.6922 90.7721 92.9007 92.8734 93.1062 94.9557C93.5155 99.1201 93.9208 103.286 94.3224 107.454C94.3745 107.98 94.4227 108.507 94.4671 109.038C94.4816 109.215 94.3484 109.237 94.3282 109.068C93.8504 104.947 93.3292 100.78 92.9209 96.6536C92.5126 92.5273 92.1015 88.4446 91.6932 84.3374C91.5919 83.3072 91.476 82.2743 91.4731 81.2386C91.48 80.287 91.5994 79.3391 91.8293 78.4124Z" fill="#543309"/>
<path d="M93.0488 45.8057C93.9175 52.036 95.5332 63.7144 96.7233 72.1877C99.503 61.921 103.962 45.8057 103.962 45.8057H93.0488Z" fill="#543309"/>
<path d="M90.0081 119.907C90.7175 120.125 110.905 119.948 111.67 119.482C111.959 119.308 112.107 116.539 112.176 113.187C112.176 113.151 112.176 113.116 112.176 113.08C112.194 112.391 112.205 111.679 112.208 110.957C112.208 110.859 112.208 110.761 112.208 110.66C112.255 105.822 111.884 100.802 111.884 100.802L98.6889 100.884L99.0566 110.649L99.0711 111.036L99.1435 113.058V113.266C99.1435 113.266 91.4472 116.588 90.6654 117.185C89.8836 117.782 89.3016 119.698 90.0081 119.907Z" fill="#F09219"/>
<path d="M90.0081 119.907C90.7175 120.125 110.905 119.948 111.67 119.482C111.959 119.307 112.107 116.538 112.176 113.186C112.176 113.151 112.176 113.115 112.176 113.08C112.194 112.39 112.205 111.679 112.208 110.957C112.208 110.859 112.208 110.761 112.208 110.66H99.0566L99.0711 111.047L99.1435 113.069V113.276C99.1435 113.276 91.4472 116.598 90.6654 117.195C89.8836 117.792 89.3016 119.697 90.0081 119.907Z" fill="#EBEBEB"/>
<path d="M90.0079 119.908C90.7173 120.126 110.905 119.948 111.669 119.482C111.959 119.308 112.107 116.539 112.176 113.187C112.176 113.151 112.176 113.116 112.176 113.08L99.1462 113.059V113.266C99.1462 113.266 91.4499 116.588 90.6681 117.185C89.8863 117.782 89.3014 119.698 90.0079 119.908Z" fill="#A6A6A6"/>
<path d="M90.2308 119.169C93.633 119.06 107.367 118.926 110.737 119.06C110.766 119.06 110.766 119.079 110.737 119.082C107.369 119.259 93.633 119.289 90.2308 119.221C90.1526 119.221 90.1526 119.172 90.2308 119.169Z" fill="#B46E13"/>
<path d="M97.704 113.107C99.0389 112.859 100.681 113.039 101.711 113.925C101.752 113.96 101.711 114.012 101.656 113.998C100.373 113.621 99.0495 113.375 97.7098 113.263C97.6904 113.26 97.6726 113.251 97.6595 113.237C97.6465 113.223 97.6389 113.206 97.6382 113.187C97.6375 113.169 97.6438 113.151 97.6558 113.136C97.6678 113.121 97.6849 113.111 97.704 113.107Z" fill="#B46E13"/>
<path d="M96.7431 113.664C98.0779 113.416 99.7197 113.596 100.751 114.481C100.791 114.517 100.751 114.569 100.695 114.558C99.4117 114.18 98.0886 113.932 96.7489 113.819C96.7295 113.817 96.7117 113.807 96.6986 113.794C96.6855 113.78 96.678 113.762 96.6773 113.744C96.6766 113.725 96.6828 113.707 96.6948 113.693C96.7068 113.678 96.7239 113.668 96.7431 113.664Z" fill="#B46E13"/>
<path d="M95.7821 114.219C97.117 113.974 98.7587 114.151 99.7896 115.037C99.8301 115.07 99.7895 115.124 99.7345 115.111C98.451 114.732 97.1278 114.486 95.7879 114.375C95.7703 114.37 95.7548 114.36 95.7435 114.346C95.7322 114.333 95.7258 114.316 95.7252 114.299C95.7245 114.282 95.7297 114.265 95.7399 114.25C95.7501 114.236 95.7649 114.225 95.7821 114.219Z" fill="#B46E13"/>
<path d="M92.0352 45.8057C92.0352 45.8057 92.3247 51.3546 93.6682 55.7507C93.7754 56.1132 93.8941 56.4729 94.0215 56.8136C95.2581 57.2837 96.4464 57.8594 97.5714 58.5334C97.5714 58.5334 97.7133 62.9976 97.861 67.9769C98.0202 73.5422 98.1824 79.7507 98.1505 81.0589C98.026 85.9837 98.8049 113.077 98.8049 113.077L113.341 113.132C113.341 113.132 110.711 82.8795 110.735 81.0725C110.761 78.1727 110.028 65.3496 109.463 55.9987C109.263 52.5754 108.809 49.1695 108.105 45.8057H92.0352Z" fill="#B46E13"/>
<path d="M99.297 110.655C101.518 110.619 100.878 110.6 103.099 110.589C104.188 110.589 111.328 110.554 112.344 110.715C112.365 110.715 112.365 110.753 112.344 110.758C111.328 110.911 104.185 110.824 103.099 110.81C100.878 110.78 101.515 110.766 99.297 110.715C99.2885 110.715 99.2804 110.711 99.2745 110.706C99.2685 110.7 99.2651 110.693 99.2651 110.685C99.2651 110.677 99.2685 110.669 99.2745 110.663C99.2804 110.658 99.2885 110.655 99.297 110.655Z" fill="#543309"/>
<path d="M107.604 47.7899C107.87 55.4211 108.154 63.0522 108.516 70.6834C108.878 78.3146 110.792 105.746 111.281 110.003C111.281 110.03 111.238 110.041 111.232 110.003C110.175 102.429 109.584 91.2221 109.063 83.6019C108.542 75.9816 108.195 68.3395 107.905 60.7084C107.752 56.3913 107.63 52.0742 107.494 47.7572C107.5 47.7245 107.601 47.7299 107.604 47.7899Z" fill="#543309"/>
<path d="M93.4161 56.4844C94.8617 57.0529 96.252 57.7387 97.5712 58.5339C97.5824 58.5394 97.5908 58.5487 97.5946 58.56C97.5984 58.5712 97.5973 58.5834 97.5915 58.5939C97.5858 58.6044 97.5758 58.6123 97.5639 58.6159C97.5519 58.6194 97.5389 58.6184 97.5278 58.613C96.1264 57.9725 94.6931 57.3566 93.3322 56.6425C93.3099 56.632 93.293 56.6136 93.2851 56.5914C93.2772 56.5692 93.279 56.5449 93.2902 56.5239C93.3013 56.503 93.3208 56.487 93.3445 56.4796C93.3681 56.4722 93.3939 56.4739 93.4161 56.4844Z" fill="#543309"/>
<path d="M93.3379 51.7773C93.4334 52.2624 93.5579 52.7448 93.6709 53.2272C93.7838 53.7096 93.8533 54.143 93.9807 54.5899C94.0829 55.0242 94.3174 55.421 94.6553 55.7319C94.8436 55.8981 95.052 56.0453 95.2547 56.1952C95.3619 56.277 95.4806 56.356 95.5935 56.4405C95.5935 56.3751 95.5674 56.3097 95.553 56.2443C95.5182 56.0589 95.4864 55.8736 95.4545 55.6992C95.3792 55.2877 95.3097 54.8816 95.2431 54.4673C95.1128 53.6497 94.9912 52.8457 94.8146 52.0471C94.8146 52.0406 94.8174 52.0344 94.8222 52.0298C94.8271 52.0252 94.8338 52.0226 94.8407 52.0226C94.8476 52.0226 94.8542 52.0252 94.8591 52.0298C94.864 52.0344 94.8667 52.0406 94.8667 52.0471C95.081 52.8402 95.3155 53.6224 95.5009 54.421C95.5935 54.8134 95.9178 56.7458 95.9323 56.8738C95.9468 57.0019 95.9612 57.1464 95.967 57.299C95.9858 57.4429 95.9858 57.5884 95.967 57.7324C95.9642 57.7388 95.9593 57.7443 95.9532 57.7482C95.947 57.7521 95.9397 57.7542 95.9323 57.7542C95.9249 57.7542 95.9176 57.7521 95.9114 57.7482C95.9052 57.7443 95.9004 57.7388 95.8975 57.7324C95.835 57.5983 95.7912 57.4573 95.7672 57.3126C95.7296 57.1736 95.6948 57.0401 95.6688 56.8929C95.6688 56.8439 95.6514 56.7921 95.6456 56.7403C95.4429 56.6231 95.2547 56.4678 95.0665 56.3424C94.8783 56.217 94.6525 56.0698 94.4614 55.9145C94.1038 55.6297 93.8463 55.2496 93.723 54.8243C93.5993 54.3686 93.5189 53.9035 93.4827 53.4344C93.4161 52.8893 93.3697 52.3442 93.2858 51.7991C93.2771 51.7555 93.3379 51.7446 93.3379 51.7773Z" fill="#543309"/>
<path d="M98.101 31.0481C97.0471 34.2968 94.1921 41.0259 91.4413 41.9498C88.178 43.059 78.9586 37.6927 75.8575 34.6974C74.7311 33.6073 79.6217 28.8923 80.9334 29.4946C82.245 30.0969 89.7184 35.2916 90.1499 35.0545C90.8796 34.6538 92.42 33.0322 95.1534 30.3831C97.8868 27.734 98.6078 29.4864 98.101 31.0481Z" fill="#F09219"/>
<path d="M78.6863 36.259C79.6273 36.3789 82.9253 31.5658 82.4505 30.7646C81.6984 29.2654 81.2844 27.6359 81.2343 25.9787C81.2546 24.4634 81.4689 22.2149 80.6031 22.1631C79.3406 22.1005 78.7065 24.9131 78.4488 26.5483C77.696 26.0033 77.001 25.5863 76.4885 25.4909C74.8207 25.1693 72.3537 32.0019 73.4627 33.2556C74.534 34.4738 77.7481 36.1363 78.6863 36.259Z" fill="#F09219"/>
<path d="M76.2217 31.3245L77.7402 31.811L80.0115 25.5313L78.4929 25.0447L76.2217 31.3245Z" fill="#C7C7C7"/>
<path d="M74.2651 35.5368L76.5613 36.2726L78.5737 30.7046L76.2804 29.9688L74.2651 35.5368Z" fill="#B46E13"/>
<path d="M78.9589 26.4886C79.0921 27.3062 77.9831 26.99 77.9831 26.99C77.9831 26.99 79.4598 27.8077 79.2484 28.7179C79.037 29.6282 77.7167 29.1486 77.6211 29.1186C77.6993 29.1622 79.0341 29.9553 78.7243 30.8383C78.4145 31.7214 77.1492 31.1109 77.0681 31.0618C77.1289 31.1245 77.8991 31.9775 77.4995 32.5989C76.8133 33.6646 74.7835 31.5333 73.7121 31.5224C73.7121 31.5224 73.4834 33.2285 73.4631 33.2748C73.4631 33.2748 71.4884 31.2853 71.5868 29.9253C71.5977 29.7266 71.6802 29.5373 71.8207 29.3886C71.9613 29.24 72.1515 29.1409 72.3599 29.1077C72.3599 29.1077 71.6476 28.5326 71.8677 27.8295C71.9835 27.4697 72.6987 27.3225 72.6987 27.3225C72.5458 27.185 72.4358 27.0107 72.3807 26.8185C72.3256 26.6263 72.3274 26.4236 72.386 26.2324C72.5742 25.7418 73.2547 25.6709 73.2547 25.6709C73.2547 25.6709 72.9651 24.9759 73.3212 24.5344C74.0654 23.6296 78.6693 24.7143 78.9589 26.4886Z" fill="#F09219"/>
<path d="M73.3587 25.6324C73.3414 25.6324 73.3414 25.6079 73.3587 25.6079C75.0303 25.6118 76.6611 26.0937 78.035 26.9897C78.0756 27.0197 78.035 27.0987 77.9916 27.0742C76.5301 26.3839 74.9694 25.8982 73.3587 25.6324Z" fill="#B46E13"/>
<path d="M72.678 27.3055C72.6577 27.3055 72.678 27.2728 72.678 27.2756C74.5196 27.2945 76.2929 27.9347 77.6757 29.0798C77.7249 29.1207 77.722 29.2024 77.6757 29.1588C76.6912 28.4202 74.1923 27.5317 72.678 27.3055Z" fill="#B46E13"/>
<path d="M77.1232 31.165C75.7594 30.0584 74.1553 29.4752 72.4151 29.0991C72.3919 29.0991 72.4151 29.0637 72.4151 29.0637C73.3185 29.031 74.4014 29.3798 75.218 29.7178C75.9828 30.0184 76.6507 30.5023 77.1551 31.1213C77.1956 31.1459 77.1638 31.1895 77.1232 31.165Z" fill="#B46E13"/>
<path d="M78.0122 26.9702C78.0643 27.0056 77.9514 27.0356 78.0122 27.0738C78.2207 27.2291 79.4049 28.2675 79.153 28.7581C78.9503 29.1478 78.2525 29.1642 77.9803 29.0715L77.2999 28.8371L77.8529 29.2814C78.1014 29.4749 78.3137 29.7061 78.4813 29.9654C78.569 30.0828 78.6289 30.2166 78.6569 30.3576C78.6849 30.4987 78.6803 30.6438 78.6434 30.7831C78.6086 30.9095 78.5292 31.021 78.4182 31.0992C78.3071 31.1775 78.1711 31.2179 78.0325 31.2137C77.7231 31.1935 77.4242 31.0997 77.1638 30.9411L76.4225 30.5323L76.9785 31.1455C77.1334 31.3155 77.2647 31.5032 77.3694 31.7043C77.4778 31.8916 77.5242 32.1051 77.5026 32.3175C77.4865 32.4126 77.4425 32.5016 77.3754 32.5743C77.3084 32.6471 77.221 32.7007 77.1232 32.729C76.897 32.7676 76.6638 32.7439 76.4515 32.6609C75.983 32.491 75.5299 32.2859 75.0964 32.0477C74.8763 31.9332 74.6533 31.8187 74.4246 31.7152C74.2027 31.599 73.9568 31.5293 73.7036 31.5108C73.9504 31.5574 74.1847 31.6501 74.3928 31.7833C74.6099 31.9005 74.8213 32.0286 75.0327 32.1567C75.4522 32.4284 75.8982 32.662 76.3646 32.8544C76.6169 32.9605 76.8963 32.9965 77.1696 32.958C77.3178 32.9232 77.4518 32.848 77.5548 32.7418C77.6579 32.6356 77.7253 32.5032 77.7487 32.3611C77.7825 32.0991 77.7332 31.8336 77.6068 31.598C77.494 31.3719 77.3509 31.1603 77.1812 30.9684L76.9958 31.1728C77.3038 31.3628 77.6591 31.4737 78.0267 31.4944C78.2308 31.5005 78.4307 31.4388 78.5913 31.32C78.7468 31.2012 78.8599 31.0405 78.9156 30.8594C78.9603 30.6856 78.9653 30.505 78.9304 30.3293C78.8954 30.1536 78.8213 29.9868 78.7129 29.8401C78.5235 29.5581 78.2857 29.3076 78.0093 29.0988L77.8819 29.3059C78.2293 29.4149 79.014 29.4776 79.4078 28.9053C79.8016 28.0822 78.2988 27.1256 78.0122 26.9702Z" fill="#B46E13"/>
<path d="M77.9919 26.9784C78.1737 26.9969 78.3573 26.9886 78.5363 26.9539C78.6081 26.9418 78.6751 26.9119 78.7306 26.8674C78.786 26.8229 78.8279 26.7652 78.8519 26.7004C78.8836 26.5515 78.8685 26.3972 78.8085 26.2562C78.748 26.0894 78.6784 25.9257 78.6 25.7656C78.7578 25.8779 78.889 26.0199 78.9851 26.1826C79.1 26.3586 79.1374 26.5698 79.0894 26.7713C79.0507 26.8799 78.978 26.9749 78.8809 27.0438C78.7859 27.1022 78.6758 27.1352 78.5624 27.1392C78.3589 27.144 78.1591 27.0877 77.9919 26.9784Z" fill="#B46E13"/>
<path d="M83.2553 30.3774L77.3281 37.3326C77.3281 37.3326 87.0166 44.0044 91.6784 42.3283C92.7527 41.9413 96.4011 37.6815 98.2484 31.5057C98.7783 29.7369 98.1413 26.5563 94.5566 30.3583C90.9719 34.1602 90.1959 34.7816 90.0338 34.7898C89.8716 34.798 83.2553 30.3774 83.2553 30.3774Z" fill="#EBEBEB"/>
<path d="M79.532 38.1067C79.9142 37.5371 80.3861 37.0166 80.8263 36.4715C81.2664 35.9264 81.6949 35.4276 82.1379 34.9098C83.0269 33.866 83.8955 32.7922 84.8569 31.8028C84.8611 31.7974 84.8674 31.7938 84.8745 31.7928C84.8815 31.7918 84.8887 31.7934 84.8945 31.7974C84.9003 31.8014 84.9041 31.8073 84.9052 31.814C84.9063 31.8206 84.9045 31.8274 84.9003 31.8328C84.1156 32.9639 83.2035 34.0131 82.3146 35.0842C81.8687 35.613 81.415 36.1381 80.9537 36.6595C80.5228 37.174 80.0617 37.6653 79.5725 38.1313C79.5493 38.164 79.5175 38.1313 79.532 38.1067Z" fill="#B46E13"/>
<path opacity="0.1" d="M98.2605 31.5054C96.4131 37.6812 92.7589 41.941 91.6905 42.328C90.622 42.715 89.0845 42.6659 87.4312 42.2408C90.3267 38.1118 94.9596 31.5135 97.1225 28.5837C98.4255 28.3957 98.6137 30.3035 98.2605 31.5054Z" fill="#13131A"/>
<path d="M89.8832 50.5346L109.39 51.6003C109.39 51.6003 107.074 35.4358 100.875 29.2028C100.107 28.4342 98.2079 28.426 96.9194 28.8921C96.459 29.0583 94.8027 31.1188 94.1541 33.0429C93.5055 34.967 89.8398 50.4719 89.8832 50.5346Z" fill="#F09219"/>
<path d="M97.5971 33.1683L97.1251 31.8301L95.8337 32.7622L95.9669 33.7351L96.9862 33.9832L97.5971 33.1683Z" fill="#B46E13"/>
<path d="M96.9864 33.9834L95.9991 44.9859L94.1488 48.27L93.144 44.449L95.9672 33.7354L96.9864 33.9834Z" fill="#B46E13"/>
<path d="M100.131 28.8081C99.4769 32.204 99.0457 35.6345 98.8395 39.0802C98.2604 52.214 99.3288 75.519 99.7081 77.2169C99.9311 78.1899 111.939 76.4402 111.939 76.4402C111.939 76.4402 110.844 49.5322 106.849 38.9739C103.154 29.1842 100.131 28.8081 100.131 28.8081Z" fill="#EBEBEB"/>
<path d="M109.164 58.1873C107.802 58.3643 106.43 58.4653 105.056 58.4898C103.133 58.4898 101.225 58.3126 100.675 58.3072C100.625 58.3072 100.599 58.4571 100.634 58.4625C102.09 58.63 103.554 58.7282 105.021 58.7569C106.363 58.7475 107.702 58.628 109.023 58.3998C109.023 58.7814 109.023 59.0812 109.023 59.4655C107.667 59.7108 105.053 60.1387 100.828 59.6263C100.828 59.4655 100.828 58.6124 100.802 58.378C100.802 58.3426 100.64 58.3372 100.634 58.3917C100.599 58.6206 100.501 60.6728 100.498 61.0898C100.498 62.1146 100.562 65.0171 100.834 65.5786C101.451 66.8514 104.08 66.8541 104.81 66.8595C105.539 66.865 107.887 66.9331 108.768 66.1237C109.237 65.6903 109.347 63.341 109.269 61.2615C109.228 60.2667 109.225 58.2063 109.164 58.1873ZM105.012 66.5979C102.696 66.5979 101.671 66.1427 101.312 65.6849C100.895 65.1398 100.86 64.2241 100.828 63.1993C100.802 62.3953 100.828 59.8716 100.828 59.8225C102.183 60.0814 105.765 60.4303 109.017 59.7189C109.017 60.9127 109.017 61.8693 109.017 63.0657C109.017 63.9297 108.959 65.3824 108.493 65.8866C108.105 66.309 106.695 66.5952 105.012 66.5979Z" fill="#DBDBDB"/>
<path d="M96.5779 28.9087C96.5779 28.9087 93.5347 39.0581 93.2017 40.628C92.8687 42.1978 90.3061 74.712 89.6952 75.8758C89.4925 76.2682 82.2913 73.8699 82.2913 73.8699C82.2913 73.8699 93.1495 34.6648 93.9979 32.7897C95.2922 29.9334 96.5779 28.9087 96.5779 28.9087Z" fill="#EBEBEB"/>
<path d="M102.141 30.4104C107.078 35.2316 111.25 42.4867 110.709 46.4494C110.17 50.3659 108.78 49.7962 108.375 49.7199C105.888 49.2375 101.828 38.1206 100.667 33.4547C99.6044 29.1948 100.919 29.2139 102.141 30.4104Z" fill="#EBEBEB"/>
<path d="M105.499 46.2286C105.282 45.6998 105.056 45.1738 104.845 44.6396L104.199 43.048C103.774 41.9851 103.331 40.9249 102.934 39.8565C102.537 38.7882 102.103 37.7253 101.703 36.6542C101.501 36.12 101.308 35.5831 101.124 35.0435C100.927 34.4984 100.756 33.9533 100.58 33.4082C100.819 34.5253 101.125 35.629 101.495 36.7141C101.851 37.8043 102.256 38.8727 102.653 39.9437C103.05 41.0148 103.522 42.0696 103.985 43.1189C104.448 44.1681 104.938 45.2174 105.499 46.2286Z" fill="#B46E13"/>
<path d="M100.956 34.8035C100.88 34.6169 100.791 34.4348 100.69 34.2585C100.641 34.1685 100.592 34.0786 100.537 33.9859C100.487 33.8917 100.431 33.8007 100.369 33.7134C100.389 33.9206 100.454 34.1218 100.56 34.3048C100.659 34.4924 100.793 34.6614 100.956 34.8035Z" fill="#B46E13"/>
<path d="M96.8937 33.3407L84.9966 36.0581L88.7549 50.6357L100.652 47.9183L96.8937 33.3407Z" fill="#F09219"/>
<path opacity="0.4" d="M96.8937 33.3407L84.9966 36.0581L88.7549 50.6357L100.652 47.9183L96.8937 33.3407Z" fill="#13131A"/>
<path d="M93.6238 33.2869L87.9834 34.5693L88.3961 36.1774L94.0365 34.895L93.6238 33.2869Z" fill="#C7C7C7"/>
<path d="M92.3451 33.583L91.6502 33.7384L91.4591 32.9971L89.771 33.3814L89.9621 34.1227L89.2671 34.2808L88.9197 32.9289L92.0063 32.2285L92.3451 33.583Z" fill="#C7C7C7"/>
<path d="M109.148 49.6844C107.3 50.0633 104.86 48.8668 98.4749 45.1602C97.5917 44.6451 99.7634 37.8016 100.736 38.3085C101.961 38.9408 106.574 41.6445 106.884 41.8843C109.504 43.8902 110.402 49.4282 109.148 49.6844Z" fill="#F09219"/>
<path d="M103.058 40.1591C103.058 40.1591 101.153 38.0115 99.7774 37.1775C98.3258 36.3453 96.6814 35.8571 94.9852 35.7548C93.1553 35.6376 88.6411 36.5425 88.6903 37.8125C88.7367 38.9599 93.3 37.8125 93.3 37.8125C93.3 37.8125 88.4442 38.2568 88.7685 39.6304C89.0928 41.004 94.3106 39.3933 94.3106 39.3933C94.3106 39.3933 89.3303 39.9547 89.9036 41.3201C90.335 42.3531 95.1503 41.1457 95.1503 41.1457C95.1503 41.1457 90.8707 41.6554 91.2674 42.7346C91.7075 43.9284 96.2245 43.0753 96.2245 43.0753C97.7244 45.6617 99.621 46.2831 100.985 46.602C101.318 46.6729 103.058 40.1591 103.058 40.1591Z" fill="#F09219"/>
<path d="M94.971 37.5532C94.3918 37.5859 93.8127 37.6159 93.251 37.6949C92.6893 37.774 92.1188 37.8748 91.56 38.0056C90.8291 38.1633 90.1191 38.3973 89.4434 38.7033C90.6855 38.24 92.7124 37.9212 93.28 37.8421C93.8475 37.7631 94.4092 37.6541 94.9738 37.5696L94.971 37.5532Z" fill="#B46E13"/>
<path d="M95.3182 39.4778C94.5885 39.5487 93.8704 39.595 93.1349 39.6959C92.3995 39.7967 91.7364 39.9548 91.0212 40.102C90.9662 40.102 90.9922 40.1374 91.0472 40.1265C91.7682 40.0066 92.4429 39.9466 93.161 39.8349C93.8791 39.7231 94.6088 39.5814 95.3211 39.4942C95.3327 39.4915 95.3269 39.4751 95.3182 39.4778Z" fill="#B46E13"/>
<path d="M95.944 41.0779C94.8228 41.1629 93.7139 41.3556 92.6344 41.6529C92.5794 41.6666 92.617 41.6938 92.672 41.6856C93.7694 41.4731 94.6265 41.3014 95.9469 41.116C95.944 41.1133 95.944 41.0779 95.944 41.0779Z" fill="#B46E13"/>
<path d="M102.986 39.2542L101.277 47.5939C101.277 47.5939 108.128 51.1097 109.478 49.5917C110.587 48.3407 109.312 43.9391 107.566 42.2603C106.84 41.5599 102.986 39.2542 102.986 39.2542Z" fill="#EBEBEB"/>
<path d="M102.928 39.5319L103.001 39.2594H102.977C103.617 39.6791 104.263 40.0934 104.897 40.5185C105.531 40.9437 106.168 41.3661 106.779 41.8186C107.084 42.0373 107.375 42.274 107.648 42.5272C107.912 42.7899 108.151 43.0734 108.363 43.3748C108.787 43.9877 109.105 44.6602 109.304 45.367C109.182 44.6338 108.91 43.9296 108.505 43.293C108.301 42.9718 108.062 42.6721 107.79 42.3991C107.514 42.1334 107.219 41.8857 106.907 41.6578C106.287 41.2053 105.644 40.7856 104.993 40.3795C104.341 39.9734 103.669 39.5946 102.986 39.2349H102.969V39.2539L102.928 39.5319Z" fill="#B46E13"/>
<path d="M104.552 41.1783C104.439 41.5899 104.361 42.0123 104.263 42.4293C104.164 42.8463 104.095 43.266 104.02 43.6857C103.866 44.5224 103.715 45.3618 103.579 46.204C103.542 46.4329 103.504 46.6646 103.472 46.8935C103.44 47.1225 103.435 47.3923 103.397 47.6376C103.398 47.6405 103.401 47.643 103.403 47.6447C103.406 47.6465 103.41 47.6474 103.413 47.6474C103.416 47.6474 103.42 47.6465 103.422 47.6447C103.425 47.643 103.427 47.6405 103.429 47.6376C103.469 47.4332 103.542 47.2315 103.588 47.0271C103.634 46.8227 103.678 46.6019 103.721 46.3893C103.802 45.9696 103.881 45.5526 103.959 45.1329C104.112 44.2962 104.248 43.4568 104.387 42.6119C104.46 42.1377 104.544 41.658 104.587 41.1811C104.599 41.1565 104.558 41.1511 104.552 41.1783Z" fill="#B46E13"/>
<path d="M101.446 46.8506C101.417 47.104 101.379 47.3521 101.344 47.6028L101.318 47.551C103.476 48.5158 105.662 49.6496 108.048 49.9494C108.389 49.984 108.734 49.9553 109.064 49.8649C108.744 50.0047 108.395 50.0755 108.042 50.072C105.586 49.9766 103.325 48.8129 101.266 47.6355L101.234 47.6137C101.304 47.3602 101.37 47.104 101.446 46.8506Z" fill="#B46E13"/>
<path d="M97.3304 31.9528C98.3988 32.1681 100.185 30.5901 100.877 29.3473C100.924 29.2628 100.764 28.3688 100.625 27.276C100.544 26.6137 100.469 25.8724 100.455 25.1937C100.455 25.0547 95.9463 26.3248 95.9463 26.3248C96.2241 27.1701 96.3913 28.0441 96.4443 28.9276C96.444 29.0188 96.4362 29.1099 96.4212 29.2001C96.4196 29.2155 96.4196 29.231 96.4212 29.2464C96.3343 29.7861 96.2995 31.7456 97.3304 31.9528Z" fill="#F09219"/>
<path d="M100.513 26.2294C98.9376 28.5542 96.8818 28.4097 96.4069 28.3579C96.3143 27.669 96.1594 26.9888 95.9436 26.3248C95.9436 26.3248 100.449 25.0547 100.452 25.1937C100.464 25.529 100.484 25.8805 100.513 26.2294Z" fill="#B46E13"/>
<path d="M101.535 19.9474C101.906 21.49 100.716 25.7907 99.5086 26.6819C97.7452 27.9764 95.0291 27.9219 93.9057 25.9624C92.8141 24.0546 94.4703 18.4838 95.8138 17.6907C97.7799 16.5134 100.988 17.658 101.535 19.9474Z" fill="#F09219"/>
<path d="M96.7921 22.5171C96.7921 22.5171 96.8123 22.5389 96.8094 22.5498C96.7197 22.8223 96.6705 23.1794 96.9224 23.3429C96.9224 23.3429 96.9224 23.362 96.9224 23.3592C96.5894 23.2311 96.6589 22.776 96.7921 22.5171Z" fill="#B46E13"/>
<path d="M97.1486 22.2801C97.6553 22.3646 97.4381 23.3103 96.972 23.2313C96.5058 23.1523 96.7258 22.212 97.1486 22.2801Z" fill="#B46E13"/>
<path d="M94.9828 22.0898C94.9828 22.0898 94.9567 22.0898 94.9538 22.1116C94.8959 22.406 94.7801 22.7358 94.4761 22.7739C94.4761 22.7739 94.4761 22.7903 94.4761 22.793C94.8293 22.8148 94.9799 22.3787 94.9828 22.0898Z" fill="#B46E13"/>
<path d="M94.7854 21.7298C94.2932 21.5936 94.0413 22.5284 94.4959 22.6538C94.9505 22.7791 95.1879 21.8552 94.7854 21.7298Z" fill="#B46E13"/>
<path d="M97.6089 21.9754C97.4742 21.9378 97.3417 21.8932 97.2122 21.8418C97.0654 21.8131 96.9323 21.7404 96.8329 21.6347C96.8096 21.5951 96.8006 21.5495 96.8074 21.5047C96.8142 21.4599 96.8364 21.4185 96.8706 21.3867C96.9478 21.3336 97.0387 21.3008 97.1338 21.2917C97.229 21.2826 97.325 21.2975 97.412 21.3349C97.6003 21.3876 97.7618 21.5028 97.8666 21.6592C97.888 21.6963 97.8976 21.7384 97.8941 21.7804C97.8906 21.8224 97.8742 21.8626 97.8469 21.8961C97.8196 21.9296 97.7826 21.9549 97.7404 21.9689C97.6982 21.983 97.6525 21.9852 97.6089 21.9754Z" fill="#A6A6A6"/>
<path d="M94.4443 21.2064C94.582 21.2342 94.7212 21.2551 94.8613 21.2691C95.0031 21.3142 95.1567 21.3142 95.2985 21.2691C95.3391 21.2457 95.3703 21.2102 95.387 21.1682C95.4038 21.1263 95.4053 21.0803 95.3912 21.0375C95.3511 20.9556 95.2882 20.8856 95.2091 20.8347C95.1301 20.7838 95.0379 20.7541 94.9424 20.7486C94.7457 20.7034 94.5381 20.7317 94.3632 20.8276C94.3304 20.8527 94.3054 20.8857 94.2911 20.9232C94.2767 20.9606 94.2736 21.0011 94.2819 21.0401C94.2903 21.0792 94.3098 21.1153 94.3385 21.1446C94.3671 21.1739 94.4037 21.1953 94.4443 21.2064Z" fill="#A6A6A6"/>
<path d="M96.5488 25.1878C96.459 25.2396 96.3634 25.3214 96.2592 25.305C96.1445 25.2808 96.0369 25.2333 95.9436 25.166C95.9436 25.166 95.9204 25.166 95.9262 25.166C95.9577 25.2327 96.0076 25.2901 96.0708 25.3323C96.134 25.3745 96.2081 25.3999 96.2853 25.4059C96.3499 25.4009 96.4116 25.3785 96.463 25.3412C96.5144 25.304 96.5532 25.2536 96.5748 25.196C96.5835 25.1905 96.5632 25.1796 96.5488 25.1878Z" fill="#B46E13"/>
<path d="M96.4219 24.2455C96.3162 24.3451 96.1901 24.4233 96.0511 24.4753C95.9122 24.5273 95.7635 24.5521 95.614 24.5481C95.4831 24.5447 95.3534 24.5236 95.2289 24.4854C95.2049 24.4809 95.1815 24.4736 95.1594 24.4636C95.1363 24.4578 95.114 24.4496 95.0928 24.439C95.0771 24.4331 95.064 24.4223 95.0556 24.4085C95.0472 24.3946 95.044 24.3785 95.0465 24.3627C95.0452 24.3528 95.0452 24.3427 95.0465 24.3327V24.3082C95.0899 24.082 95.1913 23.7441 95.1913 23.7441C95.0957 23.7686 94.6122 23.8667 94.6382 23.7441C94.8978 22.7341 95.2655 21.7516 95.7356 20.8115C95.7383 20.8046 95.7438 20.7991 95.7509 20.796C95.7579 20.7929 95.766 20.7926 95.7733 20.7952C95.7806 20.7977 95.7865 20.8028 95.7898 20.8095C95.793 20.8161 95.7933 20.8237 95.7907 20.8306C95.559 21.7654 95.1507 22.6539 94.9017 23.5914C95.0753 23.5538 95.2537 23.5391 95.4316 23.5478C95.4635 23.5642 95.226 24.1992 95.2144 24.3028C95.4049 24.3592 95.6055 24.3794 95.8043 24.3621C96.0032 24.3448 96.1964 24.2903 96.3727 24.2019C96.4248 24.2019 96.445 24.2265 96.4219 24.2455Z" fill="#B46E13"/>
<path d="M95.397 24.4003C95.4915 24.5881 95.6362 24.7496 95.8168 24.8691C95.9171 24.9315 96.0355 24.9629 96.1556 24.9591C96.4162 24.9591 96.4712 24.7328 96.4683 24.5393C96.4652 24.4372 96.4496 24.3357 96.422 24.2368C96.1078 24.3933 95.7484 24.4506 95.397 24.4003Z" fill="#B46E13"/>
<path d="M95.8164 24.8692C95.9167 24.9315 96.0351 24.9629 96.1552 24.9591C96.4158 24.9591 96.4708 24.7329 96.4679 24.5394C96.3357 24.5173 96.1995 24.5379 96.0813 24.5977C95.9631 24.6576 95.8697 24.7532 95.8164 24.8692Z" fill="#F09219"/>
<path d="M100.612 24.1748C99.8009 23.9267 100.166 21.9399 100.166 21.9399C100.166 21.9399 99.2015 21.3948 99.2189 19.5388C99.2189 19.5388 98.1678 21.1931 94.7916 20.2093C94.7968 19.6153 94.9993 19.0378 95.3707 18.5577C94.9216 19.06 94.5168 19.5959 94.1604 20.1602C94.1604 20.1602 93.8708 17.3176 96.4913 16.7834C97.5395 16.5708 99.0075 16.9033 101.058 18.3369C101.058 18.3369 101.735 17.1405 101.964 17.3503C102.193 17.5602 101.46 18.664 101.46 18.664C101.46 18.664 102.505 18.544 102.636 18.7675C102.766 18.991 101.747 19.0401 101.747 19.0401C102.163 19.2631 102.48 19.6198 102.639 20.0447C102.799 20.4696 102.79 20.9344 102.615 21.3539C102.083 22.8148 101.014 24.3083 100.612 24.1748Z" fill="#A6A6A6"/>
<path d="M101.478 18.9638C101.917 19.0243 102.318 19.2339 102.604 19.5532C102.891 19.8725 103.043 20.2794 103.033 20.6972C102.984 21.1797 102.819 21.6456 102.552 22.0599C102.277 22.4968 101.946 22.8996 101.565 23.2591C101.544 23.2809 101.512 23.2455 101.533 23.2264C101.871 22.8854 102.151 22.4975 102.364 22.0762C102.59 21.6843 102.748 21.2612 102.833 20.8226C102.892 20.4131 102.784 19.9976 102.531 19.6599C102.278 19.3221 101.899 19.0871 101.469 19.002C101.446 19.0047 101.446 18.9584 101.478 18.9638Z" fill="#A6A6A6"/>
<path d="M98.5495 16.6765C99.1138 16.9022 99.6443 17.1963 100.128 17.5514C100.602 17.8695 101.015 18.2612 101.35 18.7097C101.367 18.7342 101.335 18.7615 101.315 18.7397C100.533 17.9903 99.6123 17.3808 98.5988 16.9409C97.6751 16.513 96.5226 16.3168 95.6395 16.9409C95.6395 16.9409 95.6077 16.9409 95.6192 16.9191C96.4358 16.2405 97.6085 16.3086 98.5495 16.6765Z" fill="#A6A6A6"/>
<path d="M93.9166 23.4903C93.4099 23.3568 93.1696 22.6727 93.3809 21.9423C93.5923 21.2119 94.1772 20.7431 94.6839 20.8739C95.1907 21.0047 95.431 21.6915 95.2196 22.422C95.0082 23.1524 94.4349 23.6157 93.9166 23.4903ZM94.6347 21.0374C94.2293 20.9339 93.7661 21.3563 93.5692 21.9804C93.3723 22.6046 93.5692 23.1987 93.9687 23.3023C94.3683 23.4058 94.8374 22.9861 95.0343 22.362C95.2312 21.7379 95.0488 21.1492 94.6463 21.0374H94.6347Z" fill="#543309"/>
<path d="M97.0443 24.3077C96.7591 24.2538 96.4978 24.1203 96.2943 23.9246C96.0909 23.7289 95.9548 23.4801 95.9038 23.2105C95.8528 22.941 95.8892 22.6632 96.0084 22.4134C96.1275 22.1636 96.3239 21.9534 96.5718 21.8102C96.8197 21.667 97.1077 21.5974 97.3983 21.6104C97.6888 21.6235 97.9685 21.7187 98.2007 21.8835C98.433 22.0484 98.6071 22.2752 98.7004 22.5346C98.7937 22.7939 98.8018 23.0737 98.7238 23.3374C98.6365 23.675 98.411 23.9665 98.0964 24.1482C97.7818 24.33 97.4036 24.3873 97.0443 24.3077ZM97.7595 21.8548C97.523 21.774 97.2661 21.7622 97.0224 21.8209C96.7786 21.8797 96.5594 22.0062 96.3932 22.1841C96.2271 22.3619 96.1218 22.5828 96.0911 22.8179C96.0604 23.0529 96.1057 23.2912 96.2212 23.5017C96.3366 23.7121 96.5168 23.8849 96.7381 23.9974C96.9595 24.11 97.2118 24.1571 97.4621 24.1326C97.7123 24.1081 97.9489 24.0131 98.1409 23.86C98.333 23.707 98.4715 23.503 98.5384 23.2747C98.6349 22.9892 98.607 22.6794 98.461 22.4131C98.315 22.1469 98.0627 21.9461 97.7595 21.8548Z" fill="#543309"/>
<path d="M96.2338 22.5474C95.6055 22.1386 95.2262 22.2748 95.2233 22.2748L95.1509 22.1059C95.1683 22.1059 95.62 21.9287 96.3438 22.4002L96.2338 22.5474Z" fill="#543309"/>
<path d="M98.6655 23.1852L98.68 23.0054C98.8074 23.0054 100.791 23.1008 101.104 23.1662C101.416 23.2316 102.074 23.8284 102.146 23.8966L102.024 24.0356C101.753 23.7643 101.437 23.5352 101.089 23.3569C100.82 23.2943 99.734 23.2752 98.6655 23.1852Z" fill="#543309"/>
<path d="M99.89 23.8665C99.89 23.8665 101.074 22.5528 101.72 22.9643C102.366 23.3759 101.372 25.3436 100.547 25.5535C100.443 25.5868 100.333 25.6 100.224 25.5924C100.114 25.5848 100.008 25.5565 99.9101 25.5091C99.8126 25.4618 99.7261 25.3965 99.656 25.317C99.5858 25.2375 99.5335 25.1455 99.502 25.0466L99.89 23.8665Z" fill="#F09219"/>
<path d="M101.42 23.52V23.5418C100.841 23.7053 100.496 24.1659 100.242 24.6538C100.279 24.6039 100.328 24.5623 100.384 24.5318C100.44 24.5014 100.503 24.4828 100.568 24.4773C100.632 24.4719 100.698 24.4797 100.759 24.5003C100.82 24.5209 100.876 24.5537 100.922 24.5966C100.936 24.5966 100.922 24.6293 100.905 24.6238C100.809 24.5857 100.704 24.5762 100.603 24.5967C100.502 24.6172 100.41 24.6667 100.34 24.7383C100.224 24.8592 100.122 24.9917 100.036 25.1335C100.004 25.1771 99.9172 25.1335 99.9404 25.0926C99.9983 24.4085 100.65 23.52 101.42 23.52Z" fill="#B46E13"/>
<path d="M96.445 29.0041L97.1921 31.4351L100.867 28.9087L101.417 30.0942C101.417 30.0942 97.722 34.1115 97.7364 33.9098L97.0357 31.8603L95.365 32.975L96.0194 29.6664L96.445 29.0041Z" fill="#F09219"/>
<path d="M95.5703 31.32C95.7006 30.7749 95.8135 30.2299 95.9698 29.6848C95.9698 29.6657 96.0104 29.663 96.0104 29.6848C96.048 30.2299 95.5442 32.3066 95.4631 32.8108C95.5326 32.7618 97.0007 31.8379 97.0122 31.8569C97.1802 32.1922 97.6985 33.683 97.7274 33.8165C98.3065 33.1788 100.759 30.6823 101.425 30.0936C101.442 30.0772 101.474 30.0936 101.457 30.1181C100.921 30.8049 97.7477 34.1081 97.713 34.0918C97.4287 33.3833 97.1851 32.6609 96.9833 31.9278C96.7256 32.1377 95.2228 33.2033 95.2315 33.1215C95.3096 32.5157 95.4227 31.9143 95.5703 31.32Z" fill="#B46E13"/>
<path d="M80.835 24.7163C80.6172 24.706 80.401 24.6759 80.1893 24.6263L80.0388 24.5882L79.9056 24.55L79.8129 24.5228L78.4607 24.0567C78.5836 24.1004 78.7094 24.1368 78.8371 24.1657C78.945 24.1903 79.0542 24.2094 79.1643 24.223C79.2657 24.223 79.3728 24.2475 79.4828 24.253C82.1583 24.3974 84.8135 21.8273 85.41 18.5296C85.8704 15.9759 84.9786 13.7301 83.3194 12.7653C83.1128 12.6452 82.8935 12.5456 82.665 12.4683L84.0201 12.9289C84.0781 12.9479 84.1331 12.9697 84.191 12.9943L84.3358 13.0542L84.4024 13.0869L84.5095 13.1387L84.5703 13.1714C85.6098 13.7356 86.3626 14.793 86.6898 16.1149C86.7072 16.183 86.7217 16.2511 86.7362 16.3193C86.9153 17.1993 86.9202 18.103 86.7506 18.9847C86.1657 22.2907 83.5105 24.8526 80.835 24.7163Z" fill="#543309"/>
<path d="M74.8789 17.9546C74.2709 21.3205 75.6723 24.223 78.0988 25.0624L79.451 25.5258C77.0245 24.7081 75.626 21.7838 76.2311 18.4179C76.9348 14.5342 80.0504 11.5199 83.1804 11.6861C83.4352 11.7003 83.6881 11.7358 83.9362 11.7924C84.0845 11.8246 84.2305 11.8656 84.3734 11.915L83.0212 11.4544C82.6378 11.3228 82.2357 11.2456 81.8282 11.2255C78.6952 11.0565 75.5796 14.0736 74.8789 17.9546Z" fill="#543309"/>
<path d="M87.6019 19.0241C88.2129 15.6473 86.7998 12.7229 84.3618 11.908L84.1967 11.8562H84.1504C84.0838 11.8372 84.0172 11.8208 83.9477 11.8072C83.8261 11.7799 83.7045 11.7554 83.58 11.739C83.4555 11.7227 83.3252 11.7091 83.1949 11.7009C80.0561 11.5346 76.9405 14.5517 76.2456 18.4327C76.0335 19.5473 76.0591 20.6906 76.3209 21.7958C76.3575 21.9503 76.401 22.1029 76.4512 22.2537C76.5004 22.4036 76.5525 22.548 76.6133 22.6925C76.6683 22.8336 76.7311 22.9719 76.8015 23.1068C76.8334 23.1749 76.8681 23.2403 76.9058 23.3084C77.0119 23.4966 77.1298 23.6786 77.259 23.8535C77.343 23.9707 77.4328 24.0825 77.5254 24.1915C77.9291 24.6729 78.4388 25.0662 79.0195 25.3443C79.0608 25.3656 79.1034 25.3847 79.1469 25.4016L79.3583 25.4888H79.3757C79.5478 25.5541 79.7249 25.6069 79.9055 25.6468C80.1537 25.7023 80.4066 25.7369 80.6613 25.7504C83.7827 25.9248 86.9041 22.9105 87.6019 19.0241ZM80.835 24.7175C80.6172 24.7072 80.4009 24.6771 80.1893 24.6275L80.0387 24.5894L79.9055 24.5512C79.6456 24.4701 79.3968 24.3603 79.1643 24.2242C77.5022 23.2621 76.6104 21.0164 77.0708 18.4626C77.6673 15.154 80.3254 12.5839 83.0009 12.7393C83.108 12.7393 83.2152 12.7556 83.3194 12.7693C83.4285 12.7828 83.5368 12.8019 83.6437 12.8265C83.771 12.8558 83.8967 12.8912 84.0201 12.9328C84.078 12.9519 84.133 12.9737 84.191 12.9982L84.3357 13.0581L84.4023 13.0909L84.5095 13.1426L84.5703 13.1753C85.6098 13.7395 86.3626 14.797 86.6898 16.1188C86.7072 16.1869 86.7217 16.2551 86.7361 16.3232C86.9153 17.2033 86.9202 18.1069 86.7506 18.9887C86.1657 22.2919 83.5105 24.8537 80.835 24.7175Z" fill="#B46E13"/>
<path opacity="0.4" d="M79.4828 24.2535C79.3728 24.2535 79.2656 24.2371 79.1643 24.2235C77.5022 23.2615 76.6104 21.0157 77.0708 18.462C77.6673 15.1533 80.3254 12.5833 83.0009 12.7386C83.108 12.7386 83.2151 12.755 83.3194 12.7686C84.9785 13.7334 85.8704 15.9791 85.41 18.5329C84.8135 21.8279 82.1583 24.3979 79.4828 24.2535Z" fill="white"/>
<g opacity="0.3">
<path d="M85.1524 15.0411L77.6587 16.5974C77.8341 16.2063 78.0423 15.829 78.2812 15.469L84.7151 14.1309C84.8922 14.4201 85.0387 14.725 85.1524 15.0411Z" fill="#EBEBEB"/>
<path d="M83.8461 13.1341L79.5693 14.0226C80.5828 13.1587 81.7902 12.6599 83.0005 12.7308C83.1077 12.7308 83.2148 12.7471 83.3191 12.7608C83.5064 12.8699 83.6828 12.9949 83.8461 13.1341Z" fill="#EBEBEB"/>
<path d="M85.372 15.7553L77.3311 17.4259C77.389 17.2461 77.4556 17.0662 77.5251 16.8809L85.2446 15.2783C85.2938 15.4391 85.3372 15.5863 85.372 15.7553Z" fill="#EBEBEB"/>
<path d="M83.6405 22.2388C83.4522 22.4579 83.2491 22.6655 83.0324 22.8602L78.5704 23.7868C78.4236 23.6612 78.288 23.5245 78.165 23.378L83.6405 22.2388Z" fill="#EBEBEB"/>
<path d="M84.8278 20.3813L77.3225 21.9402C77.0907 21.3047 76.9656 20.6389 76.9519 19.967L85.459 18.1982C85.4445 18.3045 85.4272 18.4108 85.4098 18.5198C85.2937 19.1596 85.0983 19.7843 84.8278 20.3813Z" fill="#EBEBEB"/>
</g>
<path d="M116.633 14.2975C116.633 15.3392 116.325 16.3603 115.745 17.2471C115.164 18.1339 114.334 18.8515 113.345 19.3198C112.357 19.7882 111.249 19.9888 110.147 19.8994C109.044 19.81 107.99 19.4341 107.101 18.8135L104.173 19.5167L105.392 16.9493C104.964 16.1957 104.724 15.36 104.69 14.5058C104.656 13.6516 104.83 12.8014 105.198 12.0198C105.565 11.2383 106.118 10.5459 106.812 9.99545C107.507 9.44497 108.326 9.05084 109.207 8.84302C110.088 8.6352 111.008 8.61916 111.896 8.79613C112.785 8.9731 113.618 9.33841 114.334 9.8643C115.05 10.3902 115.629 11.0628 116.028 11.831C116.426 12.5992 116.633 13.4427 116.633 14.2975Z" fill="white"/>
<path d="M116.633 14.2973C116.688 17.5378 113.563 20.2469 110.138 19.9634C109.019 19.8838 107.946 19.5119 107.04 18.8896L107.127 18.906L104.205 19.6309L103.95 19.6936L104.057 19.4674L105.265 16.8973V17.0118C104.608 15.8511 104.396 14.5129 104.665 13.2224C104.933 11.9319 105.665 10.7677 106.739 9.92572C110.662 6.8787 116.627 9.5169 116.627 14.3027L116.633 14.2973ZM116.633 14.2973C116.65 10.7052 112.915 7.96614 109.226 8.92004C105.601 9.76492 103.724 13.8067 105.514 16.8892L105.549 16.9464L105.52 17.0036L104.289 19.5628L104.141 19.3993L107.074 18.7179H107.124L107.161 18.7452C111.041 21.5115 116.61 18.8787 116.633 14.3082V14.2973Z" fill="#B46E13"/>
<path d="M109.692 17.6443L107.013 15.0933L107.914 14.2566L109.477 15.7474L112.726 10.9507L113.792 11.5912L109.692 17.6443Z" fill="#F09219"/>
</svg>
