<svg width="48" height="48" viewBox="0 0 48 48" fill="none" xmlns="http://www.w3.org/2000/svg">
<path d="M12 4.5H32C35.2036 4.5 37.0059 4.91213 38.0469 5.95312C39.0858 6.992 39.4983 8.7891 39.5 11.9805H29.7402C26.7024 11.9805 24.3724 12.6852 22.8086 14.249C21.245 15.8128 20.5401 18.1421 20.54 21.1797V30.9004H19V39H20.54V41H9.90039C9.35653 41 8.90039 40.5439 8.90039 40C8.90039 39.4561 9.35653 39 9.90039 39H17V30.9004H12C8.86813 30.9004 7.07185 30.5033 6.01855 29.5088C5.03855 28.5835 4.58791 27.0297 4.51074 24.3467L4.5 23.7949V12C4.5 8.79643 4.91213 6.99412 5.95312 5.95312C6.99412 4.91213 8.79643 4.5 12 4.5Z" fill="#F09219" stroke="#F09219"/>
<path d="M40 15.58C39.5 15.52 38.92 15.48 38.3 15.48H29.74C25.46 15.48 24.04 16.9 24.04 21.18V38.5C24.06 39.74 24.2 40.72 24.5 41.5C25.2 43.32 26.78 44 29.74 44H38.3C42.58 44 44 42.58 44 38.3V21.18C44 17.52 42.96 15.96 40 15.58ZM34.02 20.18C35.76 20.18 37.16 21.58 37.16 23.32C37.16 25.06 35.76 26.46 34.02 26.46C32.28 26.46 30.88 25.06 30.88 23.32C30.88 21.58 32.28 20.18 34.02 20.18ZM34.02 38.3C31.66 38.3 29.74 36.38 29.74 34.02C29.74 33.04 30.08 32.12 30.64 31.4C31.42 30.4 32.64 29.74 34.02 29.74C35.1 29.74 36.08 30.14 36.82 30.78C37.72 31.58 38.3 32.74 38.3 34.02C38.3 36.38 36.38 38.3 34.02 38.3Z" fill="#F09219"/>
<path d="M40 15.58C39.5 15.52 38.92 15.48 38.3 15.48H29.74C25.46 15.48 24.04 16.9 24.04 21.18V38.5C24.06 39.74 24.2 40.72 24.5 41.5C25.2 43.32 26.78 44 29.74 44H38.3C42.58 44 44 42.58 44 38.3V21.18C44 17.52 42.96 15.96 40 15.58ZM34.02 20.18C35.76 20.18 37.16 21.58 37.16 23.32C37.16 25.06 35.76 26.46 34.02 26.46C32.28 26.46 30.88 25.06 30.88 23.32C30.88 21.58 32.28 20.18 34.02 20.18ZM34.02 38.3C31.66 38.3 29.74 36.38 29.74 34.02C29.74 33.04 30.08 32.12 30.64 31.4C31.42 30.4 32.64 29.74 34.02 29.74C35.1 29.74 36.08 30.14 36.82 30.78C37.72 31.58 38.3 32.74 38.3 34.02C38.3 36.38 36.38 38.3 34.02 38.3Z" fill="#F09219"/>
</svg>
