<svg width="48" height="48" viewBox="0 0 48 48" fill="none" xmlns="http://www.w3.org/2000/svg">
<path d="M38 4.5C41.0376 4.5 43.5 6.96243 43.5 10C43.5 13.0376 41.0376 15.5 38 15.5C34.9624 15.5 32.5 13.0376 32.5 10C32.5 6.96243 34.9624 4.5 38 4.5Z" fill="#F09219" stroke="#F09219"/>
<path d="M18.7545 5.20068C21.9947 4.32298 25.0932 4.30582 27.9567 4.90967H27.9586C28.8139 5.08661 29.3293 6.01091 29.0289 6.85205V6.85303C28.4163 8.58533 28.2904 10.5281 28.8365 12.5474V12.5483C29.6826 15.7418 32.2583 18.3175 35.4518 19.1636H35.4537C37.4675 19.688 39.407 19.564 41.1198 18.9526L41.1207 18.9536C41.9747 18.6639 42.8945 19.1744 43.0699 20.021L43.0709 20.0229C43.6374 22.728 43.6559 25.6203 42.9166 28.6235L42.7584 29.2261C40.711 36.6164 34.3512 42.2519 26.7516 43.3042C13.8397 45.0789 2.90081 34.14 4.69495 21.229C5.74721 13.6488 11.3835 7.26783 18.7545 5.20068Z" fill="#F09219" stroke="#F09219"/>
</svg>
