<svg width="48" height="48" viewBox="0 0 48 48" fill="none" xmlns="http://www.w3.org/2000/svg">
<path d="M36 26.5C41.2439 26.5 45.5 30.7561 45.5 36C45.5 41.2439 41.2439 45.5 36 45.5C30.7561 45.5 26.5 41.2439 26.5 36C26.5 30.7561 30.7561 26.5 36 26.5ZM34.5283 31.1396C33.8167 30.5791 32.7812 30.6114 32.126 31.2666L28.6592 34.7334C27.9771 35.443 27.9673 36.5745 28.666 37.2734L32.126 40.7334C32.4845 41.0919 32.9347 41.2598 33.4004 41.2598C33.866 41.2597 34.3154 41.0918 34.6738 40.7334L34.6807 40.7266C35.3629 40.0169 35.3726 38.8855 34.6738 38.1865L32.4873 36L34.6807 33.8066C35.3629 33.097 35.3726 31.9656 34.6738 31.2666L34.667 31.2598L34.5283 31.1396ZM39.7285 31.1396C39.0169 30.579 37.9815 30.6113 37.3262 31.2666L37.3193 31.2734C36.6371 31.9831 36.6274 33.1145 37.3262 33.8135L39.5117 35.999L37.3076 38.1846L37.2998 38.1934C36.6174 38.903 36.6076 40.0344 37.3066 40.7334C37.6652 41.0919 38.1144 41.2598 38.5801 41.2598C39.0458 41.2597 39.495 41.0919 39.8535 40.7334L43.3203 37.2666C44.0052 36.5543 44.0052 35.4539 43.3477 34.7412L43.3408 34.7334L39.874 31.2666L39.8662 31.2598L39.7285 31.1396Z" fill="#F09219" stroke="#F09219"/>
<path d="M42 14.0001V22.9401C42 23.6401 41.32 24.1201 40.68 23.8801C38.46 23.0201 35.98 22.7401 33.38 23.2601C28.18 24.3001 24.04 28.5601 23.18 33.8001C22.66 37.0001 23.3 40.0201 24.76 42.4801C25.16 43.1601 24.68 44.0001 23.9 44.0001H16C9 44.0001 6 40.0001 6 34.0001V14.0001C6 8.68009 8.36 4.94009 13.78 4.16009C14.36 4.08009 14.88 4.54009 14.9 5.14009L14.96 7.16009C15.02 10.3601 17.72 13.0001 20.96 13.0001H27C30.3 13.0001 33 10.3001 33 7.00009V5.14009C33 4.54009 33.52 4.06009 34.1 4.14009C39.6 4.88009 42 8.64009 42 14.0001Z" fill="#F09219"/>
<path d="M30 6V7C30 8.64 28.64 10 27 10H20.94C19.32 10 17.98 8.7 17.94 7.08L17.92 6.06C17.88 4.92 18.78 4 19.92 4H28C29.1 4 30 4.9 30 6Z" fill="#F09219"/>
</svg>
