<svg width="48" height="48" viewBox="0 0 48 48" fill="none" xmlns="http://www.w3.org/2000/svg">
<path d="M15.6201 4.5C15.8814 4.50005 16.0851 4.67172 16.1318 4.88574L16.1328 4.89355L16.1348 4.90137L20.5352 22.5605L20.5361 22.5654C20.6077 22.8414 20.4436 23.1083 20.1904 23.1768L20.1807 23.1797L5.18066 27.5195L5.1748 27.5215C4.83981 27.6229 4.5 27.368 4.5 27.0195V15.6201C4.5 9.47626 9.47626 4.5 15.6201 4.5Z" fill="#F09219" stroke="#F09219"/>
<path d="M22.24 27.3602C22.1 26.8002 21.52 26.4602 20.96 26.6202L4.74 31.3402C4.3 31.4802 4 31.8802 4 32.3402V32.3802C4 38.8002 9.2 44.0002 15.62 44.0002H25.06C25.72 44.0002 26.22 43.3802 26.06 42.7202L22.24 27.3602Z" fill="#F09219"/>
<path d="M32.38 4H20.88C20.22 4 19.72 4.62 19.88 5.28L29.36 43.22C29.48 43.68 29.88 44 30.36 44H32.36C38.8 44 44 38.8 44 32.38V15.62C44 9.2 38.8 4 32.38 4Z" fill="#F09219"/>
</svg>
