<svg width="48" height="48" viewBox="0 0 48 48" fill="none" xmlns="http://www.w3.org/2000/svg">
<path d="M15.6201 4.5H32.3799C35.9205 4.5 38.686 5.55373 40.5635 7.43359C42.4408 9.31327 43.4901 12.0781 43.4805 15.6182V32.3799C43.4805 35.9203 42.4269 38.6863 40.5469 40.5664C38.6668 42.4465 35.9007 43.4999 32.3604 43.5H15.6201C12.0796 43.5 9.31365 42.4468 7.43359 40.5645C5.55352 38.682 4.50007 35.9111 4.5 32.3604V15.6201C4.5 12.0796 5.55347 9.31372 7.43359 7.43359C9.31372 5.55347 12.0796 4.5 15.6201 4.5ZM12.6455 31.1279C11.5729 30.7525 10.4506 31.3465 10.1055 32.3818C9.75989 33.4186 10.3152 34.565 11.3623 34.9141C15.4336 36.2711 19.7068 36.96 24 36.96C28.2932 36.96 32.5664 36.2711 36.6377 34.9141C37.6847 34.5651 38.2332 33.4443 37.9189 32.3965L37.917 32.3887L37.9141 32.3818C37.565 31.3348 36.4186 30.7804 35.3818 31.126C28.0467 33.571 19.9801 33.5716 12.6445 31.1279H12.6455ZM21.1797 13.3604C20.0837 13.3605 19.1797 14.2643 19.1797 15.3604C19.1799 16.4562 20.0838 17.3602 21.1797 17.3604H24.833L16.9268 25.2666C16.1515 26.0419 16.1515 27.3185 16.9268 28.0938C17.3254 28.4922 17.8345 28.6796 18.3398 28.6797C18.8449 28.6797 19.3544 28.4928 19.7529 28.0947L27.6797 20.2041V23.8604C27.6799 24.9562 28.5838 25.8602 29.6797 25.8604C30.7757 25.8604 31.6795 24.9563 31.6797 23.8604V15.3799C31.6797 15.1147 31.6268 14.8447 31.5166 14.5967H31.5156C31.3002 14.0925 30.9038 13.7282 30.4434 13.5234L30.4258 13.5156L30.2402 13.4492C30.0545 13.3915 29.8662 13.3604 29.6602 13.3604H21.1797Z" fill="#F09219" stroke="#F09219"/>
</svg>
