<svg width="48" height="48" viewBox="0 0 48 48" fill="none" xmlns="http://www.w3.org/2000/svg">
<path d="M28.96 4.5V12.2197H19.04V4.5H28.96Z" fill="#F09219" stroke="#F09219"/>
<path d="M32.96 4.50879C35.746 4.59926 38.0249 5.37111 39.7354 6.7002C41.4067 7.99889 42.568 9.85709 43.1221 12.2197H32.96V4.50879Z" fill="#F09219" stroke="#F09219"/>
<path d="M4 15.7202V32.3802C4 39.6602 8.34 44.0002 15.62 44.0002H32.38C39.66 44.0002 44 39.6602 44 32.3802V15.7202H4ZM28.88 32.3602L24.72 34.7602C23.84 35.2602 22.98 35.5202 22.18 35.5202C21.58 35.5202 21.04 35.3802 20.54 35.1002C19.38 34.4402 18.74 33.0802 18.74 31.3202V26.5202C18.74 24.7602 19.38 23.4002 20.54 22.7402C21.7 22.0602 23.18 22.1802 24.72 23.0802L28.88 25.4802C30.42 26.3602 31.26 27.6002 31.26 28.9402C31.26 30.2802 30.4 31.4602 28.88 32.3602Z" fill="#F09219"/>
<path d="M15.54 4C9.34001 4.02 5.28001 7.22 4.26001 12.72H15.54V4Z" fill="#F09219"/>
</svg>
